STARTFONT 2.1
COMMENT
COMMENT Converted from OpenType font "RuthlessSketch_Italic.ttf" by "otf2bdf 3.0".
COMMENT
FONT -FreeType-Ruthless Sketch-Medium-I-Normal--77-560-100-100-P-417-ISO10646-1
SIZE 56 100 100
FONTBOUNDINGBOX 102 86 -35 -15
STARTPROPERTIES 19
FOUNDRY "FreeType"
FAMILY_NAME "Ruthless Sketch"
WEIGHT_NAME "Medium"
SLANT "I"
SETWIDTH_NAME "Normal"
ADD_STYLE_NAME ""
PIXEL_SIZE 77
POINT_SIZE 560
RESOLUTION_X 100
RESOLUTION_Y 100
SPACING "P"
AVERAGE_WIDTH 417
CHARSET_REGISTRY "ISO10646"
CHARSET_ENCODING "1"
FONT_ASCENT 72
FONT_DESCENT 15
COPYRIGHT "© 2024 GGBotNet. All Rights Reserved."
_OTF_FONTFILE "RuthlessSketch_Italic.ttf"
_OTF_PSNAME "RuthlessSketch-Italic"
ENDPROPERTIES
CHARS 1105
STARTCHAR 0020
ENCODING 32
SWIDTH 308 0
DWIDTH 24 0
BBX 0 0 0 0
BITMAP
ENDCHAR
STARTCHAR 0021
ENCODING 33
SWIDTH 295 0
DWIDTH 23 0
BBX 28 59 6 -1
BITMAP
00000FE0
00FFFFF0
01FFFFF0
01FFFFE0
01FFFFE0
03FFFFC0
03FFFFC0
03FFFF80
03FFFF80
03FFFF00
03FFFF00
03FFFF00
03FFFE00
07FFFE00
07FFFC00
07FFFC00
07FFFC00
07FFF800
07FFF800
07FFF800
07FFF000
07FFF000
07FFF000
07FFE000
07FFE000
07FFE000
07FFC000
0FFFC000
0FFFC000
0FFF8000
0FFF8000
0FFF8000
0FFF8000
0FFF0000
0FFF0000
0FFF0000
0FFE0000
0FFE0000
0FF80000
07C00000
00000000
00000000
00000000
00000000
00000000
03F80000
1FFC0000
3FFC0000
7FFC0000
7FFC0000
FFFC0000
FFFC0000
FFFC0000
FFFC0000
FFF80000
FFF80000
7FF00000
3FE00000
1F000000
ENDCHAR
STARTCHAR 0022
ENCODING 34
SWIDTH 385 0
DWIDTH 30 0
BBX 30 29 11 28
BITMAP
000000C0
1FF80FF0
1FF81FF8
3FF81FFC
3FF83FFC
3FF83FFC
7FF07FF8
7FF07FF8
7FF07FF8
FFF07FF0
FFF07FF0
FFE07FF0
FFE07FE0
FFE07FE0
FFE07FE0
FFC07FC0
FFC07FC0
FF807F80
FF807F80
FF007F80
FF007F00
FE007F00
FE007E00
FC007E00
FC007C00
FC007C00
F8007C00
F8007800
70006000
ENDCHAR
STARTCHAR 0023
ENCODING 35
SWIDTH 514 0
DWIDTH 40 0
BBX 46 55 3 0
BITMAP
000000000040
000001E600C4
000001FE00FC
000003FE01FC
000003FE03F8
000007FC03F8
000007FC07F0
00000FF807F0
00000FF80FE0
00001FF80FE0
00001FF01FC0
00003FF01FC0
00003FE03F80
00003FE07F80
0000FFFFFFF0
01FFFFFFFFF0
01FFFFFFFFF0
01FFFFFFFFF0
03FFFFFFFFF0
03FFFFFFFFF0
03FFFFFFFFF0
03FFFFFFFFE0
03FFFFFFFFE0
07FFFFFFFBC0
01FFFC0FF000
000FF81FE000
000FF01FE000
000FF03FE000
001FE03FC000
001FE07FC800
003FFFFFFF80
1FFFFFFFFF80
1FFFFFFFFF80
1FFFFFFFFF00
1FFFFFFFFF00
1FFFFFFFFF00
3FFFFFFFFF00
3FFFFFFFFE00
3FFFFFFFFE00
3FFFFFFFFE00
3FFFFFF80000
07F81FF80000
07F01FF00000
0FF03FF00000
0FE03FE00000
1FE07FE00000
1FC07FC00000
3F807FC00000
3F80FF800000
7F00FF800000
7F00FF800000
FE01FF000000
FE01FF000000
9C01FE000000
080000000000
ENDCHAR
STARTCHAR 0024
ENCODING 36
SWIDTH 501 0
DWIDTH 39 0
BBX 46 71 2 -8
BITMAP
0000003FF000
0000007FF000
0000007FE000
0000007FE000
0000007FE000
000000FFE000
000000FFC000
000000FFC000
000000FFC000
000000FFF000
000001FFFE00
000007FFFF80
00001FFFFFC0
00007FFFFFE0
0001FFFFFFF0
0007FFFFFFF8
000FFFFFFFFC
000FFFFFFFFC
001FFFFFFFFC
001FFFFFFFF8
003FFFFFFFF8
003FFFFFFFF8
003FFFFFFFF0
007FFFFF8FF0
007FFFFE03E0
007FFFFE0180
007FFFFE0000
007FFFFC0000
007FFFFC0000
007FFFFC0000
007FFFFC0000
003FFFFC0000
003FFFFF8000
003FFFFFE000
001FFFFFF000
0003FFFFF000
0000FFFFF800
00007FFFF800
00007FFFF800
00007FFFFC00
00007FFFFC00
00007FFFFC00
0000FFFFFC00
0300FFFFFC00
03FFFFFFFC00
03FFFFFFF800
07FFFFFFF800
07FFFFFFF000
0FFFFFFFF000
0FFFFFFFE000
1FFFFFFFE000
1FFFFFFFC000
1FFFFFFF8000
3FFFFFFF8000
3FFFFFFF0000
7FFFFFFF0000
7FFFFFFE0000
7FFFFFFE0000
FFFFFFFC0000
FFFFFFF00000
FFFFFFC00000
07FFFF000000
000FFE000000
000FFE000000
000FFE000000
000FFC000000
001FFC000000
001FFC000000
001FF8000000
001FF8000000
001FF8000000
ENDCHAR
STARTCHAR 0025
ENCODING 37
SWIDTH 565 0
DWIDTH 44 0
BBX 45 53 5 1
BITMAP
000000000180
0000000003F0
0003F00007F8
000FF8000FF8
001FFC001FF0
003FFC001FF0
007FFE003FE0
00FFFE007FC0
01FCFF00FFC0
03F87F00FF80
03F07F01FF00
07F03F03FE00
07E03F03FE00
07E07F07FC00
07E07E0FF800
07E07E1FF000
07E0FE3FF000
0FE0FC3FE000
0FE3FC7FC000
07FFF8FF8000
07FFF1FF0000
03FFE3FF0000
01FFC3FE0000
01FF87FC0000
007C0FF80000
00001FF00000
00003FF00000
00003FE1F800
00007FC7FC00
0000FF8FFE00
0001FF1FFF00
0003FF3FFF00
0003FE7FFF80
0007FCFF3F80
000FF8FE1F80
001FF1FC1F80
003FE1F81F80
003FE1F81F80
007FC3F81F80
00FF83F01F80
01FF03F03F80
03FE03F83F00
03FC03F87F00
07FC03FCFE00
0FF801FFFE00
1FF001FFFC00
3FE001FFF800
7FC000FFF000
7F80007FC000
FF00000F0000
FF0000000000
FE0000000000
7C0000000000
ENDCHAR
STARTCHAR 0026
ENCODING 38
SWIDTH 501 0
DWIDTH 39 0
BBX 40 53 4 1
BITMAP
0000060000
00007FF000
0001FFFC00
0007FFFC00
000FFFFE00
001FFFFE00
003FFFFE00
003FFFFE00
007FFFFE00
007FC3FE00
007F81FE00
007F81FE00
007F83FC00
007F87FC00
007FCFF800
007FFFF800
007FFFF000
003FFFE000
003FFFE000
003FFFC000
003FFFC1FF
007FFFC1FF
00FFFFC1FE
01FFFFE3FE
03FFFFF3FC
03FFFFF3FC
07FFFFFFFC
07FFFFFFF8
0FFE3FFFF8
1FFC1FFFF0
1FF81FFFF0
1FF80FFFE0
3FF807FFE0
3FF007FFE0
7FF003FFC0
7FF001FFC0
7FF001FFE0
7FF000FFE0
7FF001FFF0
FFF803FFF0
FFFE7FFFF8
FFFFFFFFF8
7FFFFFFFF8
7FFFFFFFF8
7FFFFFFFF8
7FFFFFFFF0
3FFFFFF3F0
1FFFFFE1F0
0FFFFFE1F0
07FFFF80F0
01FFFE0060
003FF00060
0007000000
ENDCHAR
STARTCHAR 0027
ENCODING 39
SWIDTH 205 0
DWIDTH 16 0
BBX 15 29 11 28
BITMAP
01E0
1FFC
3FFE
3FFE
7FFE
7FFE
7FFE
7FFE
7FFE
FFFC
FFFC
FFFC
FFFC
FFF8
FFF8
FFF0
FFF0
FFE0
FFE0
FFC0
FFC0
FF80
FF80
FF00
7F00
7E00
7C00
7C00
7800
ENDCHAR
STARTCHAR 0028
ENCODING 40
SWIDTH 347 0
DWIDTH 27 0
BBX 33 74 5 -11
BITMAP
0000006000
000000F800
000001FC00
000003FF00
000007FF80
00000FFF80
00001FFF00
00003FFE00
00007FFC00
0000FFF800
0001FFF000
0001FFC000
0003FF8000
0007FE0000
000FFC0000
001FFC0000
003FF80000
007FF00000
007FF00000
00FFE00000
00FFC00000
01FF800000
01FF000000
03FF000000
07FE000000
07FC000000
0FFC000000
0FFC000000
0FF8000000
1FF8000000
1FF8000000
1FF8000000
1FF8000000
1FF8000000
1FF0000000
3FF0000000
3FF0000000
3FF0000000
3FF0000000
3FF0000000
7FE0000000
7FE0000000
7FE0000000
7FE0000000
FFE0000000
FFE0000000
FFC0000000
FFC0000000
FFC0000000
FFC0000000
FFC0000000
7FC0000000
7FC0000000
7FC0000000
7FE0000000
7FE0000000
3FF0000000
3FF0000000
3FF0000000
1FF8000000
1FF8000000
1FF8000000
0FFC000000
0FFE000000
07FF000000
07FF800000
03FFC00000
03FFE00000
01FFE00000
01FFE00000
00FFC00000
007E000000
007C000000
0038000000
ENDCHAR
STARTCHAR 0029
ENCODING 41
SWIDTH 347 0
DWIDTH 27 0
BBX 33 74 0 -11
BITMAP
0000060000
00001F0000
00003F0000
0000FF8000
0003FFC000
0003FFC000
0001FFE000
0000FFE000
0000FFF000
00007FF800
00003FF800
00000FF800
00000FFC00
000007FC00
000007FC00
000007FE00
000007FE00
000007FE00
000003FF00
000001FF00
000001FF00
000000FF80
000000FF80
000000FF80
000000FF80
000000FF80
000001FF80
000001FF80
000001FF80
000001FF80
000001FF80
000003FF00
000003FF00
000003FF00
000003FE00
000003FE00
000003FE00
000007FE00
000007FE00
000007FE00
000007FE00
000007FC00
000007FC00
000007FC00
00000FFC00
00000FF800
00000FF800
00000FF800
00001FF000
00001FF000
00003FE000
00007FE000
00007FC000
0000FF8000
0001FF8000
0003FF8000
0007FF0000
000FFE0000
000FFC0000
001FF80000
001FF80000
003FF00000
00FFE00000
03FFC00000
07FF800000
1FFF000000
1FFE000000
3FFC000000
7FF8000000
FFF0000000
7FE0000000
1FC0000000
0F80000000
0300000000
ENDCHAR
STARTCHAR 002A
ENCODING 42
SWIDTH 321 0
DWIDTH 25 0
BBX 25 23 10 34
BITMAP
000F0000
000F0000
000F0000
060F0600
0F1F1F00
3F9F3F80
1FDEFF00
0FFFFC00
07FFF800
03FFE000
01FF8000
00FF0000
01FF8000
03FFC000
0FFFE000
3FFFF800
7F7BFC00
FE79FC00
78F87800
20F02000
00F00000
00F00000
00F00000
ENDCHAR
STARTCHAR 002B
ENCODING 43
SWIDTH 475 0
DWIDTH 37 0
BBX 37 35 6 10
BITMAP
00007FC000
00007FE000
0000FFE000
0000FFE000
0000FFE000
0000FFE000
0000FFE000
0000FFC000
0001FFC000
0001FFC000
0001FFC000
0003FF8000
1FFFFFFFF8
3FFFFFFFF8
3FFFFFFFF0
3FFFFFFFF0
3FFFFFFFF0
7FFFFFFFF0
7FFFFFFFF0
7FFFFFFFE0
7FFFFFFFE0
FFFFFFFFE0
FFFFFFCFE0
080FFE0000
000FFE0000
001FFE0000
001FFC0000
001FFC0000
001FFC0000
003FF80000
003FF80000
003FF80000
003FF80000
003FF80000
003FF00000
ENDCHAR
STARTCHAR 002C
ENCODING 44
SWIDTH 205 0
DWIDTH 16 0
BBX 21 27 -4 -13
BITMAP
0003C0
001FE0
007FF0
00FFF0
00FFF8
00FFF8
01FFF8
01FFF8
01FFF8
01FFF0
01FFF0
00FFE0
00FFC0
007F80
007F00
00FE00
03FE00
0FFC00
3FF800
FFF800
FFF000
7FE000
3FE000
1FC000
0F8000
070000
020000
ENDCHAR
STARTCHAR 002D
ENCODING 45
SWIDTH 385 0
DWIDTH 30 0
BBX 30 13 6 21
BITMAP
00000200
3FFFFFFC
3FFFFFF8
3FFFFFF8
3FFFFFF8
7FFFFFF8
7FFFFFF8
7FFFFFF8
7FFFFFF0
FFFFFFF0
FFFFFFF0
FFFFFFF0
00000180
ENDCHAR
STARTCHAR 002E
ENCODING 46
SWIDTH 205 0
DWIDTH 16 0
BBX 15 15 2 -1
BITMAP
00C0
07F8
0FFE
1FFE
3FFE
3FFE
7FFE
7FFE
FFFC
FFFC
FFF8
7FF8
3FF0
1FC0
0100
ENDCHAR
STARTCHAR 002F
ENCODING 47
SWIDTH 450 0
DWIDTH 35 0
BBX 45 62 1 -4
BITMAP
000000000C00
000000001E18
000000003FF8
000000003FF8
000000007FF0
00000000FFE0
00000000FFE0
00000001FFC0
00000003FF80
00000007FF80
00000007FF00
0000000FFF00
0000001FFE00
0000001FFE00
0000003FFC00
0000003FF800
0000007FF800
000000FFF000
000000FFF000
000001FFE000
000003FFE000
000003FFC000
000007FFC000
00000FFF8000
00000FFF0000
00001FFF0000
00001FFE0000
00003FFE0000
00007FFC0000
00007FFC0000
0000FFF80000
0001FFF80000
0001FFF00000
0003FFF00000
0003FFE00000
0007FFE00000
000FFFC00000
000FFFC00000
001FFF800000
003FFF800000
003FFF000000
007FFF000000
007FFE000000
00FFFC000000
01FFFC000000
01FFFC000000
03FFF8000000
03FFF0000000
07FFF0000000
07FFE0000000
0FFFE0000000
0FFFC0000000
1FFFC0000000
1FFF80000000
3FFF80000000
3FFF00000000
7FFF00000000
7FFE00000000
FFFE00000000
FFFC00000000
FFF800000000
FFF800000000
ENDCHAR
STARTCHAR 0030
ENCODING 48
SWIDTH 398 0
DWIDTH 31 0
BBX 31 55 6 0
BITMAP
00003000
0000FC00
0007FE00
000FFF00
001FFF00
003FFF80
007FFFC0
007FFFC0
00FFFFC0
01FFFFF0
01FFFFF8
01FFFFF8
01FFFFFC
03FFFFFC
03FFFFFC
07FFFFFC
07FFFFFC
0FFFFFFC
0FFF8FFC
0FFE0FFC
1FFE0FFE
1FFC0FFE
1FFC0FFE
3FFC0FFE
3FF80FFC
3FF80FFC
7FF80FFC
7FF00FFC
7FF00FF8
7FF01FF8
FFF01FF8
FFF03FF8
FFF83FF8
FFF87FF0
FFFCFFF0
FFFFFFF0
FFFFFFE0
FFFFFFE0
7FFFFFE0
7FFFFFC0
7FFFFFC0
7FFFFF80
7FFFFF80
3FFFFF80
3FFFFF00
3FFFFF00
3FFFFE00
1FFFFE00
1FFFFC00
0FFFF800
0FFFF800
07FFF000
03FFE000
01FFC000
007F0000
ENDCHAR
STARTCHAR 0031
ENCODING 49
SWIDTH 424 0
DWIDTH 33 0
BBX 28 51 10 2
BITMAP
00003F00
0000FFC0
0001FFE0
0003FFF0
000FFFF0
003FFFF0
00FFFFF0
03FFFFF0
0FFFFFE0
1FFFFFE0
7FFFFFE0
FFFFFFE0
FFFFFFE0
7FF7FFC0
3FF7FFC0
1FE7FFC0
0FCFFFC0
0F8FFFC0
079FFFC0
031FFFC0
001FFF80
003FFF80
003FFF80
003FFF80
007FFF80
007FFF00
007FFF00
00FFFF00
00FFFF00
01FFFF00
01FFFF00
01FFFF00
03FFFE00
03FFFE00
03FFFE00
07FFFE00
07FFFE00
07FFFE00
0FFFFE00
0FFFFE00
0FFFFE00
1FFFFC00
1FFFFC00
1FFFFC00
3FFFFC00
3FFFFC00
3FFFFC00
3FFFFC00
3FFFFE00
03FFFE00
0007F800
ENDCHAR
STARTCHAR 0032
ENCODING 50
SWIDTH 514 0
DWIDTH 40 0
BBX 39 53 4 1
BITMAP
00000F8000
00003FF000
0000FFFC00
0003FFFF00
0007FFFF80
000FFFFFE0
001FFFFFF0
007FFFFFF0
00FFFFFFF0
01FFFFFFF0
03FFFFFFF0
03FFFFFFE0
01FFFFFFE0
00FFE7FFE0
00FFC0FFC0
007F00FFC0
007C00FFC0
003800FFC0
001001FFC0
000001FF80
000003FF80
000003FF00
000007FE00
000007FE00
00000FFC00
00001FFC00
00001FF800
00003FF000
00007FF000
00007FE000
0000FFC000
0001FFC01E
0001FFFFFE
0003FFFFFE
0007FFFFFE
000FFFFFFC
001FFFFFFC
001FFFFFF8
003FFFFFF8
007FFFFFF0
00FFFFFFF0
00FFFFFFE0
01FFFFFFE0
03FFFFFFE0
07FFFFFFC0
1FFFFFFFC0
7FFFFFFF80
7FFFFFFF80
FFFFFFFF00
7FFFFFF800
1FFFFF8000
03FFFC0000
003FC00000
ENDCHAR
STARTCHAR 0033
ENCODING 51
SWIDTH 462 0
DWIDTH 36 0
BBX 36 53 3 0
BITMAP
0000060400
0001FFFE00
000FFFFE00
001FFFFF00
001FFFFF00
003FFFFE00
003FFFFE00
001FFFFC00
001FFFFC00
000F87F800
00000FF800
00001FF000
00003FF000
00007FE000
0000FFE000
0001FFC000
0003FF8000
0003FF8000
0007FFF800
000FFFFF00
001FFFFF80
003FFFFFC0
007FFFFFE0
007FFFFFE0
00FFFFFFF0
00FFFFFFF0
007FFFFFF0
000F87FFF0
000000FFF0
0000007FF0
0000003FF0
0000001FF0
0000001FF0
0000001FF0
0000001FF0
0000003FF0
0000003FF0
0000003FF0
0000007FE0
000000FFE0
000003FFE0
7C000FFFC0
FF807FFF80
FFFFFFFF80
FFFFFFFF00
7FFFFFFE00
7FFFFFFC00
3FFFFFF800
0FFFFFF000
03FFFFE000
01FFFF8000
007FFC0000
000FF00000
ENDCHAR
STARTCHAR 0034
ENCODING 52
SWIDTH 437 0
DWIDTH 34 0
BBX 33 54 6 -1
BITMAP
00001F8000
0001FF8000
0003FF8000
0007FF0000
000FFF0000
000FFE0000
000FFE0000
000FFC0000
001FFC0000
001FF80000
003FF80000
003FF00000
007FF00000
007FE00000
00FFE00000
00FFC00000
01FFC00000
01FF800000
03FF800000
03FF006F80
07FF7FFF80
07FFFFFF80
0FFFFFFF80
0FFFFFFF80
1FFFFFFF80
1FFFFFFF80
3FFFFFFF80
3FFFFFFF80
7FFFFFFF80
7FFFFFFE00
FFFFFFF000
FFFFFF8000
FC01FF0000
8003FE0000
0003FE0000
0007FE0000
0007FE0000
000FFE0000
000FFE0000
001FFC0000
003FFC0000
003FFC0000
007FFC0000
007FFC0000
00FFFC0000
00FFFC0000
01FFFC0000
01FFFC0000
03FFFC0000
03FFFC0000
07FFFC0000
07FFFC0000
0FFFF00000
0E00000000
ENDCHAR
STARTCHAR 0035
ENCODING 53
SWIDTH 475 0
DWIDTH 37 0
BBX 40 54 4 0
BITMAP
0000000001
0000001FFF
0000FFFFFF
0001FFFFFF
0001FFFFFF
0001FFFFFF
0001FFFFFE
0001FFFFFC
0003FFFFF0
0003FFE800
0007FF8000
0007FF0000
0007FF0000
000FFF0000
000FFF0000
000FFFC000
001FFFF000
001FFFFC00
003FFFFE00
003FFFFF00
007FFFFF00
007FFFFF80
00FFFFFFC0
00FFFFFFC0
01F7FFFFE0
01C01FFFE0
00000FFFE0
000007FFF0
000007FFF0
000003FFF0
000003FFF8
000001FFF8
000001FFF8
000001FFF8
000001FFF0
000001FFF0
000001FFF0
000001FFF0
000001FFF0
E00003FFF0
E00007FFE0
F0000FFFC0
F8001FFFC0
FE003FFF80
FFFFFFFF80
FFFFFFFF00
FFFFFFFE00
FFFFFFFC00
FFFFFFF800
7FFFFFF000
1FFFFFE000
07FFFFC000
01FFFF0000
003FFC0000
ENDCHAR
STARTCHAR 0036
ENCODING 54
SWIDTH 488 0
DWIDTH 38 0
BBX 39 56 5 -2
BITMAP
00000001C0
0000001FF0
000000FFF8
000003FFFC
000007FFFC
00001FFFFE
00003FFFFE
0000FFFFFE
0001FFFFFC
0003FFFFF8
0007FFF8E0
000FFF0000
001FFC0000
003FF80000
007FF00000
00FFE00000
01FFE00000
03FFC00000
03FFC00000
07FFC00000
07FFE00000
0FFFFFE000
0FFFFFF800
0FFFFFFE00
1FFFFFFF00
1FFFFFFF00
3FFFFFFF80
3FFFFFFFC0
3FFFFFFFC0
3FFFFFFFF0
7FFF9FFFF0
7FFF03FFF0
7FFE01FFF0
7FFC00FFF0
7FFC00FFF0
FFF800FFF0
FFF800FFF0
FFF000FFF0
FFF000FFF0
FFF000FFF0
7FE001FFE0
7FE001FFE0
7FE003FFE0
FFF007FFC0
FFF007FFC0
FFF81FFF80
7FFC3FFF00
7FFFFFFF00
7FFFFFFE00
3FFFFFFC00
1FFFFFF800
0FFFFFE000
07FFFFC000
03FFFF0000
00FFF80000
001FC00000
ENDCHAR
STARTCHAR 0037
ENCODING 55
SWIDTH 411 0
DWIDTH 32 0
BBX 41 51 2 2
BITMAP
000000003F00
0003FFFFFF80
001FFFFFFF00
003FFFFFFF00
003FFFFFFF00
003FFFFFFE00
003FFFFFFE00
007FFFFFFE00
007FFFFFFC00
007FFFFFFC00
007FFFFFFC00
00FFFFFFF800
00FFFFFFF800
00FFFFFFF800
00F0007FF800
00C0007FF800
00C000FFF000
000001FFF000
000003FFE000
000007FFE000
00000FFFC000
00000FFFC000
00001FFFC000
00003FFF8000
00007FFF8000
00007FFF0000
0000FFFF0000
0001FFFE0000
0003FFFE0000
0003FFFC0000
0007FFFC0000
000FFFF80000
001FFFF80000
001FFFF00000
003FFFF00000
007FFFE00000
00FFFFE00000
00FFFFC00000
01FFFFC00000
03FFFF800000
07FFFF800000
07FFFF000000
0FFFFF000000
1FFFFF000000
1FFFFE000000
3FFFFE000000
3FFFFE000000
7FFFFC000000
7FFFC0000000
FFF000000000
FC0000000000
ENDCHAR
STARTCHAR 0038
ENCODING 56
SWIDTH 501 0
DWIDTH 39 0
BBX 36 55 5 0
BITMAP
000000F800
00000FFF00
00007FFF80
0000FFFFC0
0003FFFFC0
0007FFFFE0
000FFFFFE0
000FFFFFE0
001FFFFFE0
001FFFFFE0
001FF83FC0
001FF83FC0
003FF83FC0
003FF87FC0
003FF8FF80
001FFDFF00
001FFFFE00
000FFFFC00
001FFFFC00
001FFFFC00
003FFFFE00
007FFFFE00
00FFFFFF00
01FFFFFF80
01FFFFFF80
03FFFFFFC0
07FFFFFFC0
07FFFFFFE0
0FFFDFFFE0
1FFF07FFE0
1FFE03FFF0
3FFE01FFF0
3FFC00FFF0
7FFC00FFF0
7FF8007FF0
FFF8007FF0
FFF8007FF0
FFF8007FF0
FFFC00FFF0
FFFC00FFF0
FFFE01FFF0
FFFF07FFF0
FFFFFFFFE0
FFFFFFFFE0
FFFFFFFFC0
FFFFFFFFC0
7FFFFFFF80
7FFFFFFF00
3FFFFFFE00
1FFFFFFC00
0FFFFFF800
03FFFFF000
00FFFFC000
003FFE0000
0007F80000
ENDCHAR
STARTCHAR 0039
ENCODING 57
SWIDTH 462 0
DWIDTH 36 0
BBX 37 51 6 1
BITMAP
0007FFF800
001FFFFF00
007FFFFFC0
00FFFFFFE0
00FFFFFFF0
01FFFFFFF0
03FFFFFFF0
03FFFFFFF8
03FFF3FFF8
07FF01FFF8
07FF00FFF8
07FF007FF8
0FFE007FF8
0FFE007FF8
0FFE007FF8
1FFE007FF0
1FFC00FFF0
1FFC00FFF0
3FFE01FFF0
3FFE03FFF0
3FFF7FFFF0
3FFFFFFFE0
1FFFFFFFE0
1FFFFFFFE0
1FFFFFFFE0
0FFFFFFFC0
07FFFFFFC0
01FFFFFFC0
007FFFFF80
00000FFF80
000003FF80
000003FF80
000003FF00
000003FF00
000003FF00
000007FF00
60000FFF00
F8001FFE00
FE003FFE00
FF00FFFE00
FFFFFFFC00
FFFFFFFC00
FFFFFFF800
FFFFFFF000
FFFFFFF000
FFFFFFE000
FFFFFFC000
FFFFFFC000
3FFFFF8000
1FFFFE0000
03FFFC0000
ENDCHAR
STARTCHAR 003A
ENCODING 58
SWIDTH 205 0
DWIDTH 16 0
BBX 19 38 3 -1
BITMAP
003F00
00FF80
03FFC0
03FFC0
07FFE0
07FFE0
07FFE0
07FFE0
07FFE0
07FFC0
07FF80
07FF00
03FE00
01F000
000000
000000
000000
000000
000000
000000
000000
000000
000000
000000
01E000
0FF000
1FF800
7FFC00
FFFC00
FFFC00
FFFC00
FFFC00
FFF800
FFF800
FFF800
FFF000
7FE000
3F8000
ENDCHAR
STARTCHAR 003B
ENCODING 59
SWIDTH 205 0
DWIDTH 16 0
BBX 26 51 -4 -13
BITMAP
00007E00
0000FF80
0001FFC0
0003FFC0
0007FFC0
000FFFC0
000FFFC0
000FFFC0
001FFF80
001FFF80
000FFF00
0007FF00
0003FC00
0000F800
00000000
00000000
00000000
00000000
00000000
00000000
00000000
00000000
00000000
00000000
0003C000
001FE000
007FF000
00FFF000
00FFF800
00FFF800
01FFF800
01FFF800
01FFF800
01FFF000
01FFF000
00FFE000
00FFC000
007F8000
007F0000
00FE0000
03FE0000
0FFC0000
3FF80000
FFF80000
FFF00000
7FE00000
3FE00000
1FC00000
0F800000
07000000
02000000
ENDCHAR
STARTCHAR 003C
ENCODING 60
SWIDTH 475 0
DWIDTH 37 0
BBX 38 43 7 6
BITMAP
000000000C
000000003C
00000000FC
00000003FC
0000000FFC
0000003FFC
000000FFFC
000007FFFC
00001FFFFC
00007FFFF8
0001FFFFF8
0007FFFFF8
003FFFFFF8
00FFFFFFF0
07FFFFFFF0
3FFFFFFFF0
7FFFFFFFE0
7FFFFFF800
7FFFFF0000
FFFFF00000
FFFF000000
FFFE000000
FFFF800000
FFFFF00000
FFFFFE0000
7FFFFFE000
3FFFFFF800
1FFFFFFE00
07FFFFFF00
03FFFFFF00
01FFFFFF00
00FFFFFF00
007FFFFE00
001FFFFE00
000FFFFE00
0007FFFE00
0001FFFE00
0000FFFE00
00007FFE00
00001FFE00
00000FFE00
000003FC00
0000007C00
ENDCHAR
STARTCHAR 003D
ENCODING 61
SWIDTH 475 0
DWIDTH 37 0
BBX 40 28 5 13
BITMAP
003F7FFFFF
07FFFFFFFF
07FFFFFFFE
07FFFFFFFE
0FFFFFFFFE
0FFFFFFFFE
0FFFFFFFFE
0FFFFFFFFE
0FFFFFFFFC
1FFFFFFFFC
0FFFF80000
0000000000
0000000000
0000000000
0000000000
0000000000
0000007FC0
1CFFFFFFF0
7FFFFFFFF0
7FFFFFFFF0
7FFFFFFFE0
FFFFFFFFE0
FFFFFFFFE0
FFFFFFFFE0
FFFFFFFFC0
FFFFFFFFC0
FFFFFFFFC0
0FFE000000
ENDCHAR
STARTCHAR 003E
ENCODING 62
SWIDTH 475 0
DWIDTH 37 0
BBX 39 44 3 5
BITMAP
0060000000
007E000000
00FF800000
00FFE00000
00FFF00000
00FFFC0000
00FFFE0000
00FFFF8000
00FFFFC000
00FFFFE000
01FFFFF000
01FFFFFC00
01FFFFFE00
01FFFFFF00
01FFFFFF80
03FFFFFFE0
00FFFFFFF0
003FFFFFF8
0007FFFFFC
0000FFFFFE
00000FFFFE
000001FFFE
000000FFFE
000003FFFC
00003FFFFC
0007FFFFFC
00FFFFFFFC
0FFFFFFFF8
1FFFFFFFE0
1FFFFFFF80
3FFFFFFC00
3FFFFFF000
3FFFFF8000
3FFFFE0000
7FFFF80000
7FFFE00000
7FFF800000
7FFC000000
7FF0000000
7FC0000000
FF00000000
7C00000000
7000000000
4000000000
ENDCHAR
STARTCHAR 003F
ENCODING 63
SWIDTH 462 0
DWIDTH 36 0
BBX 34 57 10 -1
BITMAP
0007C00000
007FFFF000
01FFFFFF00
03FFFFFF80
07FFFFFFC0
0FFFFFFFC0
0FFFFFFFC0
1FFFFFFFC0
3FFFFFFFC0
3FFFFFFFC0
7FFFFFFFC0
7FFFFFFFC0
7FFC1FFFC0
7FE00FFFC0
3F8007FFC0
1E0007FFC0
0C0007FF80
00000FFF80
00000FFF80
00000FFF00
00001FFF00
00003FFF00
00007FFE00
0001FFFC00
000FFFFC00
00FFFFF800
01FFFFF000
03FFFFE000
03FFFF8000
07FFFE0000
07FFF80000
07FFF00000
07FFC00000
0FFF800000
0FFF000000
0FFF000000
0FFF000000
0FFE000000
0FFE000000
0000000000
0000000000
0000000000
0000000000
0000000000
03F0000000
0FF8000000
3FFC000000
7FFC000000
7FFC000000
FFFC000000
FFFC000000
FFFC000000
FFF8000000
7FF0000000
7FE0000000
1F80000000
0E00000000
ENDCHAR
STARTCHAR 0040
ENCODING 64
SWIDTH 655 0
DWIDTH 51 0
BBX 53 67 4 -11
BITMAP
00000003FF8000
0000007FFFF000
000003FFFFFC00
00000FFFFFFF00
00003FFFFFFF80
0000FFFFFFFFC0
0001FFFFFFFFC0
0003FFFFFFFFE0
0007FFFFFFFFE0
000FFFFFFFFFF0
001FFFFFFFFFF0
001FFFFFFFFFF0
003FFFFFFFFFF0
007FFFFFFFFFF0
007FFFFFFFFFF0
00FFFFE003FFF8
00FFFF0001FFF8
01FFFE0001FFF8
01FFF80001FFF8
03FFF0000FFFF8
03FFE000FFFFF8
07FFC007FFFFF8
07FFC00FFFFFF8
0FFF803FFFFFF8
0FFF807FFFFFF8
0FFF00FFFFFFF8
0FFF01FFFFFFF8
1FFF03FF80FFF8
1FFF03FF00FFF0
1FFE07FE00FFF0
1FFE07FE00FFF0
3FFE0FFC00FFF0
3FFE0FFC00FFE0
3FFE0FF800FFE0
3FFC0FF800FFE0
3FFC1FF801FFC0
3FFC1FF803FFC0
7FFC1FF80FFFC0
7FFC1FFC1FFF80
7FFC1FFFFFFF80
7FFC1FFFFFFF00
7FFC0FFFFFFE00
7FFC0FFFFFFC00
7FFC07FFFFF000
7FFC07FFFFE000
FFFC03FFFF8000
FFFC00FFFE0000
FFFC003FE00000
FFFC0000000000
FFFE0000000000
FFFE0000000000
FFFE00000E0000
FFFF00007F0000
FFFF800FFF8000
7FFFFFFFFF8000
7FFFFFFFFFC000
7FFFFFFFFFC000
7FFFFFFFFFE000
7FFFFFFFFFC000
3FFFFFFFFF8000
3FFFFFFFFF0000
1FFFFFFFFC0000
1FFFFFFFF00000
0FFFFFFFE00000
03FFFFFF800000
00FFFFFE000000
000FFFF8000000
ENDCHAR
STARTCHAR 0041
ENCODING 65
SWIDTH 630 0
DWIDTH 49 0
BBX 47 55 1 -2
BITMAP
000000000300
000000007F00
00000000FF00
00000001FF80
00000001FF80
00000003FF80
00000003FF80
00000007FF80
00000007FF80
0000000FFF80
0000001FFF80
0000001FFF80
0000003FFF80
0000003FFF80
0000007FFF80
000000FFFF80
000000FFFF80
000001FFFF80
000001FFFF80
000003FFFFC0
000007FFFFC0
000007FFFFC0
00000FFFFFC0
00000FFFFFC0
00001FFFFFC0
00003FFFFFC0
00003FFFFFC0
00007FFFFFC0
0000FF9FFFC0
0000FF0FFFC0
0001FE0FFFC0
0003FE0FFFE0
0003FC0FFFE0
0007F807FFE0
000FF007FFE0
000FE00FFFE0
001FF1FFFFE0
003FFFFFFFE0
003FFFFFFFF0
007FFFFFFFF0
00FFFFFFFFF0
00FFFFFFFFF0
01FFFF1FFFF0
03FFF01FFFF8
03FFE01FFFF8
07FFC01FFFF8
0FFF801FFFF8
0FFF801FFFFC
1FFF001FFFFC
1FFF001FFFFC
3FFF001FFFFC
7FFE000FFFFE
7FFE000FFFFE
FFF8000F000C
F00000000000
ENDCHAR
STARTCHAR 0042
ENCODING 66
SWIDTH 514 0
DWIDTH 40 0
BBX 35 53 8 1
BITMAP
0007800000
007FFF0000
01FFFFF000
07FFFFFC00
0FFFFFFE00
0FFFFFFF00
1FFFFFFF00
1FFFFFFF00
1FFFFFFF00
1FFFFFFF80
1FFFFFFF80
1FFFFFFF80
1FFFBFFF80
1FFF07FF80
1FFF03FF80
1FFF01FF80
1FFF01FF80
1FFE01FF00
1FFE01FF00
1FFE03FE00
1FFF07FC00
1FFF0FFC00
1FFF9FFC00
3FFFFFF000
3FFFFFE000
3FFFFFC000
3FFFFFE000
3FFFFFFC00
3FFFFFFF00
3FFFFFFF00
3FFFFFFF80
3FFFFFFF80
7FFF9FFFC0
7FFF03FFC0
7FFE01FFE0
7FFF03FFE0
7FFE03FFE0
7FFE03FFE0
7FFE07FFE0
7FFE0FFFC0
7FFE1FFFC0
7FFE7FFF80
FFFEFFFF80
FFFFFFFF00
FFFFFFFF00
FFFFFFFE00
FFFFFFF800
FFFFFFF000
FFFFFFE000
FFFFFFC000
FFFFFF0000
FFFFF00000
7FFC000000
ENDCHAR
STARTCHAR 0043
ENCODING 67
SWIDTH 488 0
DWIDTH 38 0
BBX 41 52 6 1
BITMAP
0000007E0000
000003FFE000
00001FFFF800
0000FFFFFC00
0003FFFFFE00
000FFFFFFF00
001FFFFFFF80
003FFFFFFF80
007FFFFFFF00
00FFFFFFFF00
01FFFFFFFF00
03FFFFFFFE00
03FFFFFFFE00
07FFFFFFFE00
07FFFFFFFC00
0FFFFFC04000
0FFFFE000000
1FFFF8000000
1FFFF0000000
3FFFE0000000
3FFFC0000000
3FFFC0000000
3FFF80000000
3FFF80000000
7FFF80000000
7FFF80000000
7FFF80000000
7FFF80000000
FFFFC0000000
FFFFE003E000
FFFFF1FFE000
FFFFFFFFE000
FFFFFFFFE000
FFFFFFFFE000
FFFFFFFFC000
FFFFFFFFC000
FFFFFFFFC000
FFFFFFFFC000
FFFFFFFF8000
7FFFFFFF8000
7FFFFFFF8000
7FFFFFFF8000
7FFFFFFF8000
7FFFFFFF0000
3FFFFFFE0000
3FFFFFFC0000
3FFFFFF00000
1FFFFFF00000
1FFFFFE00000
01FFFF800000
00FFFE000000
0007F0000000
ENDCHAR
STARTCHAR 0044
ENCODING 68
SWIDTH 462 0
DWIDTH 36 0
BBX 34 53 8 0
BITMAP
00FFE00000
03FFF80000
0FFFFF0000
0FFFFFC000
0FFFFFF000
1FFFFFF000
1FFFFFF800
1FFFFFFC00
1FFFFFFC00
3FFFFFFE00
3FFFFFFE00
3FFFFFFF00
3FFFFFFF00
3FFFFFFF80
3FFF9FFF80
7FFF07FF80
7FFF01FF80
7FFE00FFC0
7FFE00FFC0
7FFC00FFC0
7FFC01FFC0
7FFC01FFC0
7FFC01FF80
7FFC03FF80
7FFC03FF80
FFFC07FF00
FFFC0FFF00
FFFC0FFE00
FFFC1FFC00
FFFC3FFC00
FFFCFFF800
FFFDFFF000
FFFFFFF000
FFFFFFE000
FFFFFFC000
FFFFFFC000
FFFFFF8000
FFFFFF0000
FFFFFE0000
FFFFFC0000
FFFFFC0000
FFFFF80000
FFFFF00000
FFFFE00000
FFFFC00000
FFFF000000
FFFE000000
FFF8000000
FFE0000000
FF80000000
FE00000000
7000000000
4000000000
ENDCHAR
STARTCHAR 0045
ENCODING 69
SWIDTH 488 0
DWIDTH 38 0
BBX 31 54 10 0
BITMAP
003FFFC0
01FFFFFC
0FFFFFFE
3FFFFFFC
3FFFFFFC
3FFFFFF8
3FFFFFF8
3FFFFFF0
3FFFFFF0
3FFFFFE0
3FFFFFE0
3FFFFFE0
3FFFFFC0
3FFFFFE0
3FFFFFC0
3FFFFF80
3FFF8000
3FFE0000
3FFE0000
3FFE0000
3FFE0000
3FFE0100
3FFE3F00
3FFFFF00
3FFFFE00
3FFFFE00
3FFFFE00
3FFFFE00
3FFFFE00
3FFFFE00
3FFF0000
3FFC0000
3FFC0000
3FFE0030
3FFFFFF0
3FFFFFF0
7FFFFFF8
3FFFFFF8
7FFFFFF8
7FFFFFF8
7FFFFFF8
7FFFFFF8
7FFFFFF8
7FFFFFF8
FFFFFFF8
FFFFFFF8
FFFFFFF8
FFFFFFF8
FFFFFFE0
FFFFFE00
FFFFE000
FFFE0000
FFC00000
68000000
ENDCHAR
STARTCHAR 0046
ENCODING 70
SWIDTH 501 0
DWIDTH 39 0
BBX 45 55 3 0
BITMAP
000000007F00
000000FFFFF0
0001FFFFFFF8
000FFFFFFFF8
003FFFFFFFF8
007FFFFFFFF8
007FFFFFFFF8
00FFFFFFFFF0
00FFFFFFFFF0
00FFFFFFFFF0
00FFFFFFFFF0
01FFFFFFFFF0
01FFFFFE0040
01FFFF800000
01FFFC000000
01FFFC000000
03FFF8000000
03FFF8000000
03FFF0000000
03FFF0000000
03FFF0200000
03FFF3F00000
07FFFFF00000
07FFFFF00000
07FFFFF00000
07FFFFE00000
07FFFFE00000
0FFFFFE00000
0FFFFFE00000
0FFFFFE00000
0FFFFFC00000
1FFFF0C00000
1FFFC0800000
1FFF80000000
1FFF00000000
1FFF00000000
3FFF00000000
3FFF00000000
3FFE00000000
3FFE00000000
7FFE00000000
7FFE00000000
7FFE00000000
7FFE00000000
7FFC00000000
7FFC00000000
7FFC00000000
7FFC00000000
7FFC00000000
7FFE00000000
FFFE00000000
FFFE00000000
FFFE00000000
FFF000000000
780000000000
ENDCHAR
STARTCHAR 0047
ENCODING 71
SWIDTH 501 0
DWIDTH 39 0
BBX 42 52 4 1
BITMAP
000001FFE000
000003FFFC00
00000FFFFE00
00001FFFFF00
00003FFFFF80
00007FFFFFC0
0000FFFFFFC0
0001FFFFFFC0
0003FFFFFFC0
0007FFFFFFC0
0007FFFFFF80
000FFFF3FE00
001FFF80F800
001FFE000000
003FF8000000
003FF0000000
007FE0000000
00FFE0000000
00FFC0000000
00FFC0000000
01FF80000000
01FF80000000
03FF0003FF00
03FF007FFF00
07FE01FFFF00
07FE03FFFE00
0FFE03FFFE00
0FFE01FFFE00
0FFC01FFFE00
1FFC03FFFE00
1FFC03FFFC00
3FFC03FFFC00
3FFC03FFFC00
3FFC03FFFC00
7FFC03FFF800
7FFF07FFF800
7FFFFFFFF800
7FFFFFFFF800
FFFFFFFFF000
FFFFFFFFF000
FFFFFFFFF000
FFFFFFFFF000
FFFFFFFFC000
FFFFFFFF8000
7FFFFFFE0000
7FFFFFFC0000
3FFFFFF00000
3FFFFFC00000
1FFFFF000000
0FFFF8000000
07FFC0000000
03FE00000000
ENDCHAR
STARTCHAR 0048
ENCODING 72
SWIDTH 552 0
DWIDTH 43 0
BBX 51 52 2 1
BITMAP
0000001C000000
00000FFF000000
0000FFFF00FFE0
0001FFFE03FFE0
0003FFFC03FFE0
0003FFF807FFE0
0003FFFC07FFC0
0003FFFC0FFFC0
0003FFFC0FFFC0
0003FFF80FFFC0
0003FFF80FFF80
0007FFF81FFF80
0007FFF01FFF80
0007FFF03FFF00
000FFFF03FFF00
000FFFF03FFF00
000FFFE03FFE00
001FFFE03FFE00
001FFFE07FFE00
001FFFE0FFFE00
003FFFFFFFFC00
003FFFFFFFFC00
003FFFFFFFFC00
007FFFFFFFF800
007FFFFFFFF800
007FFFFFFFF800
00FFFFFFFFF000
00FFFFFFFFF000
00FFFFFFFFF000
01FFFFFFFFF800
01FFFFFFFFF800
01FFFFFFFFF000
01FFFFFFFFF000
03FFFFFFFFF000
03FFFFFFFFF000
03FFFC0FFFE000
07FFFC0FFFE000
07FFFC1FFFE000
07FFF81FFFC000
07FFF81FFFC000
0FFFF81FFFC000
0FFFF03FFF8000
0FFFF83FFF8000
1FFFF03FFF8000
1FFFF07FFF0000
1FFFF07FFF0000
3FFFF07FFF0000
3FFFE07FFE0000
7FFFE07FFE0000
7FFFE0FFFC0000
FFFFC0FF000000
01FF80F0000000
ENDCHAR
STARTCHAR 0049
ENCODING 73
SWIDTH 334 0
DWIDTH 26 0
BBX 34 52 2 0
BITMAP
00007FFEC0
0000FFFFC0
0001FFFF80
0001FFFF00
0000FFFF00
0001FFFE00
0001FFFE00
0001FFFE00
0003FFFC00
0003FFFC00
0007FFFC00
0007FFF800
0007FFF800
000FFFF800
000FFFF000
000FFFF000
001FFFF000
001FFFF000
001FFFE000
003FFFE000
003FFFE000
003FFFC000
003FFFC000
007FFFC000
007FFFC000
007FFF8000
00FFFF8000
00FFFF8000
00FFFF8000
00FFFF0000
01FFFF0000
01FFFF0000
01FFFF0000
01FFFF0000
03FFFF0000
03FFFE0000
03FFFE0000
03FFFE0000
07FFFE0000
07FFFE0000
07FFFC0000
07FFFC0000
0FFFF80000
0FFFF80000
0FFFF00000
1FFFF00000
1FFFF00000
3FFFF00000
3FFFE00000
7FFF800000
FFE0000000
FC00000000
ENDCHAR
STARTCHAR 004A
ENCODING 74
SWIDTH 450 0
DWIDTH 35 0
BBX 40 53 4 -1
BITMAP
0000000006
000000FFFF
000001FFFF
000001FFFF
000003FFFF
000003FFFF
000003FFFE
000007FFFE
000007FFFE
00000FFFFE
00000FFFFE
00001FFFFE
00001FFFFC
00001FFFFC
00003FFFFC
00003FFFFC
00003FFFFC
00003FFFFC
00007FFFFC
00007FFFF8
00007FFFF8
00007FFFF8
00007FFFF8
0000FFFFF8
00007FFFF8
00007FFFF0
00007FFFF0
00007FFFF0
00007FFFF0
00007FFFE0
00007FFFE0
00007FFFE0
00007FFFE0
00007FFFC0
00007FFFC0
00F07FFFC0
3FF07FFF80
7FF87FFF80
7FF87FFF00
FFFC7FFF00
FFFCFFFE00
FFFC7FFC00
FFFEFFFC00
FFFFFFF800
FFFFFFF800
FFFFFFF000
7FFFFFE000
7FFFFFC000
3FFFFF0000
1FFFFE0000
0FFFF80000
03FFF00000
007FC00000
ENDCHAR
STARTCHAR 004B
ENCODING 75
SWIDTH 552 0
DWIDTH 43 0
BBX 50 54 2 0
BITMAP
00000000003000
0000020600F000
003FFFFE01F000
003FFFFE03F800
001FFFFE07FC00
001FFFFE0FFFC0
001FFFFC1FFFC0
003FFFFC3FFF80
003FFFF83FFF00
003FFFFC7FFE00
003FFFF8FFFC00
007FFFF9FFF800
007FFFF9FFF000
007FFFFBFFE000
007FFFFFFFC000
00FFFFF7FFC000
00FFFFFFFF0000
00FFFFFFFE0000
00FFFFFFFE0000
01FFFFFFFC0000
01FFFFFFF80000
01FFFFFFF00000
01FFFFFFF00000
01FFFFFFE00000
03FFFFFFC00000
03FFFFFF800000
07FFFFFF800000
07FFFFFF000000
07FFFFFC000000
07FFFFFE000000
0FFFFFFE000000
0FFFFFFF000000
0FFFFFFF800000
0FFFFFFFC00000
1FFFFFFFC00000
1FFFFFFFE00000
1FFFFFFFF00000
1FFFFFFFF00000
3FFFFFFFF80000
3FFFFEFFF80000
3FFFFEFFFC0000
3FFFFC7FFC0000
3FFFFC7FFE0000
3FFFF83FFE0000
7FFFF83FFF0000
7FFFF83FFF0000
7FFFF81FFF0000
7FFFF81FFF0000
7FFFF80FFF8000
7FFFF80FFF8000
7FFFF80FF38000
FFFFF007C00000
FFFFE00F800000
00040007000000
ENDCHAR
STARTCHAR 004C
ENCODING 76
SWIDTH 514 0
DWIDTH 40 0
BBX 40 54 1 -1
BITMAP
0000003FF8
000007FFFC
00001FFFFC
00003FFFFC
00007FFFF8
00007FFFF8
00007FFFF8
0000FFFFF0
0000FFFFF0
0000FFFFE0
0001FFFFE0
0001FFFFE0
0001FFFFC0
0003FFFFC0
0003FFFFC0
0003FFFF80
0003FFFF80
0007FFFF00
0007FFFF00
0007FFFF00
0007FFFE00
000FFFFE00
000FFFFE00
001FFFFC00
001FFFFC00
003FFFF800
003FFFF800
003FFFF800
007FFFF000
007FFFF000
00FFFFE000
00FFFFE000
00FFFFE000
01FFFFC000
01FFFFC000
01FFFFC000
03FFFFC000
03FFFFFFFF
03FFFFFFFF
07FFFFFFFE
07FFFFFFFE
07FFFFFFFE
07FFFFFFFE
0FFFFFFFFE
0FFFFFFFFC
0FFFFFFFFC
0FFFFFFFFC
1FFFFFFFFC
1FFFFFFFFC
1FFFFFFFFC
1FFFFFFF00
3FFFFFFF00
7FFE000000
FE00000000
ENDCHAR
STARTCHAR 004D
ENCODING 77
SWIDTH 642 0
DWIDTH 50 0
BBX 53 54 1 -1
BITMAP
00001C00000000
00003E00000070
00003E000001F8
00003F000003F8
00007F000007F8
00007F80000FF8
00007F80001FF8
00007FC0001FF0
0000FFC0003FF0
0000FFC0007FF0
0001FFE0007FF0
0001FFE000FFF0
0001FFF001FFF0
0003FFF003FFF0
0003FFF003FFF0
0003FFF807FFF0
0007FFF80FFFF0
0007FFFC1FFFF0
000FFFFC3FFFF0
000FFFFC3FFFF0
000FFFFE7FFFF0
001FFFFFFFFFF0
001FFFFFFFFFE0
001FFFFFFFFFE0
003FFFFFFFFFE0
003FFFFFFFFFE0
003FFFFFFFFFE0
007FFFFFFFFFE0
007FFFFFFFFFE0
007FFFFFFFFFC0
00FFFFDFDFFFC0
00FFFF9F9FFFC0
00FFFF0FBFFFC0
01FFFE0F3FFFC0
01FFFE073FFFC0
03FFFC007FFFC0
03FFF8007FFFC0
03FFF8007FFFC0
07FFF0007FFFC0
07FFF000FFFFC0
07FFE000FFFFC0
0FFFE001FFFFC0
0FFFC001FFFFC0
1FFFC001FFFF80
1FFF8003FFFF80
1FFF8001FFFF80
3FFF0003FFFF80
3FFF0003FFFF80
3FFE0003FFFF80
7FFE0003FFFF80
7FFC0003FFFF00
7FFC00000D8000
FEF80000000000
C0000000000000
ENDCHAR
STARTCHAR 004E
ENCODING 78
SWIDTH 565 0
DWIDTH 44 0
BBX 51 51 2 1
BITMAP
00001F00003F00
0000FFF801FFC0
0001FFFE07FFE0
0003FFFE0FFFE0
0003FFFC0FFFE0
0003FFFC0FFFE0
0007FFFC1FFFC0
0007FFF81FFFC0
0007FFF81FFFC0
000FFFF81FFF80
000FFFF83FFF80
000FFFF83FFF80
001FFFF83FFF00
001FFFF83FFF00
003FFFF87FFF00
003FFFF87FFE00
003FFFF87FFE00
007FFFF87FFE00
007FFFF8FFFC00
007FFFF8FFFC00
00FFFFF8FFFC00
00FFFFF8FFF800
00FFFFF9FFF800
01FFFFFDFFF800
01FFFFFDFFF000
01FFFFFDFFF000
03FFFFFFFFF000
03FFFFFFFFF000
03FFFFFFFFE000
03FFFFFFFFE000
07FFFFFFFFE000
07FFF3FFFFC000
07FFF3FFFFC000
07FFF3FFFFC000
0FFFF3FFFFC000
0FFFE3FFFF8000
0FFFE3FFFF8000
0FFFE3FFFF8000
1FFFE1FFFF8000
1FFFC1FFFF0000
1FFFC1FFFF0000
3FFFC1FFFF0000
3FFF81FFFE0000
3FFF81FFFE0000
7FFF81FFFE0000
7FFF81FFFE0000
7FFF01FFFE0000
7FFF01FFFC0000
FFFF03FFFC0000
FFFE03FFF80000
FFE0007FC00000
ENDCHAR
STARTCHAR 004F
ENCODING 79
SWIDTH 527 0
DWIDTH 41 0
BBX 40 55 6 -1
BITMAP
00003F0000
00007FC000
0000FFF000
0001FFF800
0003FFFE00
0007FFFF00
0007FFFFC0
000FFFFFE0
001FFFFFE0
003FFFFFF0
003FFFFFF0
007FFFFFF8
00FFFFFFF8
00FFFFFFFC
01FFFFFFFC
01FFFFFFFE
03FFFFFFFE
07FFFFFFFE
07FFFFFFFE
0FFFFFFFFF
0FFFE0FFFF
1FFFC07FFF
1FFF803FFF
3FFF803FFF
3FFF003FFF
7FFF003FFF
7FFF007FFF
7FFE007FFF
7FFE007FFF
7FFE007FFF
FFFE00FFFF
FFFF01FFFE
FFFF83FFFE
FFFFC7FFFE
FFFFFFFFFC
FFFFFFFFFC
FFFFFFFFFC
FFFFFFFFF8
FFFFFFFFF8
FFFFFFFFF0
7FFFFFFFF0
7FFFFFFFE0
7FFFFFFFE0
7FFFFFFFC0
7FFFFFFFC0
3FFFFFFF80
3FFFFFFF80
3FFFFFFF00
1FFFFFFE00
0FFFFFFC00
07FFFFF000
01FFFFE000
00FFFF8000
001FFE0000
0001E00000
ENDCHAR
STARTCHAR 0050
ENCODING 80
SWIDTH 488 0
DWIDTH 38 0
BBX 42 53 2 0
BITMAP
00000FFE0000
0001FFFFE000
0007FFFFF800
0007FFFFFE00
0007FFFFFF00
000FFFFFFF00
000FFFFFFF80
000FFFFFFF80
001FFFFFFFC0
001FFFFFFFC0
001FFFFFFFC0
001FFFFFFFC0
003FFE03FFC0
003FFE00FFC0
003FFE00FFC0
003FFE007FC0
007FFE00FFC0
007FFF00FFC0
007FFE00FFC0
00FFFE01FFC0
00FFFE03FFC0
00FFFE03FF80
00FFFF07FF80
01FFFF1FFFC0
01FFFFFFFFC0
01FFFFFFFF80
03FFFFFFFF00
03FFFFFFFE00
03FFFFFFF800
07FFFFFFF000
07FFFFFFC000
07FFFFFF8000
07FFFE000000
0FFFFE000000
0FFFFE000000
0FFFFC000000
1FFFFC000000
1FFFFC000000
1FFFFC000000
3FFFF8000000
3FFFF8000000
3FFFF8000000
7FFFF8000000
7FFFF8000000
7FFFF8000000
7FFFF0000000
7FFFF0000000
FFFFF0000000
FFFFF0000000
FFFFF0000000
FFFFF0000000
FFFFF0000000
FFFFE0000000
ENDCHAR
STARTCHAR 0051
ENCODING 81
SWIDTH 617 0
DWIDTH 48 0
BBX 42 57 5 -3
BITMAP
000001F80000
00003FFE0000
0000FFFF8000
0001FFFFC000
0003FFFFE000
0007FFFFF000
000FFFFFF000
001FFFFFF800
001FFFFFFC00
003FFFFFFE00
007FFFFFFE00
007FFFFFFF00
00FFFFFFFF00
00FFFFFFFF80
01FFFCFFFF80
01FFF87FFF80
03FFE03FFF80
03FFC01FFF80
07FFC00FFF80
07FFC00FFF80
07FFC007FF80
0FFFC007FF80
0FFF8007FF80
1FFF8007FF80
1FFF8007FF80
1FFF8007FF80
3FFF800FFF80
3FFF800FFF80
3FFF800FFF00
7FFF800FFF00
7FFFC01FFF00
7FFFF07FFE00
7FFFFFFFFE00
7FFFFFFFFC00
7FFFFFFFFC00
7FFFFFFFFC00
7FFFFFFFF800
7FFFFFFFF800
FFFFFFFFF000
FFFFFFFFE000
FFFFFFFFE000
7FFFFFFFE000
7FFFFFFFF000
7FFFFFFFF000
3FFFFFFFF800
1FFFFFFFF800
1FFFFFFFFC00
0FFFFFFFFE00
07FFFFFFFE00
03FFFFFFFF00
00FFFFFFFF80
003FFFFFFF80
0007C3FFFFC0
000001FFFFC0
000001FFFFC0
000000FFF800
000000700000
ENDCHAR
STARTCHAR 0052
ENCODING 82
SWIDTH 578 0
DWIDTH 45 0
BBX 40 54 6 -1
BITMAP
00003FF800
0007FFFE00
007FFFFF80
01FFFFFFE0
03FFFFFFF8
07FFFFFFFC
07FFFFFFFE
07FFFFFFFE
07FFFF1FFF
07FFFC03FF
07FFFC01FF
0FFFFC01FF
0FFFFC00FF
0FFFFC01FF
0FFFFC01FF
0FFFFC01FF
0FFFF801FF
0FFFF803FE
1FFFF807FE
1FFFFC0FFE
1FFFFE1FFC
1FFFFE7FFC
1FFFFFFFF8
1FFFFFFFF8
1FFFFFFFF0
1FFFFFFFE0
3FFFFFFF80
3FFFFFFC00
3FFFFFFC00
3FFFFFFE00
3FFFFFFE00
3FFFFFFF00
3FFFFFFF00
7FFFFFFF00
7FFFF7FF80
7FFFF7FF80
7FFFF7FFC0
7FFFF3FFC0
7FFFE3FFC0
FFFFE1FFE0
FFFFE1FFE0
FFFFE1FFF0
FFFFE0FFF0
FFFFE0FFF0
FFFFE0FFF8
FFFFE0FFF8
FFFFC0FFF8
FFFFC07FFC
FFFFC07FFC
FFFFC07FFE
FFFFC07FFE
FFFFC03FF8
FFFF803F80
7FFE003000
ENDCHAR
STARTCHAR 0053
ENCODING 83
SWIDTH 501 0
DWIDTH 39 0
BBX 46 55 3 -1
BITMAP
0000001FC000
000001FFFFE0
00001FFFFFFC
00007FFFFFFC
0000FFFFFFF8
0001FFFFFFF0
0001FFFFFFE0
0003FFFFFFE0
0003FFFFFFC0
0007FFFFFF80
000FFFFFFF80
000FFFFFFF00
001FFFFFFF00
003FFFFFFE00
003FFFFFFC00
007FFFFFFC00
007FFFFFF800
00FFFFFFF000
00FFFFFFF000
00FFFFFFE000
00FFFC07C000
00FFF800E000
00FFF8000000
00FFFF000000
00FFFF800000
007FFFE00000
007FFFF80000
007FFFFE0000
003FFFFFC000
003FFFFFE000
001FFFFFF000
0001FFFFF000
00003FFFF000
00000FFFF000
000003FFF000
000000FFF000
000001FFF000
000001FFF800
0E0003FFF800
3F800FFFF000
3FC7FFFFF000
7FFFFFFFF000
7FFFFFFFF000
FFFFFFFFE000
FFFFFFFFE000
FFFFFFFFC000
FFFFFFFFC000
FFFFFFFF8000
7FFFFFFF0000
3FFFFFF80000
1FFFFFF00000
0FFFFFC00000
07FFFF000000
01FFFC000000
001FC0000000
ENDCHAR
STARTCHAR 0054
ENCODING 84
SWIDTH 565 0
DWIDTH 44 0
BBX 44 53 9 0
BITMAP
000000001C00
01FFFFFFFF80
0FFFFFFFFFC0
1FFFFFFFFFE0
1FFFFFFFFFE0
1FFFFFFFFFF0
1FFFFFFFFFF0
1FFFFFFFFFF0
3FFFFFFFFFF0
3FFFFFFFFFF0
3FFFFFFFFFE0
3FFFFFFFFFE0
7FFFFFFFFFE0
7FFFFFFFFFE0
7FFFFFFFFFE0
FFFFFFFFC000
FFFCFFFE0000
FFC0FFFC0000
FC00FFF80000
0000FFF00000
0001FFE00000
0001FFE00000
0001FFC00000
0001FFC00000
0003FFC00000
0003FFC00000
0003FF800000
0003FF800000
0007FF800000
0007FF800000
0007FF800000
0007FF000000
000FFF000000
000FFF000000
000FFF000000
000FFE000000
001FFE000000
001FFE000000
001FFE000000
001FFC000000
001FFC000000
003FFC000000
003FFC000000
003FFC000000
003FFC000000
003FF8000000
007FF8000000
007FF8000000
007FF0000000
007FF0000000
007FF0000000
007FF0000000
007FF0000000
ENDCHAR
STARTCHAR 0055
ENCODING 85
SWIDTH 540 0
DWIDTH 42 0
BBX 46 52 6 1
BITMAP
000FC0001000
001FFC003FFC
001FFE007FFC
003FFC007FFC
003FFC007FFC
007FF8007FF8
007FF0007FF8
00FFF0007FF8
00FFF0007FF8
01FFF0007FF0
01FFE000FFF0
01FFE000FFF0
03FFE000FFE0
03FFC001FFE0
07FFC001FFE0
07FFC001FFE0
0FFF8003FFE0
0FFF8003FFE0
0FFF8003FFC0
1FFF8007FFC0
1FFF0007FFC0
1FFF000FFFC0
3FFF000FFFC0
3FFF000FFFC0
7FFF001FFFC0
7FFF001FFF80
7FFF801FFF80
7FFF803FFF80
7FFFC03FFF00
7FFFE07FFF00
7FFFFEFFFE00
FFFFFFFFFE00
FFFFFFFFFC00
FFFFFFFFFC00
FFFFFFFFF800
FFFFFFFFF800
FFFFFFFFF000
FFFFFFFFE000
FFFFFFFFE000
FFFFFFFFC000
7FFFFFFFC000
7FFFFFFF8000
7FFFFFFF0000
3FFFFFFE0000
3FFFFFFC0000
3FFFFFF80000
1FFFFFF00000
1FFFFFE00000
0FFFFF800000
03FFFF000000
007FFE000000
000C00000000
ENDCHAR
STARTCHAR 0056
ENCODING 86
SWIDTH 591 0
DWIDTH 46 0
BBX 44 50 12 2
BITMAP
000000000F00
70000001FFE0
FF00000FFFF0
FFF0001FFFE0
FFFF801FFFE0
7FFFC01FFFC0
3FFFE01FFFC0
3FFFF03FFFC0
3FFFF03FFFC0
3FFFE03FFF80
3FFFE03FFF80
3FFFE07FFF00
3FFFE07FFF00
3FFFE07FFF00
3FFFE0FFFE00
1FFFE0FFFE00
1FFFE0FFFC00
1FFFE1FFFC00
1FFFE1FFF800
1FFFE1FFF800
0FFFE3FFF000
0FFFE3FFF000
0FFFE3FFE000
0FFFE7FFE000
07FFE7FFC000
07FFFFFFC000
07FFFFFFC000
03FFFFFF8000
03FFFFFF8000
03FFFFFF0000
01FFFFFF0000
01FFFFFE0000
00FFFFFE0000
00FFFFFE0000
00FFFFFC0000
007FFFFC0000
007FFFF80000
003FFFF80000
003FFFF00000
001FFFF00000
001FFFF00000
000FFFE00000
000FFFE00000
0007FFE00000
0007FFC00000
0003FFC00000
0003FF800000
0001FF800000
0001FF800000
0000FC000000
ENDCHAR
STARTCHAR 0057
ENCODING 87
SWIDTH 720 0
DWIDTH 56 0
BBX 55 54 11 0
BITMAP
00000000000800
00000000001C04
1FFC0000003FFE
3FFE0000003FFE
7FFE003E007FFE
7FFF003E007FFC
FFFF007E00FFF8
FFFF007E01FFF8
FFFF007E01FFF0
FFFF007F03FFF0
FFFF00FF03FFE0
FFFF80FF07FFE0
FFFF80FF07FFC0
FFFF81FF0FFFC0
FFFF81FF0FFF80
FFFF81FF1FFF80
FFFF83FF3FFF00
FFFFC3FF3FFF00
7FFFC3FF3FFF00
7FFFC7FFFFFF00
7FFFC7FFFFFE00
7FFFEFFFFFFE00
7FFFEFFFFFFE00
3FFFFFFFFFFC00
3FFFFFFFFFFC00
3FFFFFFFFFF800
3FFFFFFFFFF800
1FFFFFFFFFF000
1FFFFFFFFFF000
1FFFFFFFFFF000
1FFFFFFFFFE000
0FFFFFFFFFE000
0FFFFF7FFFE000
0FFFFF7FFFC000
0FFFFE7FFFC000
07FFFC7FFF8000
07FFFC7FFF8000
07FFFC7FFF0000
03FFF87FFF0000
03FFF07FFF0000
03FFF03FFF0000
03FFE03FFE0000
01FFC03FFE0000
01FFC03FFE0000
01FF803FFC0000
00FF803FFC0000
00FF803FF80000
00FF003FF80000
007F003FF00000
007E003FF00000
007E001F800000
003C0000000000
003C0000000000
00180000000000
ENDCHAR
STARTCHAR 0058
ENCODING 88
SWIDTH 565 0
DWIDTH 44 0
BBX 49 52 5 1
BITMAP
0000000003C000
0000000007FF80
003FF8000FFF80
007FFC000FFF80
00FFF8001FFF80
01FFF8003FFF00
03FFFC007FFF00
03FFFC00FFFE00
03FFFC00FFFC00
03FFFE01FFF800
03FFFE03FFF800
03FFFE03FFF000
03FFFF07FFF000
03FFFF07FFE000
03FFFF0FFFC000
01FFFF1FFFC000
01FFFF1FFF8000
00FFFFBFFF0000
007FFFFFFF0000
007FFFFFFE0000
003FFFFFFE0000
001FFFFFFC0000
001FFFFFF80000
000FFFFFF00000
000FFFFFF00000
0007FFFFE00000
0007FFFFC00000
0007FFFFC00000
0003FFFF800000
0003FFFF800000
0003FFFF800000
000FFFFF800000
001FFFFF800000
003FFFFF800000
003FFFFF800000
007FFFFFC00000
00FFFFFFC00000
01FFFFFFC00000
01FFF7FFC00000
03FFE7FFC00000
07FFE3FFC00000
07FFE3FFE00000
0FFFC1FFE00000
1FFFC1FFE00000
1FFFC0FFE00000
3FFF80FFF00000
3FFF807FF00000
7FFF007FE00000
7FFF003F000000
FFFE0018000000
FFFC0000000000
60000000000000
ENDCHAR
STARTCHAR 0059
ENCODING 89
SWIDTH 604 0
DWIDTH 47 0
BBX 47 53 11 1
BITMAP
000000001FFE
000000007FFC
00380000FFF8
05FC00007FF8
3FFC0000FFF0
7FFE0001FFF0
FFFE0003FFE0
FFFE0007FFC0
7FFF0007FF80
7FFF000FFF80
7FFF000FFF00
7FFF801FFE00
3FFF803FFE00
3FFF807FFC00
3FFF807FF800
1FFF80FFF800
1FFFC1FFF000
1FFFC3FFE000
0FFFC3FFC000
0FFFC7FFC000
0FFFCFFF8000
0FFFEFFF0000
07FFFFFF0000
07FFFFFE0000
07FFFFFC0000
03FFFFFC0000
03FFFFF80000
03FFFFF00000
03FFFFF00000
01FFFFE00000
01FFFFC00000
01FFFFC00000
00FFFF800000
00FFFF000000
00FFFF000000
007FFC000000
007FFC000000
007FFC000000
003FFC000000
003FFC000000
003FFC000000
007FFC000000
007FF8000000
007FF8000000
007FF8000000
007FF8000000
00FFF8000000
00FFF8000000
00FFF8000000
00FFF8000000
00FFF8000000
00FFF0000000
00FE00000000
ENDCHAR
STARTCHAR 005A
ENCODING 90
SWIDTH 591 0
DWIDTH 46 0
BBX 40 54 10 0
BITMAP
000003FC00
00007FFFE0
000FFFFFFF
00FFFFFFFE
03FFFFFFFC
07FFFFFFF8
0FFFFFFFF0
1FFFFFFFE0
3FFFFFFFE0
3FFFFFFFC0
7FFFFFFF80
FFFFFFFF00
FFFFFFFE00
FFFFFFFE00
FFF03FFC00
80003FF800
00007FF800
0000FFF000
0000FFF000
0001FFE000
0001FFC000
0003FFC000
0003FF8000
0007FF8000
000FFF0000
000FFF0000
001FFE0000
001FFE0000
003FFC0000
003FFC0000
007FF80000
00FFF80000
00FFF00000
01FFF00000
01FFF00000
03FFE00000
03FFC00000
07FF800000
07FF000000
0FFF01FFFC
1FFEFFFFFC
1FFFFFFFFC
3FFFFFFFFC
3FFFFFFFFC
7FFFFFFFF8
7FFFFFFFF8
FFFFFFFFF0
FFFFFFFFE0
FFFFFFFFC0
C7FFFFFF80
00FFFFFE00
003FFFF800
0003FFC000
0000100000
ENDCHAR
STARTCHAR 005B
ENCODING 91
SWIDTH 347 0
DWIDTH 27 0
BBX 40 74 -1 -11
BITMAP
0000000FFF
0000FFFFFF
0001FFFFFF
0001FFFFFF
0001FFFFFF
0001FFFFFE
0001FFFFFE
0003FFFFFE
0003FFFFFE
0003FFFFFE
0003FFFF00
0003FF8000
0003FF8000
0007FF8000
0007FF0000
0007FF0000
0007FF0000
0007FF0000
0007FF0000
000FFE0000
000FFE0000
000FFE0000
001FFE0000
001FFE0000
001FFC0000
001FFC0000
003FFC0000
003FFC0000
003FF80000
003FF80000
007FF80000
007FF80000
007FF80000
007FF80000
007FF00000
00FFF00000
00FFF00000
00FFF00000
00FFE00000
00FFE00000
01FFE00000
01FFE00000
01FFC00000
01FFC00000
03FFC00000
03FFC00000
03FFC00000
03FFC00000
03FF800000
07FF800000
07FF800000
07FF800000
07FF000000
07FF000000
0FFF000000
0FFF000000
0FFF000000
0FFE000000
1FFE000000
1FFE000000
1FFE000000
1FFC000000
1FFC000000
3FFDFFC000
3FFFFFE000
3FFFFFE000
7FFFFFC000
7FFFFFC000
7FFFFFC000
7FFFFFC000
7FFFFFC000
7FFFFF8000
FFFFFF8000
FFFFFC0000
ENDCHAR
STARTCHAR 005C
ENCODING 92
SWIDTH 450 0
DWIDTH 35 0
BBX 21 62 13 -4
BITMAP
7FFC00
FFFC00
FFFC00
FFFC00
FFFC00
FFFE00
FFFE00
FFFE00
FFFE00
FFFE00
FFFE00
FFFE00
FFFE00
7FFE00
7FFE00
7FFF00
7FFF00
7FFF00
7FFF00
7FFF00
3FFF00
3FFF00
3FFF00
3FFF00
3FFF00
3FFF00
1FFF00
1FFF80
1FFF80
1FFF80
1FFF80
0FFF80
0FFF80
0FFF80
0FFF80
07FF80
07FF80
07FFC0
07FFC0
07FFC0
03FFC0
03FFC0
03FFC0
03FFC0
03FFC0
01FFE0
01FFE0
01FFE0
01FFE0
01FFE0
00FFE0
00FFF0
00FFF0
00FFF0
007FF0
007FF0
007FF0
003FF8
003FF8
003FF8
001E10
001800
ENDCHAR
STARTCHAR 005D
ENCODING 93
SWIDTH 347 0
DWIDTH 27 0
BBX 40 74 -1 -11
BITMAP
0000021FFF
0001FFFFFF
0001FFFFFF
0001FFFFFF
0001FFFFFF
0001FFFFFF
0003FFFFFE
0003FFFFFE
0003FFFFFE
0003FFFFFE
0003FFFFFC
0000003FFC
0000003FFC
0000003FFC
0000003FFC
0000003FF8
0000007FF8
0000007FF8
0000007FF0
0000007FF0
000000FFF0
000000FFF0
000000FFF0
000000FFE0
000001FFE0
000001FFE0
000001FFE0
000001FFE0
000001FFC0
000001FFC0
000001FFC0
000003FFC0
000003FFC0
000003FF80
000003FF80
000007FF80
000007FF80
000007FF00
000007FF00
00000FFF00
00000FFF00
00000FFF00
00001FFE00
00000FFE00
00000FFE00
00001FFE00
00001FFC00
00001FFC00
00001FFC00
00003FFC00
00003FFC00
00003FF800
00003FF800
00007FF800
00007FF800
00007FF000
00007FF000
00007FF000
0000FFF000
0000FFE000
0000FFE000
0000FFE000
0000FFE000
001FFFE000
3FFFFFE000
3FFFFFC000
7FFFFFC000
7FFFFFC000
7FFFFFC000
7FFFFFC000
7FFFFF8000
7FFFFF8000
FFFFFF8000
FFFC000000
ENDCHAR
STARTCHAR 005E
ENCODING 94
SWIDTH 488 0
DWIDTH 38 0
BBX 36 32 7 25
BITMAP
000000E000
000007F800
00000FF800
00001FF800
00001FFC00
00003FFC00
00007FFC00
0000FFFC00
0001FFFC00
0003FFFE00
0007FFFE00
0007FFFE00
000FFFFE00
001FFFFF00
003FFBFF00
007FFBFF00
007FF3FF00
00FFF3FF80
01FFE3FF80
03FFE3FF80
07FFC3FF80
07FFC3FFC0
0FFF83FFC0
1FFF83FFC0
1FFF03FFE0
3FFF03FFE0
3FFE03FFE0
7FFE03FFE0
7FFC03FFF0
FFFC03FFF0
FFF803FFF0
F00001FFC0
ENDCHAR
STARTCHAR 005F
ENCODING 95
SWIDTH 385 0
DWIDTH 30 0
BBX 29 10 0 -9
BITMAP
7FFFFFF0
7FFFFFF8
7FFFFFF0
7FFFFFF0
FFFFFFF0
FFFFFFF0
FFFFFFE0
FFFFFFE0
FFFFFFE0
06FC0000
ENDCHAR
STARTCHAR 0060
ENCODING 96
SWIDTH 231 0
DWIDTH 18 0
BBX 14 12 15 55
BITMAP
7FE0
FFE0
7FF0
7FF0
3FF0
1FF8
1FF8
0FF8
07FC
07FC
03FC
03E0
ENDCHAR
STARTCHAR 0061
ENCODING 97
SWIDTH 630 0
DWIDTH 49 0
BBX 47 55 1 -2
BITMAP
000000000300
000000007F00
00000000FF00
00000001FF80
00000001FF80
00000003FF80
00000003FF80
00000007FF80
00000007FF80
0000000FFF80
0000001FFF80
0000001FFF80
0000003FFF80
0000003FFF80
0000007FFF80
000000FFFF80
000000FFFF80
000001FFFF80
000001FFFF80
000003FFFFC0
000007FFFFC0
000007FFFFC0
00000FFFFFC0
00000FFFFFC0
00001FFFFFC0
00003FFFFFC0
00003FFFFFC0
00007FFFFFC0
0000FF9FFFC0
0000FF0FFFC0
0001FE0FFFC0
0003FE0FFFE0
0003FC0FFFE0
0007F807FFE0
000FF007FFE0
000FE00FFFE0
001FF1FFFFE0
003FFFFFFFE0
003FFFFFFFF0
007FFFFFFFF0
00FFFFFFFFF0
00FFFFFFFFF0
01FFFF1FFFF0
03FFF01FFFF8
03FFE01FFFF8
07FFC01FFFF8
0FFF801FFFF8
0FFF801FFFFC
1FFF001FFFFC
1FFF001FFFFC
3FFF001FFFFC
7FFE000FFFFE
7FFE000FFFFE
FFF8000F000C
F00000000000
ENDCHAR
STARTCHAR 0062
ENCODING 98
SWIDTH 514 0
DWIDTH 40 0
BBX 35 53 8 1
BITMAP
0007800000
007FFF0000
01FFFFF000
07FFFFFC00
0FFFFFFE00
0FFFFFFF00
1FFFFFFF00
1FFFFFFF00
1FFFFFFF00
1FFFFFFF80
1FFFFFFF80
1FFFFFFF80
1FFFBFFF80
1FFF07FF80
1FFF03FF80
1FFF01FF80
1FFF01FF80
1FFE01FF00
1FFE01FF00
1FFE03FE00
1FFF07FC00
1FFF0FFC00
1FFF9FFC00
3FFFFFF000
3FFFFFE000
3FFFFFC000
3FFFFFE000
3FFFFFFC00
3FFFFFFF00
3FFFFFFF00
3FFFFFFF80
3FFFFFFF80
7FFF9FFFC0
7FFF03FFC0
7FFE01FFE0
7FFF03FFE0
7FFE03FFE0
7FFE03FFE0
7FFE07FFE0
7FFE0FFFC0
7FFE1FFFC0
7FFE7FFF80
FFFEFFFF80
FFFFFFFF00
FFFFFFFF00
FFFFFFFE00
FFFFFFF800
FFFFFFF000
FFFFFFE000
FFFFFFC000
FFFFFF0000
FFFFF00000
7FFC000000
ENDCHAR
STARTCHAR 0063
ENCODING 99
SWIDTH 488 0
DWIDTH 38 0
BBX 41 52 6 1
BITMAP
0000007E0000
000003FFE000
00001FFFF800
0000FFFFFC00
0003FFFFFE00
000FFFFFFF00
001FFFFFFF80
003FFFFFFF80
007FFFFFFF00
00FFFFFFFF00
01FFFFFFFF00
03FFFFFFFE00
03FFFFFFFE00
07FFFFFFFE00
07FFFFFFFC00
0FFFFFC04000
0FFFFE000000
1FFFF8000000
1FFFF0000000
3FFFE0000000
3FFFC0000000
3FFFC0000000
3FFF80000000
3FFF80000000
7FFF80000000
7FFF80000000
7FFF80000000
7FFF80000000
FFFFC0000000
FFFFE003E000
FFFFF1FFE000
FFFFFFFFE000
FFFFFFFFE000
FFFFFFFFE000
FFFFFFFFC000
FFFFFFFFC000
FFFFFFFFC000
FFFFFFFFC000
FFFFFFFF8000
7FFFFFFF8000
7FFFFFFF8000
7FFFFFFF8000
7FFFFFFF8000
7FFFFFFF0000
3FFFFFFE0000
3FFFFFFC0000
3FFFFFF00000
1FFFFFF00000
1FFFFFE00000
01FFFF800000
00FFFE000000
0007F0000000
ENDCHAR
STARTCHAR 0064
ENCODING 100
SWIDTH 462 0
DWIDTH 36 0
BBX 34 53 8 0
BITMAP
00FFE00000
03FFF80000
0FFFFF0000
0FFFFFC000
0FFFFFF000
1FFFFFF000
1FFFFFF800
1FFFFFFC00
1FFFFFFC00
3FFFFFFE00
3FFFFFFE00
3FFFFFFF00
3FFFFFFF00
3FFFFFFF80
3FFF9FFF80
7FFF07FF80
7FFF01FF80
7FFE00FFC0
7FFE00FFC0
7FFC00FFC0
7FFC01FFC0
7FFC01FFC0
7FFC01FF80
7FFC03FF80
7FFC03FF80
FFFC07FF00
FFFC0FFF00
FFFC0FFE00
FFFC1FFC00
FFFC3FFC00
FFFCFFF800
FFFDFFF000
FFFFFFF000
FFFFFFE000
FFFFFFC000
FFFFFFC000
FFFFFF8000
FFFFFF0000
FFFFFE0000
FFFFFC0000
FFFFFC0000
FFFFF80000
FFFFF00000
FFFFE00000
FFFFC00000
FFFF000000
FFFE000000
FFF8000000
FFE0000000
FF80000000
FE00000000
7000000000
4000000000
ENDCHAR
STARTCHAR 0065
ENCODING 101
SWIDTH 488 0
DWIDTH 38 0
BBX 31 54 10 0
BITMAP
003FFFC0
01FFFFFC
0FFFFFFE
3FFFFFFC
3FFFFFFC
3FFFFFF8
3FFFFFF8
3FFFFFF0
3FFFFFF0
3FFFFFE0
3FFFFFE0
3FFFFFE0
3FFFFFC0
3FFFFFE0
3FFFFFC0
3FFFFF80
3FFF8000
3FFE0000
3FFE0000
3FFE0000
3FFE0000
3FFE0100
3FFE3F00
3FFFFF00
3FFFFE00
3FFFFE00
3FFFFE00
3FFFFE00
3FFFFE00
3FFFFE00
3FFF0000
3FFC0000
3FFC0000
3FFE0030
3FFFFFF0
3FFFFFF0
7FFFFFF8
3FFFFFF8
7FFFFFF8
7FFFFFF8
7FFFFFF8
7FFFFFF8
7FFFFFF8
7FFFFFF8
FFFFFFF8
FFFFFFF8
FFFFFFF8
FFFFFFF8
FFFFFFE0
FFFFFE00
FFFFE000
FFFE0000
FFC00000
68000000
ENDCHAR
STARTCHAR 0066
ENCODING 102
SWIDTH 501 0
DWIDTH 39 0
BBX 45 55 3 0
BITMAP
000000007F00
000000FFFFF0
0001FFFFFFF8
000FFFFFFFF8
003FFFFFFFF8
007FFFFFFFF8
007FFFFFFFF8
00FFFFFFFFF0
00FFFFFFFFF0
00FFFFFFFFF0
00FFFFFFFFF0
01FFFFFFFFF0
01FFFFFE0040
01FFFF800000
01FFFC000000
01FFFC000000
03FFF8000000
03FFF8000000
03FFF0000000
03FFF0000000
03FFF0200000
03FFF3F00000
07FFFFF00000
07FFFFF00000
07FFFFF00000
07FFFFE00000
07FFFFE00000
0FFFFFE00000
0FFFFFE00000
0FFFFFE00000
0FFFFFC00000
1FFFF0C00000
1FFFC0800000
1FFF80000000
1FFF00000000
1FFF00000000
3FFF00000000
3FFF00000000
3FFE00000000
3FFE00000000
7FFE00000000
7FFE00000000
7FFE00000000
7FFE00000000
7FFC00000000
7FFC00000000
7FFC00000000
7FFC00000000
7FFC00000000
7FFE00000000
FFFE00000000
FFFE00000000
FFFE00000000
FFF000000000
780000000000
ENDCHAR
STARTCHAR 0067
ENCODING 103
SWIDTH 501 0
DWIDTH 39 0
BBX 42 52 4 1
BITMAP
000001FFE000
000003FFFC00
00000FFFFE00
00001FFFFF00
00003FFFFF80
00007FFFFFC0
0000FFFFFFC0
0001FFFFFFC0
0003FFFFFFC0
0007FFFFFFC0
0007FFFFFF80
000FFFF3FE00
001FFF80F800
001FFE000000
003FF8000000
003FF0000000
007FE0000000
00FFE0000000
00FFC0000000
00FFC0000000
01FF80000000
01FF80000000
03FF0003FF00
03FF007FFF00
07FE01FFFF00
07FE03FFFE00
0FFE03FFFE00
0FFE01FFFE00
0FFC01FFFE00
1FFC03FFFE00
1FFC03FFFC00
3FFC03FFFC00
3FFC03FFFC00
3FFC03FFFC00
7FFC03FFF800
7FFF07FFF800
7FFFFFFFF800
7FFFFFFFF800
FFFFFFFFF000
FFFFFFFFF000
FFFFFFFFF000
FFFFFFFFF000
FFFFFFFFC000
FFFFFFFF8000
7FFFFFFE0000
7FFFFFFC0000
3FFFFFF00000
3FFFFFC00000
1FFFFF000000
0FFFF8000000
07FFC0000000
03FE00000000
ENDCHAR
STARTCHAR 0068
ENCODING 104
SWIDTH 552 0
DWIDTH 43 0
BBX 51 52 2 1
BITMAP
0000001C000000
00000FFF000000
0000FFFF00FFE0
0001FFFE03FFE0
0003FFFC03FFE0
0003FFF807FFE0
0003FFFC07FFC0
0003FFFC0FFFC0
0003FFFC0FFFC0
0003FFF80FFFC0
0003FFF80FFF80
0007FFF81FFF80
0007FFF01FFF80
0007FFF03FFF00
000FFFF03FFF00
000FFFF03FFF00
000FFFE03FFE00
001FFFE03FFE00
001FFFE07FFE00
001FFFE0FFFE00
003FFFFFFFFC00
003FFFFFFFFC00
003FFFFFFFFC00
007FFFFFFFF800
007FFFFFFFF800
007FFFFFFFF800
00FFFFFFFFF000
00FFFFFFFFF000
00FFFFFFFFF000
01FFFFFFFFF800
01FFFFFFFFF800
01FFFFFFFFF000
01FFFFFFFFF000
03FFFFFFFFF000
03FFFFFFFFF000
03FFFC0FFFE000
07FFFC0FFFE000
07FFFC1FFFE000
07FFF81FFFC000
07FFF81FFFC000
0FFFF81FFFC000
0FFFF03FFF8000
0FFFF83FFF8000
1FFFF03FFF8000
1FFFF07FFF0000
1FFFF07FFF0000
3FFFF07FFF0000
3FFFE07FFE0000
7FFFE07FFE0000
7FFFE0FFFC0000
FFFFC0FF000000
01FF80F0000000
ENDCHAR
STARTCHAR 0069
ENCODING 105
SWIDTH 334 0
DWIDTH 26 0
BBX 34 52 2 0
BITMAP
00007FFEC0
0000FFFFC0
0001FFFF80
0001FFFF00
0000FFFF00
0001FFFE00
0001FFFE00
0001FFFE00
0003FFFC00
0003FFFC00
0007FFFC00
0007FFF800
0007FFF800
000FFFF800
000FFFF000
000FFFF000
001FFFF000
001FFFF000
001FFFE000
003FFFE000
003FFFE000
003FFFC000
003FFFC000
007FFFC000
007FFFC000
007FFF8000
00FFFF8000
00FFFF8000
00FFFF8000
00FFFF0000
01FFFF0000
01FFFF0000
01FFFF0000
01FFFF0000
03FFFF0000
03FFFE0000
03FFFE0000
03FFFE0000
07FFFE0000
07FFFE0000
07FFFC0000
07FFFC0000
0FFFF80000
0FFFF80000
0FFFF00000
1FFFF00000
1FFFF00000
3FFFF00000
3FFFE00000
7FFF800000
FFE0000000
FC00000000
ENDCHAR
STARTCHAR 006A
ENCODING 106
SWIDTH 450 0
DWIDTH 35 0
BBX 40 53 4 -1
BITMAP
0000000006
000000FFFF
000001FFFF
000001FFFF
000003FFFF
000003FFFF
000003FFFE
000007FFFE
000007FFFE
00000FFFFE
00000FFFFE
00001FFFFE
00001FFFFC
00001FFFFC
00003FFFFC
00003FFFFC
00003FFFFC
00003FFFFC
00007FFFFC
00007FFFF8
00007FFFF8
00007FFFF8
00007FFFF8
0000FFFFF8
00007FFFF8
00007FFFF0
00007FFFF0
00007FFFF0
00007FFFF0
00007FFFE0
00007FFFE0
00007FFFE0
00007FFFE0
00007FFFC0
00007FFFC0
00F07FFFC0
3FF07FFF80
7FF87FFF80
7FF87FFF00
FFFC7FFF00
FFFCFFFE00
FFFC7FFC00
FFFEFFFC00
FFFFFFF800
FFFFFFF800
FFFFFFF000
7FFFFFE000
7FFFFFC000
3FFFFF0000
1FFFFE0000
0FFFF80000
03FFF00000
007FC00000
ENDCHAR
STARTCHAR 006B
ENCODING 107
SWIDTH 552 0
DWIDTH 43 0
BBX 50 54 2 0
BITMAP
00000000003000
0000020600F000
003FFFFE01F000
003FFFFE03F800
001FFFFE07FC00
001FFFFE0FFFC0
001FFFFC1FFFC0
003FFFFC3FFF80
003FFFF83FFF00
003FFFFC7FFE00
003FFFF8FFFC00
007FFFF9FFF800
007FFFF9FFF000
007FFFFBFFE000
007FFFFFFFC000
00FFFFF7FFC000
00FFFFFFFF0000
00FFFFFFFE0000
00FFFFFFFE0000
01FFFFFFFC0000
01FFFFFFF80000
01FFFFFFF00000
01FFFFFFF00000
01FFFFFFE00000
03FFFFFFC00000
03FFFFFF800000
07FFFFFF800000
07FFFFFF000000
07FFFFFC000000
07FFFFFE000000
0FFFFFFE000000
0FFFFFFF000000
0FFFFFFF800000
0FFFFFFFC00000
1FFFFFFFC00000
1FFFFFFFE00000
1FFFFFFFF00000
1FFFFFFFF00000
3FFFFFFFF80000
3FFFFEFFF80000
3FFFFEFFFC0000
3FFFFC7FFC0000
3FFFFC7FFE0000
3FFFF83FFE0000
7FFFF83FFF0000
7FFFF83FFF0000
7FFFF81FFF0000
7FFFF81FFF0000
7FFFF80FFF8000
7FFFF80FFF8000
7FFFF80FF38000
FFFFF007C00000
FFFFE00F800000
00040007000000
ENDCHAR
STARTCHAR 006C
ENCODING 108
SWIDTH 514 0
DWIDTH 40 0
BBX 40 54 1 -1
BITMAP
0000003FF8
000007FFFC
00001FFFFC
00003FFFFC
00007FFFF8
00007FFFF8
00007FFFF8
0000FFFFF0
0000FFFFF0
0000FFFFE0
0001FFFFE0
0001FFFFE0
0001FFFFC0
0003FFFFC0
0003FFFFC0
0003FFFF80
0003FFFF80
0007FFFF00
0007FFFF00
0007FFFF00
0007FFFE00
000FFFFE00
000FFFFE00
001FFFFC00
001FFFFC00
003FFFF800
003FFFF800
003FFFF800
007FFFF000
007FFFF000
00FFFFE000
00FFFFE000
00FFFFE000
01FFFFC000
01FFFFC000
01FFFFC000
03FFFFC000
03FFFFFFFF
03FFFFFFFF
07FFFFFFFE
07FFFFFFFE
07FFFFFFFE
07FFFFFFFE
0FFFFFFFFE
0FFFFFFFFC
0FFFFFFFFC
0FFFFFFFFC
1FFFFFFFFC
1FFFFFFFFC
1FFFFFFFFC
1FFFFFFF00
3FFFFFFF00
7FFE000000
FE00000000
ENDCHAR
STARTCHAR 006D
ENCODING 109
SWIDTH 642 0
DWIDTH 50 0
BBX 53 54 1 -1
BITMAP
00001C00000000
00003E00000070
00003E000001F8
00003F000003F8
00007F000007F8
00007F80000FF8
00007F80001FF8
00007FC0001FF0
0000FFC0003FF0
0000FFC0007FF0
0001FFE0007FF0
0001FFE000FFF0
0001FFF001FFF0
0003FFF003FFF0
0003FFF003FFF0
0003FFF807FFF0
0007FFF80FFFF0
0007FFFC1FFFF0
000FFFFC3FFFF0
000FFFFC3FFFF0
000FFFFE7FFFF0
001FFFFFFFFFF0
001FFFFFFFFFE0
001FFFFFFFFFE0
003FFFFFFFFFE0
003FFFFFFFFFE0
003FFFFFFFFFE0
007FFFFFFFFFE0
007FFFFFFFFFE0
007FFFFFFFFFC0
00FFFFDFDFFFC0
00FFFF9F9FFFC0
00FFFF0FBFFFC0
01FFFE0F3FFFC0
01FFFE073FFFC0
03FFFC007FFFC0
03FFF8007FFFC0
03FFF8007FFFC0
07FFF0007FFFC0
07FFF000FFFFC0
07FFE000FFFFC0
0FFFE001FFFFC0
0FFFC001FFFFC0
1FFFC001FFFF80
1FFF8003FFFF80
1FFF8001FFFF80
3FFF0003FFFF80
3FFF0003FFFF80
3FFE0003FFFF80
7FFE0003FFFF80
7FFC0003FFFF00
7FFC00000D8000
FEF80000000000
C0000000000000
ENDCHAR
STARTCHAR 006E
ENCODING 110
SWIDTH 565 0
DWIDTH 44 0
BBX 51 51 2 1
BITMAP
00001F00003F00
0000FFF801FFC0
0001FFFE07FFE0
0003FFFE0FFFE0
0003FFFC0FFFE0
0003FFFC0FFFE0
0007FFFC1FFFC0
0007FFF81FFFC0
0007FFF81FFFC0
000FFFF81FFF80
000FFFF83FFF80
000FFFF83FFF80
001FFFF83FFF00
001FFFF83FFF00
003FFFF87FFF00
003FFFF87FFE00
003FFFF87FFE00
007FFFF87FFE00
007FFFF8FFFC00
007FFFF8FFFC00
00FFFFF8FFFC00
00FFFFF8FFF800
00FFFFF9FFF800
01FFFFFDFFF800
01FFFFFDFFF000
01FFFFFDFFF000
03FFFFFFFFF000
03FFFFFFFFF000
03FFFFFFFFE000
03FFFFFFFFE000
07FFFFFFFFE000
07FFF3FFFFC000
07FFF3FFFFC000
07FFF3FFFFC000
0FFFF3FFFFC000
0FFFE3FFFF8000
0FFFE3FFFF8000
0FFFE3FFFF8000
1FFFE1FFFF8000
1FFFC1FFFF0000
1FFFC1FFFF0000
3FFFC1FFFF0000
3FFF81FFFE0000
3FFF81FFFE0000
7FFF81FFFE0000
7FFF81FFFE0000
7FFF01FFFE0000
7FFF01FFFC0000
FFFF03FFFC0000
FFFE03FFF80000
FFE0007FC00000
ENDCHAR
STARTCHAR 006F
ENCODING 111
SWIDTH 527 0
DWIDTH 41 0
BBX 40 55 6 -1
BITMAP
00003F0000
00007FC000
0000FFF000
0001FFF800
0003FFFE00
0007FFFF00
0007FFFFC0
000FFFFFE0
001FFFFFE0
003FFFFFF0
003FFFFFF0
007FFFFFF8
00FFFFFFF8
00FFFFFFFC
01FFFFFFFC
01FFFFFFFE
03FFFFFFFE
07FFFFFFFE
07FFFFFFFE
0FFFFFFFFF
0FFFE0FFFF
1FFFC07FFF
1FFF803FFF
3FFF803FFF
3FFF003FFF
7FFF003FFF
7FFF007FFF
7FFE007FFF
7FFE007FFF
7FFE007FFF
FFFE00FFFF
FFFF01FFFE
FFFF83FFFE
FFFFC7FFFE
FFFFFFFFFC
FFFFFFFFFC
FFFFFFFFFC
FFFFFFFFF8
FFFFFFFFF8
FFFFFFFFF0
7FFFFFFFF0
7FFFFFFFE0
7FFFFFFFE0
7FFFFFFFC0
7FFFFFFFC0
3FFFFFFF80
3FFFFFFF80
3FFFFFFF00
1FFFFFFE00
0FFFFFFC00
07FFFFF000
01FFFFE000
00FFFF8000
001FFE0000
0001E00000
ENDCHAR
STARTCHAR 0070
ENCODING 112
SWIDTH 488 0
DWIDTH 38 0
BBX 42 53 2 0
BITMAP
00000FFE0000
0001FFFFE000
0007FFFFF800
0007FFFFFE00
0007FFFFFF00
000FFFFFFF00
000FFFFFFF80
000FFFFFFF80
001FFFFFFFC0
001FFFFFFFC0
001FFFFFFFC0
001FFFFFFFC0
003FFE03FFC0
003FFE00FFC0
003FFE00FFC0
003FFE007FC0
007FFE00FFC0
007FFF00FFC0
007FFE00FFC0
00FFFE01FFC0
00FFFE03FFC0
00FFFE03FF80
00FFFF07FF80
01FFFF1FFFC0
01FFFFFFFFC0
01FFFFFFFF80
03FFFFFFFF00
03FFFFFFFE00
03FFFFFFF800
07FFFFFFF000
07FFFFFFC000
07FFFFFF8000
07FFFE000000
0FFFFE000000
0FFFFE000000
0FFFFC000000
1FFFFC000000
1FFFFC000000
1FFFFC000000
3FFFF8000000
3FFFF8000000
3FFFF8000000
7FFFF8000000
7FFFF8000000
7FFFF8000000
7FFFF0000000
7FFFF0000000
FFFFF0000000
FFFFF0000000
FFFFF0000000
FFFFF0000000
FFFFF0000000
FFFFE0000000
ENDCHAR
STARTCHAR 0071
ENCODING 113
SWIDTH 617 0
DWIDTH 48 0
BBX 42 57 5 -3
BITMAP
000001F80000
00003FFE0000
0000FFFF8000
0001FFFFC000
0003FFFFE000
0007FFFFF000
000FFFFFF000
001FFFFFF800
001FFFFFFC00
003FFFFFFE00
007FFFFFFE00
007FFFFFFF00
00FFFFFFFF00
00FFFFFFFF80
01FFFCFFFF80
01FFF87FFF80
03FFE03FFF80
03FFC01FFF80
07FFC00FFF80
07FFC00FFF80
07FFC007FF80
0FFFC007FF80
0FFF8007FF80
1FFF8007FF80
1FFF8007FF80
1FFF8007FF80
3FFF800FFF80
3FFF800FFF80
3FFF800FFF00
7FFF800FFF00
7FFFC01FFF00
7FFFF07FFE00
7FFFFFFFFE00
7FFFFFFFFC00
7FFFFFFFFC00
7FFFFFFFFC00
7FFFFFFFF800
7FFFFFFFF800
FFFFFFFFF000
FFFFFFFFE000
FFFFFFFFE000
7FFFFFFFE000
7FFFFFFFF000
7FFFFFFFF000
3FFFFFFFF800
1FFFFFFFF800
1FFFFFFFFC00
0FFFFFFFFE00
07FFFFFFFE00
03FFFFFFFF00
00FFFFFFFF80
003FFFFFFF80
0007C3FFFFC0
000001FFFFC0
000001FFFFC0
000000FFF800
000000700000
ENDCHAR
STARTCHAR 0072
ENCODING 114
SWIDTH 578 0
DWIDTH 45 0
BBX 40 54 6 -1
BITMAP
00003FF800
0007FFFE00
007FFFFF80
01FFFFFFE0
03FFFFFFF8
07FFFFFFFC
07FFFFFFFE
07FFFFFFFE
07FFFF1FFF
07FFFC03FF
07FFFC01FF
0FFFFC01FF
0FFFFC00FF
0FFFFC01FF
0FFFFC01FF
0FFFFC01FF
0FFFF801FF
0FFFF803FE
1FFFF807FE
1FFFFC0FFE
1FFFFE1FFC
1FFFFE7FFC
1FFFFFFFF8
1FFFFFFFF8
1FFFFFFFF0
1FFFFFFFE0
3FFFFFFF80
3FFFFFFC00
3FFFFFFC00
3FFFFFFE00
3FFFFFFE00
3FFFFFFF00
3FFFFFFF00
7FFFFFFF00
7FFFF7FF80
7FFFF7FF80
7FFFF7FFC0
7FFFF3FFC0
7FFFE3FFC0
FFFFE1FFE0
FFFFE1FFE0
FFFFE1FFF0
FFFFE0FFF0
FFFFE0FFF0
FFFFE0FFF8
FFFFE0FFF8
FFFFC0FFF8
FFFFC07FFC
FFFFC07FFC
FFFFC07FFE
FFFFC07FFE
FFFFC03FF8
FFFF803F80
7FFE003000
ENDCHAR
STARTCHAR 0073
ENCODING 115
SWIDTH 501 0
DWIDTH 39 0
BBX 46 55 3 -1
BITMAP
0000001FC000
000001FFFFE0
00001FFFFFFC
00007FFFFFFC
0000FFFFFFF8
0001FFFFFFF0
0001FFFFFFE0
0003FFFFFFE0
0003FFFFFFC0
0007FFFFFF80
000FFFFFFF80
000FFFFFFF00
001FFFFFFF00
003FFFFFFE00
003FFFFFFC00
007FFFFFFC00
007FFFFFF800
00FFFFFFF000
00FFFFFFF000
00FFFFFFE000
00FFFC07C000
00FFF800E000
00FFF8000000
00FFFF000000
00FFFF800000
007FFFE00000
007FFFF80000
007FFFFE0000
003FFFFFC000
003FFFFFE000
001FFFFFF000
0001FFFFF000
00003FFFF000
00000FFFF000
000003FFF000
000000FFF000
000001FFF000
000001FFF800
0E0003FFF800
3F800FFFF000
3FC7FFFFF000
7FFFFFFFF000
7FFFFFFFF000
FFFFFFFFE000
FFFFFFFFE000
FFFFFFFFC000
FFFFFFFFC000
FFFFFFFF8000
7FFFFFFF0000
3FFFFFF80000
1FFFFFF00000
0FFFFFC00000
07FFFF000000
01FFFC000000
001FC0000000
ENDCHAR
STARTCHAR 0074
ENCODING 116
SWIDTH 565 0
DWIDTH 44 0
BBX 44 53 9 0
BITMAP
000000001C00
01FFFFFFFF80
0FFFFFFFFFC0
1FFFFFFFFFE0
1FFFFFFFFFE0
1FFFFFFFFFF0
1FFFFFFFFFF0
1FFFFFFFFFF0
3FFFFFFFFFF0
3FFFFFFFFFF0
3FFFFFFFFFE0
3FFFFFFFFFE0
7FFFFFFFFFE0
7FFFFFFFFFE0
7FFFFFFFFFE0
FFFFFFFFC000
FFFCFFFE0000
FFC0FFFC0000
FC00FFF80000
0000FFF00000
0001FFE00000
0001FFE00000
0001FFC00000
0001FFC00000
0003FFC00000
0003FFC00000
0003FF800000
0003FF800000
0007FF800000
0007FF800000
0007FF800000
0007FF000000
000FFF000000
000FFF000000
000FFF000000
000FFE000000
001FFE000000
001FFE000000
001FFE000000
001FFC000000
001FFC000000
003FFC000000
003FFC000000
003FFC000000
003FFC000000
003FF8000000
007FF8000000
007FF8000000
007FF0000000
007FF0000000
007FF0000000
007FF0000000
007FF0000000
ENDCHAR
STARTCHAR 0075
ENCODING 117
SWIDTH 540 0
DWIDTH 42 0
BBX 46 52 6 1
BITMAP
000FC0001000
001FFC003FFC
001FFE007FFC
003FFC007FFC
003FFC007FFC
007FF8007FF8
007FF0007FF8
00FFF0007FF8
00FFF0007FF8
01FFF0007FF0
01FFE000FFF0
01FFE000FFF0
03FFE000FFE0
03FFC001FFE0
07FFC001FFE0
07FFC001FFE0
0FFF8003FFE0
0FFF8003FFE0
0FFF8003FFC0
1FFF8007FFC0
1FFF0007FFC0
1FFF000FFFC0
3FFF000FFFC0
3FFF000FFFC0
7FFF001FFFC0
7FFF001FFF80
7FFF801FFF80
7FFF803FFF80
7FFFC03FFF00
7FFFE07FFF00
7FFFFEFFFE00
FFFFFFFFFE00
FFFFFFFFFC00
FFFFFFFFFC00
FFFFFFFFF800
FFFFFFFFF800
FFFFFFFFF000
FFFFFFFFE000
FFFFFFFFE000
FFFFFFFFC000
7FFFFFFFC000
7FFFFFFF8000
7FFFFFFF0000
3FFFFFFE0000
3FFFFFFC0000
3FFFFFF80000
1FFFFFF00000
1FFFFFE00000
0FFFFF800000
03FFFF000000
007FFE000000
000C00000000
ENDCHAR
STARTCHAR 0076
ENCODING 118
SWIDTH 591 0
DWIDTH 46 0
BBX 44 50 12 2
BITMAP
000000000F00
70000001FFE0
FF00000FFFF0
FFF0001FFFE0
FFFF801FFFE0
7FFFC01FFFC0
3FFFE01FFFC0
3FFFF03FFFC0
3FFFF03FFFC0
3FFFE03FFF80
3FFFE03FFF80
3FFFE07FFF00
3FFFE07FFF00
3FFFE07FFF00
3FFFE0FFFE00
1FFFE0FFFE00
1FFFE0FFFC00
1FFFE1FFFC00
1FFFE1FFF800
1FFFE1FFF800
0FFFE3FFF000
0FFFE3FFF000
0FFFE3FFE000
0FFFE7FFE000
07FFE7FFC000
07FFFFFFC000
07FFFFFFC000
03FFFFFF8000
03FFFFFF8000
03FFFFFF0000
01FFFFFF0000
01FFFFFE0000
00FFFFFE0000
00FFFFFE0000
00FFFFFC0000
007FFFFC0000
007FFFF80000
003FFFF80000
003FFFF00000
001FFFF00000
001FFFF00000
000FFFE00000
000FFFE00000
0007FFE00000
0007FFC00000
0003FFC00000
0003FF800000
0001FF800000
0001FF800000
0000FC000000
ENDCHAR
STARTCHAR 0077
ENCODING 119
SWIDTH 720 0
DWIDTH 56 0
BBX 55 54 11 0
BITMAP
00000000000800
00000000001C04
1FFC0000003FFE
3FFE0000003FFE
7FFE003E007FFE
7FFF003E007FFC
FFFF007E00FFF8
FFFF007E01FFF8
FFFF007E01FFF0
FFFF007F03FFF0
FFFF00FF03FFE0
FFFF80FF07FFE0
FFFF80FF07FFC0
FFFF81FF0FFFC0
FFFF81FF0FFF80
FFFF81FF1FFF80
FFFF83FF3FFF00
FFFFC3FF3FFF00
7FFFC3FF3FFF00
7FFFC7FFFFFF00
7FFFC7FFFFFE00
7FFFEFFFFFFE00
7FFFEFFFFFFE00
3FFFFFFFFFFC00
3FFFFFFFFFFC00
3FFFFFFFFFF800
3FFFFFFFFFF800
1FFFFFFFFFF000
1FFFFFFFFFF000
1FFFFFFFFFF000
1FFFFFFFFFE000
0FFFFFFFFFE000
0FFFFF7FFFE000
0FFFFF7FFFC000
0FFFFE7FFFC000
07FFFC7FFF8000
07FFFC7FFF8000
07FFFC7FFF0000
03FFF87FFF0000
03FFF07FFF0000
03FFF03FFF0000
03FFE03FFE0000
01FFC03FFE0000
01FFC03FFE0000
01FF803FFC0000
00FF803FFC0000
00FF803FF80000
00FF003FF80000
007F003FF00000
007E003FF00000
007E001F800000
003C0000000000
003C0000000000
00180000000000
ENDCHAR
STARTCHAR 0078
ENCODING 120
SWIDTH 565 0
DWIDTH 44 0
BBX 49 52 5 1
BITMAP
0000000003C000
0000000007FF80
003FF8000FFF80
007FFC000FFF80
00FFF8001FFF80
01FFF8003FFF00
03FFFC007FFF00
03FFFC00FFFE00
03FFFC00FFFC00
03FFFE01FFF800
03FFFE03FFF800
03FFFE03FFF000
03FFFF07FFF000
03FFFF07FFE000
03FFFF0FFFC000
01FFFF1FFFC000
01FFFF1FFF8000
00FFFFBFFF0000
007FFFFFFF0000
007FFFFFFE0000
003FFFFFFE0000
001FFFFFFC0000
001FFFFFF80000
000FFFFFF00000
000FFFFFF00000
0007FFFFE00000
0007FFFFC00000
0007FFFFC00000
0003FFFF800000
0003FFFF800000
0003FFFF800000
000FFFFF800000
001FFFFF800000
003FFFFF800000
003FFFFF800000
007FFFFFC00000
00FFFFFFC00000
01FFFFFFC00000
01FFF7FFC00000
03FFE7FFC00000
07FFE3FFC00000
07FFE3FFE00000
0FFFC1FFE00000
1FFFC1FFE00000
1FFFC0FFE00000
3FFF80FFF00000
3FFF807FF00000
7FFF007FE00000
7FFF003F000000
FFFE0018000000
FFFC0000000000
60000000000000
ENDCHAR
STARTCHAR 0079
ENCODING 121
SWIDTH 604 0
DWIDTH 47 0
BBX 47 53 11 1
BITMAP
000000001FFE
000000007FFC
00380000FFF8
05FC00007FF8
3FFC0000FFF0
7FFE0001FFF0
FFFE0003FFE0
FFFE0007FFC0
7FFF0007FF80
7FFF000FFF80
7FFF000FFF00
7FFF801FFE00
3FFF803FFE00
3FFF807FFC00
3FFF807FF800
1FFF80FFF800
1FFFC1FFF000
1FFFC3FFE000
0FFFC3FFC000
0FFFC7FFC000
0FFFCFFF8000
0FFFEFFF0000
07FFFFFF0000
07FFFFFE0000
07FFFFFC0000
03FFFFFC0000
03FFFFF80000
03FFFFF00000
03FFFFF00000
01FFFFE00000
01FFFFC00000
01FFFFC00000
00FFFF800000
00FFFF000000
00FFFF000000
007FFC000000
007FFC000000
007FFC000000
003FFC000000
003FFC000000
003FFC000000
007FFC000000
007FF8000000
007FF8000000
007FF8000000
007FF8000000
00FFF8000000
00FFF8000000
00FFF8000000
00FFF8000000
00FFF8000000
00FFF0000000
00FE00000000
ENDCHAR
STARTCHAR 007A
ENCODING 122
SWIDTH 591 0
DWIDTH 46 0
BBX 40 54 10 0
BITMAP
000003FC00
00007FFFE0
000FFFFFFF
00FFFFFFFE
03FFFFFFFC
07FFFFFFF8
0FFFFFFFF0
1FFFFFFFE0
3FFFFFFFE0
3FFFFFFFC0
7FFFFFFF80
FFFFFFFF00
FFFFFFFE00
FFFFFFFE00
FFF03FFC00
80003FF800
00007FF800
0000FFF000
0000FFF000
0001FFE000
0001FFC000
0003FFC000
0003FF8000
0007FF8000
000FFF0000
000FFF0000
001FFE0000
001FFE0000
003FFC0000
003FFC0000
007FF80000
00FFF80000
00FFF00000
01FFF00000
01FFF00000
03FFE00000
03FFC00000
07FF800000
07FF000000
0FFF01FFFC
1FFEFFFFFC
1FFFFFFFFC
3FFFFFFFFC
3FFFFFFFFC
7FFFFFFFF8
7FFFFFFFF8
FFFFFFFFF0
FFFFFFFFE0
FFFFFFFFC0
C7FFFFFF80
00FFFFFE00
003FFFF800
0003FFC000
0000100000
ENDCHAR
STARTCHAR 007B
ENCODING 123
SWIDTH 347 0
DWIDTH 27 0
BBX 31 74 7 -9
BITMAP
00000038
000000F8
000001FC
000003FC
000007FC
00000FFE
00000FFE
00001FFE
00003FFE
00007FFE
0000FFF8
0000FFF0
0001FFC0
0001FF80
0003FF80
0003FF00
0003FE00
0007FE00
0007FC00
000FF800
000FF800
001FF000
001FF000
003FF000
003FE000
007FE000
007FE000
00FFC000
00FFC000
00FF8000
01FF8000
0FFF0000
3FFF0000
3FFF0000
7FFE0000
7FFE0000
FFFE0000
FFFF0000
FFFF0000
FFFF0000
7FFF0000
03FF0000
03FF0000
03FF0000
03FF0000
03FF0000
03FF0000
03FF0000
07FF0000
07FF0000
07FE0000
07FE0000
07FE0000
07FE0000
07FC0000
0FFC0000
0FFC0000
0FFE0000
0FFE0000
0FFC0000
0FFC0000
1FFC0000
1FFE0000
1FFF0000
1FFFC000
0FFFC000
0FFFC000
07FF8000
07FF8000
03FF8000
01FF0000
00FE0000
007E0000
001C0000
ENDCHAR
STARTCHAR 007C
ENCODING 124
SWIDTH 180 0
DWIDTH 14 0
BBX 27 78 0 -12
BITMAP
0000FC00
0000FFE0
0000FFE0
0001FFC0
0001FFC0
0001FFC0
0001FFC0
0003FFC0
0003FF80
0003FF80
0007FF80
0007FF80
0007FF80
0007FF00
000FFF00
000FFF00
000FFF00
000FFE00
000FFE00
001FFE00
001FFE00
001FFE00
001FFE00
001FFC00
003FFC00
003FFC00
003FFC00
003FFC00
003FF800
007FF800
007FF800
007FF000
007FF000
00FFF000
00FFF000
00FFF000
00FFE000
00FFE000
01FFE000
01FFE000
01FFE000
01FFE000
01FFC000
03FFC000
03FFC000
03FFC000
03FFC000
07FF8000
07FF8000
07FF8000
07FF0000
07FF0000
0FFF0000
0FFF0000
0FFF0000
0FFE0000
0FFE0000
0FFE0000
1FFE0000
1FFE0000
0FFC0000
1FFC0000
1FFC0000
1FFC0000
3FF80000
3FF80000
3FF80000
3FF80000
7FF00000
7FF00000
7FF00000
7FF00000
7FF00000
FFE00000
FFE00000
FFE00000
FFE00000
FF000000
ENDCHAR
STARTCHAR 007D
ENCODING 125
SWIDTH 347 0
DWIDTH 27 0
BBX 32 74 1 -9
BITMAP
00007C00
0000FE00
0000FF00
0001FF80
0001FFC0
0003FFC0
0003FFE0
0003FFF0
0003FFF0
0003FFF0
0000FFF0
00007FF0
00007FF0
00007FF0
00007FF0
00007FE0
00007FE0
00007FE0
00007FE0
00007FE0
00007FE0
00007FE0
0000FFC0
0000FFC0
0000FFC0
0000FFC0
0000FFC0
0000FFC0
0000FFC0
0000FFC0
0000FFC0
0000FFC0
0000FFDC
0000FFFE
0000FFFE
0000FFFF
0000FFFE
0000FFFE
00007FFE
0000FFFC
0000FFFC
0001FFF8
0001FFE0
0003FF00
0003FF00
0003FF00
0007FE00
0007FC00
000FFC00
000FF800
000FF800
001FF000
001FF000
003FE000
003FE000
007FE000
007FC000
00FFC000
01FF8000
01FF8000
03FF8000
07FF0000
1FFF0000
3FFE0000
7FFC0000
FFFC0000
FFF00000
7FF00000
7FE00000
7FC00000
7F800000
3F800000
3E000000
18000000
ENDCHAR
STARTCHAR 007E
ENCODING 126
SWIDTH 475 0
DWIDTH 37 0
BBX 38 17 5 18
BITMAP
003F801FFC
00FFC01FFC
01FFE03FFC
03FFF03FFC
07FFFC7FFC
0FFFFFFFF8
1FFFFFFFF8
1FFFFFFFF8
3FFFFFFFF8
3FFFFFFFF0
3FFFFFFFF0
3FFFFFFFC0
7FFFFFFF80
7FE3FFFF00
7FE1FFFE00
7FC0FFFC00
FFC03FF000
ENDCHAR
STARTCHAR 00A0
ENCODING 160
SWIDTH 308 0
DWIDTH 24 0
BBX 0 0 0 0
BITMAP
ENDCHAR
STARTCHAR 00A1
ENCODING 161
SWIDTH 295 0
DWIDTH 23 0
BBX 29 59 -2 -15
BITMAP
00000200
00001FE0
00003FF8
00007FF8
0000FFF8
0001FFF8
0001FFF8
0001FFF0
0003FFF0
0003FFF0
0003FFF0
0003FFE0
0001FFC0
0000FF80
00001E00
00000000
00000000
00000000
00000000
00000000
0007F800
000FFE00
000FFE00
001FFE00
001FFE00
001FFE00
003FFE00
003FFE00
003FFE00
007FFE00
007FFC00
007FFC00
00FFFC00
00FFFC00
00FFFC00
01FFFC00
01FFFC00
01FFF800
03FFF800
03FFF800
07FFF800
07FFF800
07FFF800
0FFFF800
0FFFF800
0FFFF800
1FFFF800
1FFFF800
1FFFF800
3FFFF800
3FFFF800
3FFFF800
3FFFF800
7FFFF800
7FFFF800
7FFFF800
7FFFF800
FFFFF800
07FFF000
ENDCHAR
STARTCHAR 00A2
ENCODING 162
SWIDTH 501 0
DWIDTH 39 0
BBX 42 67 5 -7
BITMAP
00000000E000
00000001FFC0
00000001FFC0
00000003FF80
00000003FF80
00000003FF00
00000007FF00
00000007FF00
0000007FFE00
00001FFFFE00
00007FFFFC00
0000FFFFFE00
0003FFFFFF00
0007FFFFFF80
000FFFFFFF80
001FFFFFFF80
003FFFFFFF80
003FFFFFFF80
007FFFFFFF80
00FFFFFFFF00
01FFFFFFFF00
01FFFFFFFF00
03FFFFFFFF00
03FFFFFFFE00
07FFFFFFFE00
07FFFFFFFE00
0FFFE7FFFC00
0FFFCFFE7C00
1FFF8FFC0800
1FFF1FFC0000
1FFE1FFC0000
3FFE3FF80000
3FFC3FF80000
3FFC3FF00000
3FF87FF00000
7FF87FE00000
7FF8FFE00000
7FF8FFE00000
7FF9FFC00000
7FF9FFC00000
FFFFFF800000
FFFFFF800000
FFFFFF000000
FFFFFF000000
FFFFFF1FE000
7FFFFFFFE000
7FFFFFFFE000
7FFFFFFFE000
7FFFFFFFE000
7FFFFFFFE000
3FFFFFFFE000
3FFFFFFFE000
1FFFFFFFC000
0FFFFFFFC000
0FFFFFFF8000
03FFFFFE0000
00FFFFFC0000
00FFFFF00000
01FFFFC00000
01FFF8000000
03FF80000000
03FF00000000
03FF00000000
07FE00000000
07FE00000000
03FE00000000
007C00000000
ENDCHAR
STARTCHAR 00A3
ENCODING 163
SWIDTH 540 0
DWIDTH 42 0
BBX 47 53 3 0
BITMAP
00000003F800
0000001FFF00
0000003FFFC0
0000007FFFE0
000000FFFFF0
000003FFFFF8
000007FFFFF8
00000FFFFFFC
00001FFFFFFC
00003FFFFFFE
00003FFFFFFE
00003FFC7FFE
0000FFFE7FFC
0000FFFE7FFC
0001FFFC3FFC
0001FFF83FFC
0001FFF83FF8
0003FFF81F80
0003FFF00000
0007FFF00000
0007FFF00000
0007FFE00000
07FFFFFFFC00
07FFFFFFFC00
07FFFFFFFC00
0FFFFFFFFC00
0FFFFFFFFC00
0FFFFFFFFC00
1FFFFFFFF800
1FFFFFFFF800
1FFFFFFFF800
003FFF818000
003FFF800000
003FFF800000
003FFF800000
003FFF800000
003FFF000000
007FFF000000
007FFF000000
007FFF000000
3FFFFFFE0780
7FFFFFFFFF80
7FFFFFFFFF80
7FFFFFFFFF00
7FFFFFFFFF00
7FFFFFFFFE00
FFFFFFFFFE00
FFFFFFFFFE00
FFFFFFFFFC00
FFFFFFFFFC00
3FFFFFFFF800
07FFFFFFF000
00800FFC0000
ENDCHAR
STARTCHAR 00A4
ENCODING 164
SWIDTH 437 0
DWIDTH 34 0
BBX 36 33 5 11
BITMAP
0000000200
001C000600
003E001F00
007F003F80
00FFFE7FC0
03FFFFFFC0
07FFFFFFE0
0FFFFFFFF0
0FFFFFFFE0
07FFFFFFC0
07FFFFFF80
03FF87FF00
01FF07FE00
01FE03FC00
01FE03F800
01FC03FC00
03FC03F800
03F807F800
03F807F800
03F807F000
03FC0FF000
07FC1FF800
0FFE3FFC00
3FFFFFFE00
7FFFFFFF00
FFFFFFFF00
FFFFFFFE00
7FFFFFFC00
3FFFFFF800
1FE00FF000
0F8007C000
0700038000
0200000000
ENDCHAR
STARTCHAR 00A5
ENCODING 165
SWIDTH 604 0
DWIDTH 47 0
BBX 51 53 7 1
BITMAP
0000000001FFE0
0000000007FFC0
000380000FFF80
005FC00007FF80
03FFC0000FFF00
07FFE0001FFF00
0FFFE0003FFE00
0FFFE0007FFC00
07FFF0007FF800
07FFF000FFF800
07FFF000FFF000
07FFF801FFE000
03FFF803FFE000
03FFF807FFC000
03FFF807FF8000
01FFF80FFF8000
01FFFC1FFF0000
01FFFC3FFE0000
00FFFC3FFC0000
00FFFC7FFC0000
00FFFCFFF80000
00FFFEFFF00000
007FFFFFFE0000
07FFFFFFFE0000
07FFFFFFFE0000
0FFFFFFFFE0000
0FFFFFFFFE0000
0FFFFFFFFC0000
0FFFFFFFFC0000
1FFFFFFFFC0000
1FFFFFFFFC0000
1FFFFFFFFC0000
3FFFFFFC600000
07FFFFF0000000
000FFFF0000000
0007FFC0000000
1FFFFFFFF80000
3FFFFFFFF80000
3FFFFFFFF80000
3FFFFFFFF00000
3FFFFFFFF00000
3FFFFFFFF00000
7FFFFFFFF00000
7FFFFFFFF00000
7FFFFFFFF00000
FFFFFFC0000000
0C0FFF80000000
000FFF80000000
000FFF80000000
000FFF80000000
000FFF80000000
000FFF00000000
000FE000000000
ENDCHAR
STARTCHAR 00A6
ENCODING 166
SWIDTH 180 0
DWIDTH 14 0
BBX 28 78 -1 -12
BITMAP
00007FF0
00007FF0
0000FFF0
0000FFE0
0001FFE0
0001FFE0
0001FFE0
0001FFE0
0001FFE0
0001FFC0
0003FFC0
0003FFC0
0003FF80
0003FF80
0003FF80
0007FF80
0007FF80
0007FF80
0007FF00
0007FF00
000FFF00
000FFF00
000FFF00
000FFE00
000FFE00
001FFE00
001FFE00
001FFC00
001FFC00
001FFC00
001FFC00
003FF800
003FF800
003FF800
00060000
00000000
00000000
00000000
00000000
00000000
00000000
00000000
00000000
00000000
01FFC000
01FFC000
01FFC000
01FFC000
03FF8000
03FF8000
03FF8000
07FF8000
07FF8000
07FF8000
07FF0000
0FFF0000
0FFF0000
0FFF0000
0FFF0000
0FFE0000
0FFE0000
1FFE0000
1FFE0000
1FFE0000
1FFC0000
1FFC0000
3FFC0000
3FFC0000
3FFC0000
3FF80000
3FF80000
7FF80000
7FF80000
7FF80000
7FF00000
7FF00000
FFE00000
3FE00000
ENDCHAR
STARTCHAR 00A7
ENCODING 167
SWIDTH 501 0
DWIDTH 39 0
BBX 37 67 7 -6
BITMAP
0000004000
00000FFE00
00003FFF80
00007FFFC0
0001FFFFE0
0007FFFFF0
000FFFFFF8
001FFFFFF8
003FFFFFF8
003FFFFFF8
003FFFFFF8
007FFFFFF0
007FFFFFF0
007FFFCFE0
00FFFE03E0
00FFFC0180
00FFFC0000
007FFC0000
007FFC0000
007FFE0000
00FFFF0000
03FFFFC000
03FFFFF800
07FFFFFE00
07FFFFFF80
0FFFFFFFC0
0FFFFFFFE0
1FFFFFFFE0
3FFFFFFFF0
3FFFFFFFF0
7FFFC7FFF8
7FFE01FFF8
FFF801FFF8
FFF800FFF8
FFF800FFF0
FFFC03FFF0
FFFE0FFFF0
FFFFFFFFE0
7FFFFFFFC0
7FFFFFFFC0
3FFFFFFF80
1FFFFFFF80
0FFFFFFF00
03FFFFFF00
00FFFFFE00
001FFFFE00
0007FFFC00
0003FFF000
0001FFF000
0001FFF000
0001FFF000
0003FFF800
1C03FFF000
3F0FFFF000
7FFFFFF000
7FFFFFF000
FFFFFFE000
FFFFFFE000
FFFFFFC000
FFFFFFC000
FFFFFF8000
7FFFFF0000
7FFFFC0000
3FFFF80000
1FFFE00000
07FF800000
00FC000000
ENDCHAR
STARTCHAR 00A8
ENCODING 168
SWIDTH 308 0
DWIDTH 24 0
BBX 23 9 13 54
BITMAP
0E00F8
1F81FC
3F83FE
7F83FC
7F83FC
FF83F8
7F03F8
3E01E0
080000
ENDCHAR
STARTCHAR 00A9
ENCODING 169
SWIDTH 668 0
DWIDTH 52 0
BBX 52 49 6 3
BITMAP
0000001FFE0000
000003FFFFC000
00001FFFFFF800
0000FFFFFFFC00
0003FFFFFFFF00
000FFFFFFFFF00
001FFFFFFFFF80
003FFFFFFFFF80
007FFF800FFFC0
00FFFC0007FFC0
00FFF00001FFC0
01FFC00000FFE0
03FF800E00FFE0
03FE00FFC07FE0
07FC03FFE03FE0
0FF807FFF03FE0
0FF007FFF03FE0
1FF00FFFE01FE0
1FE01FFFE01FE0
1FC03FFFE01FF0
3FC03FFFE01FF0
3F807FE1C01FE0
3F807FC0001FE0
7F807F80003FE0
7F80FF00003FE0
7F00FF00003FC0
7F00FF00003FC0
7F00FF00003FC0
FF00FF00007F80
FF80FF00007F80
FF80FF80007F00
FF80FFFF00FF00
FF80FFFF00FE00
FF80FFFF01FE00
FFC07FFF01FC00
FFC07FFE01FC00
7FE01FFC03F800
7FE007F007F000
7FF000001FE000
7FF800007FC000
3FFC0003FF8000
3FFF001FFF0000
1FFFFFFFFE0000
1FFFFFFFFC0000
0FFFFFFFF00000
07FFFFFFC00000
03FFFFFF800000
00FFFFFE000000
001FFFF0000000
ENDCHAR
STARTCHAR 00AA
ENCODING 170
SWIDTH 321 0
DWIDTH 25 0
BBX 23 27 7 25
BITMAP
000030
0000F0
0001F0
0003F0
0003F0
0007F0
0007F0
000FF0
000FF0
001FF0
003FF8
003FF8
007FF8
00FFF8
00F7F8
01E3F8
03C3F8
03C3F8
07FFF8
0FFFFC
0FFFFC
1FE7FC
3F87FC
3F07FC
7F07FE
7E07FE
FE03FE
ENDCHAR
STARTCHAR 00AB
ENCODING 171
SWIDTH 475 0
DWIDTH 37 0
BBX 39 35 4 1
BITMAP
0000040002
00003C0006
00007C001E
0001F8003E
0003F8007E
0007F801FC
000FF003FC
003FF00FFC
007FF01FFC
00FFF07FFC
01FFF0FFF8
03FFE3FFF8
07FFEFFFF8
0FFF8FFFF0
1FFE1FFF00
3FF81FF800
7FE01FE000
7F001FC000
7F803FF000
7FE03FF800
7FFC1FFE00
FFFF9FFF80
7FFF8FFFC0
3FFF87FFC0
1FFF87FFC0
0FFF83FFC0
07FF81FFC0
01FF01FF80
00FF00FF80
00FF007F80
007F003F80
003E003F80
001E001F80
000E000F00
0004000300
ENDCHAR
STARTCHAR 00AC
ENCODING 172
SWIDTH 475 0
DWIDTH 37 0
BBX 37 21 6 13
BITMAP
0000004000
1FFFFFFFF8
3FFFFFFFF8
3FFFFFFFF0
3FFFFFFFF0
3FFFFFFFF0
7FFFFFFFF0
7FFFFFFFF0
7FFFFFFFF0
7FFFFFFFE0
FFFFFFFFE0
FFFFFFFFE0
1C0001FFE0
000001FFC0
000001FFC0
000003FFC0
000003FF80
000003FF80
000003FF80
000003FF80
0000008F00
ENDCHAR
STARTCHAR 00AD
ENCODING 173
SWIDTH 385 0
DWIDTH 30 0
BBX 30 13 6 21
BITMAP
00000800
3FFFFFFC
3FFFFFFC
3FFFFFF8
3FFFFFF8
3FFFFFF8
7FFFFFF8
7FFFFFF8
7FFFFFF8
7FFFFFF0
FFFFFFF0
FFFFFFF0
18000000
ENDCHAR
STARTCHAR 00AE
ENCODING 174
SWIDTH 450 0
DWIDTH 35 0
BBX 33 33 9 22
BITMAP
0003FF8000
001FFFE000
007FFFF000
00FFFFFC00
03FFFFFE00
03FC00FE00
07F0003F00
0FE0F01F00
1FCFFC0F80
1F8FFE0F80
3F0F8E0F80
3F0F860F80
7E1F8E0F80
7E1F9E0F80
7C1FFC0F80
7C1FF80F80
F81FF00F80
F81FF81F80
F81FF81F80
F83FBC1F00
F83F3C3F00
FC3F3C7E00
FC3F3E7E00
FE3F1EFC00
FF0001FC00
7F8007F800
7FC00FF000
3FFE7FF000
3FFFFFE000
1FFFFFC000
07FFFF0000
00FFF80000
0007800000
ENDCHAR
STARTCHAR 00AF
ENCODING 175
SWIDTH 321 0
DWIDTH 25 0
BBX 24 8 13 55
BITMAP
010080
3FFFFF
7FFFFF
7FFFFF
7FFFFF
7FFFFE
FFFFFE
3C0000
ENDCHAR
STARTCHAR 00B0
ENCODING 176
SWIDTH 321 0
DWIDTH 25 0
BBX 24 26 10 30
BITMAP
000300
003FE0
00FFF0
03FFF8
07FFFC
0FFFFE
1FFFFE
1FF1FF
3FC1FF
7F80FF
7F80FF
7F00FF
FF00FE
FF00FE
FF01FE
FF01FE
FF03FC
FF03FC
FF8FF8
FFFFF0
7FFFE0
3FFFC0
3FFF80
1FFF00
0FFC00
03F000
ENDCHAR
STARTCHAR 00B1
ENCODING 177
SWIDTH 475 0
DWIDTH 37 0
BBX 40 46 2 -1
BITMAP
000007FE00
00000FFE00
00000FFE00
00000FFE00
00001FFC00
00001FFC00
00001FFC00
00001FFC00
00001FF800
00003FF800
00003FF800
00003FF800
03FFFFFFFF
03FFFFFFFF
03FFFFFFFF
03FFFFFFFF
07FFFFFFFF
07FFFFFFFF
07FFFFFFFE
07FFFFFFFE
0FFFFFFFFE
0FFFFFFFFE
0FE7FFFFFC
0001FFC000
0001FFC000
0001FFC000
0001FFC000
0001FFC000
0001FFC000
0003FF8000
0003FF8000
0003FF8000
0003FF8000
00001F0000
0000000000
0000000000
3CFFFFFF80
7FFFFFFFE0
7FFFFFFFE0
FFFFFFFFC0
FFFFFFFFC0
FFFFFFFFC0
FFFFFFFFC0
FFFFFFFF80
FFFFFFFF80
013F800000
ENDCHAR
STARTCHAR 00B2
ENCODING 178
SWIDTH 270 0
DWIDTH 21 0
BBX 19 27 9 27
BITMAP
007800
01FE00
03FF00
07FF80
1FFF80
1FFF80
1FBF80
0F1F80
0C1F00
001F00
003E00
003E00
007C00
007C00
00F800
01F020
03FFE0
03FFC0
07FFC0
0FFFC0
1FFF80
3FFF80
7FFF00
FFFF00
FFFE00
7FE000
020000
ENDCHAR
STARTCHAR 00B3
ENCODING 179
SWIDTH 244 0
DWIDTH 19 0
BBX 18 27 8 26
BITMAP
003600
03FE00
07FF00
07FE00
07FE00
003C00
007C00
00F800
01F000
03FC00
07FF00
0FFF80
0FFFC0
0FFFC0
000FC0
0007C0
0007C0
0007C0
0007C0
000F80
001F80
F0FF00
FFFF00
FFFE00
3FFC00
1FF000
01C000
ENDCHAR
STARTCHAR 00B4
ENCODING 180
SWIDTH 231 0
DWIDTH 18 0
BBX 18 12 13 55
BITMAP
00FFC0
01FFC0
03FF80
03FF00
07FE00
0FFC00
1FF800
3FF000
3FC000
7F8000
FF8000
1F0000
ENDCHAR
STARTCHAR 00B5
ENCODING 181
SWIDTH 540 0
DWIDTH 42 0
BBX 49 54 -1 -12
BITMAP
00000000003C00
000FFE000FFE00
001FFF003FFE00
001FFF003FFE00
001FFE003FFE00
003FFE001FFF00
003FFC001FFF00
003FFC001FFF00
003FFC001FFF00
007FF8003FFF80
007FF8003FFF80
007FF8003FFF80
007FF8003FFF80
00FFF8007FFF00
00FFF8007FFF00
00FFF8007FFF00
00FFF800FFFF00
00FFF800FFFE00
01FFF801FFFE00
01FFF803FFFE00
01FFFC03FFFC00
01FFFC07FFFC00
01FFFC1FFFFC00
03FFFFFFFFF800
03FFFFFFFFF800
03FFFFFFFFF800
03FFFFFFFFF000
07FFFFFFFFF000
07FFFFFFFFE000
07FFFFFFFFC000
07FFFFFFFFC000
07FFFFFFFF8000
0FFFFFFFFF0000
0FFFFFFFFE0000
0FFFFFFFFE0000
0FFFFFFFFC0000
0FFFFFFFF80000
0FFFFFFFE00000
1FFFFFFF800000
1FFEFFFC000000
1FFC0060000000
1FFC0000000000
3FFC0000000000
3FFC0000000000
3FFC0000000000
3FF80000000000
3FF80000000000
7FF80000000000
7FF80000000000
7FF80000000000
7FF00000000000
7FF00000000000
FFE00000000000
0FE00000000000
ENDCHAR
STARTCHAR 00B6
ENCODING 182
SWIDTH 385 0
DWIDTH 30 0
BBX 32 61 8 -6
BITMAP
0001FFFF
000FFFFF
007FFFFF
00FFFFFF
01FFFFFF
03FFFFFF
07FFFFFE
0FFFFFFE
0FFFFFFE
1FFFFFFE
1FFFFFFE
1FFFE1FC
3FFFE1FC
3FFFC1FC
3FFFC1FC
3FFFC3FC
3FFFC3F8
3FFFC3F8
7FFF87F8
7FFF87F8
7FFF87F8
7FFF87F0
7FFF8FF0
FFFF0FF0
FFFF0FF0
FFFF0FF0
FFFF0FF0
7FFF1FE0
7FFF1FE0
3FFE1FE0
3FFE1FC0
0FFE3FC0
03FE3FC0
03FE3FC0
03FC3F80
03FC3F80
03FC7F80
03FC7F80
07FC7F80
07F87F80
07F87F80
07F8FF00
07F8FF00
07F8FF00
0FF0FF00
0FF1FE00
0FF1FE00
0FF1FE00
1FF3FE00
1FE3FC00
1FE3FC00
1FE3FC00
1FE3FC00
3FE3FC00
3FC3F800
3FC3F800
3FC3F800
7FC7F800
7F87F800
7F87F000
79070000
ENDCHAR
STARTCHAR 00B7
ENCODING 183
SWIDTH 205 0
DWIDTH 16 0
BBX 14 15 7 20
BITMAP
00F0
07F8
1FF8
3FFC
7FFC
7FFC
FFFC
FFFC
FFFC
FFFC
FFF8
7FF0
7FE0
3F80
0E00
ENDCHAR
STARTCHAR 00B8
ENCODING 184
SWIDTH 295 0
DWIDTH 23 0
BBX 22 16 -1 -13
BITMAP
007F80
00FF80
00FF80
00FF80
00FFC0
007FE0
003FF0
001FF8
000FFC
3807FC
7F8FFC
FFFFF8
FFFFF8
FFFFF0
3FFFE0
0FFF00
ENDCHAR
STARTCHAR 00B9
ENCODING 185
SWIDTH 218 0
DWIDTH 17 0
BBX 14 25 11 28
BITMAP
0078
01FC
07FC
0FFC
3FFC
FFFC
7DF8
3DF8
3BF8
13F8
07F8
07F8
07F0
0FF0
0FF0
0FF0
1FF0
1FF0
1FF0
3FF0
3FE0
3FE0
7FE0
7FE0
3FF0
ENDCHAR
STARTCHAR 00BA
ENCODING 186
SWIDTH 282 0
DWIDTH 22 0
BBX 19 27 10 27
BITMAP
00F800
01FC00
03FE00
07FF80
07FF80
0FFFC0
1FFFC0
1FFFE0
3FFFE0
7FFFE0
7F8FE0
FF0FE0
FE0FE0
FE0FE0
FE0FE0
FE1FE0
FF3FE0
FFFFC0
FFFFC0
FFFFC0
FFFF80
FFFF80
FFFF00
7FFE00
7FFE00
1FF800
07E000
ENDCHAR
STARTCHAR 00BB
ENCODING 187
SWIDTH 475 0
DWIDTH 37 0
BBX 39 35 2 1
BITMAP
0180000000
01E000C000
03F000E000
03F800F000
03F801F800
03FC01FC00
03FE01FE00
03FE01FF00
03FF01FF80
07FF83FFC0
07FF83FFE0
07FFC3FFF0
07FFE3FFFC
03FFE3FFFE
00FFF0FFFC
003FF01FFC
000FF007FC
0007F003FC
001FF007FC
007FE01FF8
03FFE07FF8
1FFFE3FFF0
3FFF87FFE0
3FFF0FFFC0
3FFC0FFF00
3FF81FFE00
7FE01FFC00
7FC01FF800
7F801FF000
7E003FE000
FC003FC000
F8003F8000
E0007E0000
C0007C0000
0000700000
ENDCHAR
STARTCHAR 00BC
ENCODING 188
SWIDTH 565 0
DWIDTH 44 0
BBX 45 55 5 -1
BITMAP
000000000180
0001E00003F0
0007F00007F8
001FF0000FF8
003FF0001FF0
00FFF0001FF0
03FFF0003FE0
01F7E0007FC0
00F7E000FFC0
00EFE000FF80
004FE001FF00
001FE003FE00
001FE003FE00
001FC007FC00
003FC00FF800
003FC01FF000
003FC03FF000
007FC03FE000
007FC07FC000
007FC0FF8000
00FFC1FF0000
00FF83FF0000
00FF83FE0000
01FF87FC0000
01FF8FF80000
00FFDFF00000
00003FF00000
00003FE00000
00007FC07800
0000FF81F000
0001FF03F000
0003FF03E000
0003FE07E000
0007FC07C000
000FF807C000
001FF00F8000
003FE00F8000
003FE01F0000
007FC01FFF80
00FF803FFF80
01FF003FFF80
03FE007FFF00
03FC007FFF00
07FC00FFFC00
0FF800E1F000
1FF00001F000
3FE00003E000
7FC00003E000
7F800007E000
FF000007E000
FF00000FE000
FE00000FE000
7C00001FE000
0000003FE000
0000003FC000
ENDCHAR
STARTCHAR 00BD
ENCODING 189
SWIDTH 565 0
DWIDTH 44 0
BBX 45 53 5 1
BITMAP
000000000180
0001E00003F0
0007F00007F8
001FF0000FF8
003FF0001FF0
00FFF0001FF0
03FFF0003FE0
01F7E0007FC0
00F7E000FFC0
00EFE000FF80
004FE001FF00
001FE003FE00
001FE003FE00
001FC007FC00
003FC00FF800
003FC01FF000
003FC03FF000
007FC03FE000
007FC07FC000
007FC0FF8000
00FFC1FF0000
00FF83FF0000
00FF83FE0000
01FF87FC0000
01FF8FF80000
00FFDFF00000
00003FF00000
00003FE7E000
00007FCFF800
0000FF9FFC00
0001FF7FFC00
0003FFFFFC00
0003FEFFFC00
0007FCFDFC00
000FF8707C00
001FF020FC00
003FE000F800
003FE001F000
007FC001F000
00FF8003E000
01FF0003E000
03FE0007C000
03FC000F8300
07FC001FFF00
0FF8001FFF00
1FF0003FFE00
3FE0007FFE00
7FC000FFFC00
7F8001FFFC00
FF0003FFF800
FF0007FFF800
FE0007FFC000
7C0000FE0000
ENDCHAR
STARTCHAR 00BE
ENCODING 190
SWIDTH 565 0
DWIDTH 44 0
BBX 45 55 5 -1
BITMAP
000000000180
0006C00003F0
007FC00007F8
00FFE0000FF8
00FFC0001FF0
00FFC0001FF0
000780003FE0
000F80007FC0
001F0000FFC0
003E0000FF80
007F8001FF00
00FFE003FE00
01FFF003FE00
01FFF807FC00
01FFF80FF800
0001F81FF000
0000F83FF000
0000F83FE000
0000F87FC000
0000F8FF8000
0001F1FF0000
0003F3FF0000
1E1FE3FE0000
1FFFE7FC0000
1FFFCFF80000
07FF9FF00000
03FE3FF00000
00383FE00000
00007FC07800
0000FF81F000
0001FF03F000
0003FF03E000
0003FE07E000
0007FC07C000
000FF807C000
001FF00F8000
003FE00F8000
003FE01F0000
007FC01FFF80
00FF803FFF80
01FF003FFF80
03FE007FFF00
03FC007FFF00
07FC00FFFC00
0FF800E1F000
1FF00001F000
3FE00003E000
7FC00003E000
7F800007E000
FF000007E000
FF00000FE000
FE00000FE000
7C00001FE000
0000003FE000
0000003FC000
ENDCHAR
STARTCHAR 00BF
ENCODING 191
SWIDTH 462 0
DWIDTH 36 0
BBX 35 56 0 -15
BITMAP
0000001F00
000000FF80
000001FFC0
000003FFC0
000007FFE0
000007FFE0
000007FFE0
000007FFC0
000007FFC0
000007FF80
000007FF00
000003FC00
000001E000
0000000000
0000000000
0000000000
0000000000
0000007800
00000FFE00
00001FFE00
00001FFE00
00001FFE00
00003FFE00
00007FFC00
0000FFFC00
0003FFFC00
0007FFFC00
001FFFF800
007FFFF800
01FFFFF000
03FFFFE000
07FFFFC000
07FFF80000
0FFFE00000
0FFF800000
1FFF000000
1FFE000000
3FFE000000
3FFE000000
3FFC000000
7FFC000F00
7FFC001F80
7FFC007FC0
7FFE01FFC0
7FFFDFFFC0
FFFFFFFFC0
FFFFFFFF80
FFFFFFFF80
FFFFFFFF00
FFFFFFFF00
7FFFFFFE00
7FFFFFFC00
7FFFFFF800
3FFFFFF000
07FFFFC000
003FFF0000
ENDCHAR
STARTCHAR 00C0
ENCODING 192
SWIDTH 630 0
DWIDTH 49 0
BBX 47 69 1 -2
BITMAP
0000001FF800
0000003FF800
0000001FF800
0000001FFC00
0000000FFC00
00000007FE00
00000007FE00
00000003FE00
00000001FF00
00000001FF00
00000000FF00
00000000F800
000000000000
000000000000
000000000300
000000007F00
00000000FF00
00000001FF80
00000001FF80
00000003FF80
00000003FF80
00000007FF80
00000007FF80
0000000FFF80
0000001FFF80
0000001FFF80
0000003FFF80
0000003FFF80
0000007FFF80
000000FFFF80
000000FFFF80
000001FFFF80
000001FFFF80
000003FFFFC0
000007FFFFC0
000007FFFFC0
00000FFFFFC0
00000FFFFFC0
00001FFFFFC0
00003FFFFFC0
00003FFFFFC0
00007FFFFFC0
0000FF9FFFC0
0000FF0FFFC0
0001FE0FFFC0
0003FE0FFFE0
0003FC0FFFE0
0007F807FFE0
000FF007FFE0
000FE00FFFE0
001FF1FFFFE0
003FFFFFFFE0
003FFFFFFFF0
007FFFFFFFF0
00FFFFFFFFF0
00FFFFFFFFF0
01FFFF1FFFF0
03FFF01FFFF8
03FFE01FFFF8
07FFC01FFFF8
0FFF801FFFF8
0FFF801FFFFC
1FFF001FFFFC
1FFF001FFFFC
3FFF001FFFFC
7FFE000FFFFE
7FFE000FFFFE
FFF8000F000C
F00000000000
ENDCHAR
STARTCHAR 00C1
ENCODING 193
SWIDTH 630 0
DWIDTH 49 0
BBX 52 69 1 -2
BITMAP
00000000003FF0
00000000007FF0
0000000000FFE0
0000000001FFC0
0000000003FF80
0000000007FE00
0000000007FC00
000000000FF800
000000001FF000
000000001FE000
000000003FC000
00000000078000
00000000000000
00000000000000
00000000030000
000000007F0000
00000000FF0000
00000001FF8000
00000001FF8000
00000003FF8000
00000003FF8000
00000007FF8000
00000007FF8000
0000000FFF8000
0000001FFF8000
0000001FFF8000
0000003FFF8000
0000003FFF8000
0000007FFF8000
000000FFFF8000
000000FFFF8000
000001FFFF8000
000001FFFF8000
000003FFFFC000
000007FFFFC000
000007FFFFC000
00000FFFFFC000
00000FFFFFC000
00001FFFFFC000
00003FFFFFC000
00003FFFFFC000
00007FFFFFC000
0000FF9FFFC000
0000FF0FFFC000
0001FE0FFFC000
0003FE0FFFE000
0003FC0FFFE000
0007F807FFE000
000FF007FFE000
000FE00FFFE000
001FF1FFFFE000
003FFFFFFFE000
003FFFFFFFF000
007FFFFFFFF000
00FFFFFFFFF000
00FFFFFFFFF000
01FFFF1FFFF000
03FFF01FFFF800
03FFE01FFFF800
07FFC01FFFF800
0FFF801FFFF800
0FFF801FFFFC00
1FFF001FFFFC00
1FFF001FFFFC00
3FFF001FFFFC00
7FFE000FFFFE00
7FFE000FFFFE00
FFF8000F000C00
F0000000000000
ENDCHAR
STARTCHAR 00C2
ENCODING 194
SWIDTH 630 0
DWIDTH 49 0
BBX 49 69 1 -2
BITMAP
0000000007C000
000000001FE000
000000007FF000
00000000FFF800
00000003FFFC00
00000007FFFE00
0000000FFFFF00
0000001FFFFF80
0000003FF9FF80
0000007FE0FF80
0000003FC07F00
0000001C003E00
00000000000000
00000000000000
00000000030000
000000007F0000
00000000FF0000
00000001FF8000
00000001FF8000
00000003FF8000
00000003FF8000
00000007FF8000
00000007FF8000
0000000FFF8000
0000001FFF8000
0000001FFF8000
0000003FFF8000
0000003FFF8000
0000007FFF8000
000000FFFF8000
000000FFFF8000
000001FFFF8000
000001FFFF8000
000003FFFFC000
000007FFFFC000
000007FFFFC000
00000FFFFFC000
00000FFFFFC000
00001FFFFFC000
00003FFFFFC000
00003FFFFFC000
00007FFFFFC000
0000FF9FFFC000
0000FF0FFFC000
0001FE0FFFC000
0003FE0FFFE000
0003FC0FFFE000
0007F807FFE000
000FF007FFE000
000FE00FFFE000
001FF1FFFFE000
003FFFFFFFE000
003FFFFFFFF000
007FFFFFFFF000
00FFFFFFFFF000
00FFFFFFFFF000
01FFFF1FFFF000
03FFF01FFFF800
03FFE01FFFF800
07FFC01FFFF800
0FFF801FFFF800
0FFF801FFFFC00
1FFF001FFFFC00
1FFF001FFFFC00
3FFF001FFFFC00
7FFE000FFFFE00
7FFE000FFFFE00
FFF8000F000C00
F0000000000000
ENDCHAR
STARTCHAR 00C3
ENCODING 195
SWIDTH 630 0
DWIDTH 49 0
BBX 51 68 1 -2
BITMAP
00000001F81FE0
00000003FE1FE0
00000007FF3FC0
0000000FFFFFC0
0000000FFFFFC0
0000001FFFFFC0
0000001FFFFF80
0000001FFFFF00
0000003F9FFC00
0000003F0FF800
0000003F03F000
00000000000000
00000000000000
00000000030000
000000007F0000
00000000FF0000
00000001FF8000
00000001FF8000
00000003FF8000
00000003FF8000
00000007FF8000
00000007FF8000
0000000FFF8000
0000001FFF8000
0000001FFF8000
0000003FFF8000
0000003FFF8000
0000007FFF8000
000000FFFF8000
000000FFFF8000
000001FFFF8000
000001FFFF8000
000003FFFFC000
000007FFFFC000
000007FFFFC000
00000FFFFFC000
00000FFFFFC000
00001FFFFFC000
00003FFFFFC000
00003FFFFFC000
00007FFFFFC000
0000FF9FFFC000
0000FF0FFFC000
0001FE0FFFC000
0003FE0FFFE000
0003FC0FFFE000
0007F807FFE000
000FF007FFE000
000FE00FFFE000
001FF1FFFFE000
003FFFFFFFE000
003FFFFFFFF000
007FFFFFFFF000
00FFFFFFFFF000
00FFFFFFFFF000
01FFFF1FFFF000
03FFF01FFFF800
03FFE01FFFF800
07FFC01FFFF800
0FFF801FFFF800
0FFF801FFFFC00
1FFF001FFFFC00
1FFF001FFFFC00
3FFF001FFFFC00
7FFE000FFFFE00
7FFE000FFFFE00
FFF8000F000C00
F0000000000000
ENDCHAR
STARTCHAR 00C4
ENCODING 196
SWIDTH 630 0
DWIDTH 49 0
BBX 49 65 1 -2
BITMAP
00000001C01F00
00000007F03F80
0000000FF07F80
0000000FF07F80
0000001FF0FF80
0000001FE0FF00
0000001FE0FE00
0000000FC03C00
00000001000000
00000000000000
00000000030000
000000007F0000
00000000FF0000
00000001FF8000
00000001FF8000
00000003FF8000
00000003FF8000
00000007FF8000
00000007FF8000
0000000FFF8000
0000001FFF8000
0000001FFF8000
0000003FFF8000
0000003FFF8000
0000007FFF8000
000000FFFF8000
000000FFFF8000
000001FFFF8000
000001FFFF8000
000003FFFFC000
000007FFFFC000
000007FFFFC000
00000FFFFFC000
00000FFFFFC000
00001FFFFFC000
00003FFFFFC000
00003FFFFFC000
00007FFFFFC000
0000FF9FFFC000
0000FF0FFFC000
0001FE0FFFC000
0003FE0FFFE000
0003FC0FFFE000
0007F807FFE000
000FF007FFE000
000FE00FFFE000
001FF1FFFFE000
003FFFFFFFE000
003FFFFFFFF000
007FFFFFFFF000
00FFFFFFFFF000
00FFFFFFFFF000
01FFFF1FFFF000
03FFF01FFFF800
03FFE01FFFF800
07FFC01FFFF800
0FFF801FFFF800
0FFF801FFFFC00
1FFF001FFFFC00
1FFF001FFFFC00
3FFF001FFFFC00
7FFE000FFFFE00
7FFE000FFFFE00
FFF8000F000C00
F0000000000000
ENDCHAR
STARTCHAR 00C5
ENCODING 197
SWIDTH 630 0
DWIDTH 49 0
BBX 49 69 1 -2
BITMAP
000000001FE000
00000000FFF800
00000003FFFC00
00000007FFFE00
0000000FFFFF00
0000001FF0FF00
0000001FE0FF00
0000003FC07F80
0000003F807F00
0000007F807F00
0000007F807F00
0000007F80FF00
0000007F80FE00
0000007FC1FE00
0000007FE7FC00
0000003FFFF800
0000001FFFF000
0000000FFFC000
00000007FF8000
00000003FF8000
00000003FF8000
00000007FF8000
0000000FFF8000
0000000FFF8000
0000001FFF8000
0000001FFF8000
0000003FFF8000
0000003FFF8000
0000007FFF8000
000000FFFF8000
000000FFFF8000
000001FFFF8000
000001FFFF8000
000003FFFFC000
000007FFFFC000
000007FFFFC000
00000FFFFFC000
00000FFFFFC000
00001FFFFFC000
00003FFFFFC000
00003FFFFFC000
00007FFFFFC000
0000FF9FFFC000
0000FF0FFFC000
0001FE0FFFC000
0003FE0FFFE000
0003FC0FFFE000
0007F807FFE000
000FF007FFE000
000FF00FFFE000
001FF1FFFFE000
003FFFFFFFE000
003FFFFFFFF000
007FFFFFFFF000
00FFFFFFFFF000
00FFFFFFFFF000
01FFFF1FFFF000
03FFF01FFFF800
03FFE01FFFF800
07FFC01FFFF800
0FFF801FFFF800
0FFF801FFFFC00
1FFF001FFFFC00
1FFF001FFFFC00
3FFF001FFFFC00
7FFE000FFFFE00
7FFE000FFFFE00
FFF8000F000C00
F0000000000000
ENDCHAR
STARTCHAR 00C6
ENCODING 198
SWIDTH 732 0
DWIDTH 57 0
BBX 59 55 1 -2
BITMAP
00000000007FE000
000000000FFFFF80
00000000FFFFFFE0
00000000FFFFFFC0
00000001FFFFFFC0
00000001FFFFFF80
00000003FFFFFF80
00000003FFFFFF00
00000007FFFFFF00
0000000FFFFFFE00
0000000FFFFFFE00
0000001FFFFFFE00
0000001FFFFFFC00
0000003FFFFFFC00
0000007FFFFFFC00
0000007FFFFFF800
000000FFFFFF3000
000000FFFFF00000
000001FFFFE00000
000003FFFFE00000
000003FFFFE00000
000007FFFFE00000
000007FFFFE0F000
00000FFFFFFFF000
00001FFFFFFFE000
00001FFFFFFFE000
00003FFFFFFFE000
00007FFFFFFFE000
00007FFFFFFFE000
0000FF8FFFFFE000
0001FF0FFFFC0000
0001FE0FFFC00000
0003FC0FFFC00000
0007F807FFC00300
0007F807FFEFCF00
000FF00FFFFFFF00
001FE03FFFFFFF00
001FFFFFFFFFFF80
003FFFFFFFFFFF80
003FFFFFFFFFFF80
007FFFFFFFFFFF80
00FFFFFFFFFFFF80
00FFFFFFFFFFFF80
01FFFC1FFFFFFF80
03FFF01FFFFFFF80
03FFC01FFFFFFF80
07FFC01FFFFFFF80
0FFF801FFFFFFF80
0FFF801FFFFFFF00
1FFF001FFFFFF800
3FFF001FFFFF8000
3FFF000FFFF80000
7FFF000FFE000000
FFFF000FE0000000
FFC0000400000000
ENDCHAR
STARTCHAR 00C7
ENCODING 199
SWIDTH 488 0
DWIDTH 38 0
BBX 42 66 5 -13
BITMAP
0000003F0000
000001FFF000
00000FFFFC00
00007FFFFE00
0001FFFFFF00
0007FFFFFF80
000FFFFFFFC0
001FFFFFFFC0
003FFFFFFF80
007FFFFFFF80
00FFFFFFFF80
01FFFFFFFF00
01FFFFFFFF00
03FFFFFFFF00
03FFFFFFFE00
07FFFFE02000
07FFFF000000
0FFFFC000000
0FFFF8000000
1FFFF0000000
1FFFE0000000
1FFFE0000000
1FFFC0000000
1FFFC0000000
3FFFC0000000
3FFFC0000000
3FFFC0000000
3FFFC0000000
7FFFE0000000
7FFFF001F000
7FFFF8FFF000
7FFFFFFFF000
7FFFFFFFF000
7FFFFFFFF000
7FFFFFFFE000
7FFFFFFFE000
7FFFFFFFE000
7FFFFFFFE000
7FFFFFFFC000
3FFFFFFFC000
3FFFFFFFC000
3FFFFFFFC000
3FFFFFFFC000
3FFFFFFF8000
1FFFFFFF0000
1FFFFFFE0000
1FFFFFF80000
0FFFFFF80000
0FFFFFF00000
00FFFFC00000
007FFF000000
007FF8000000
00FF80000000
00FF80000000
007FC0000000
007FE0000000
003FF0000000
001FF8000000
0007FC000000
3807FC000000
7F87FC000000
7FFFFC000000
FFFFF8000000
7FFFF0000000
3FFFE0000000
07FF00000000
ENDCHAR
STARTCHAR 00C8
ENCODING 200
SWIDTH 488 0
DWIDTH 38 0
BBX 31 68 10 0
BITMAP
00070000
03FF0000
07FF8000
07FF8000
03FFC000
01FFC000
00FFE000
007FE000
003FF000
001FF000
000FF000
000F8000
00000000
00000000
003FFFC0
01FFFFFC
0FFFFFFE
3FFFFFFC
3FFFFFFC
3FFFFFF8
3FFFFFF8
3FFFFFF0
3FFFFFF0
3FFFFFE0
3FFFFFE0
3FFFFFE0
3FFFFFC0
3FFFFFE0
3FFFFFC0
3FFFFF80
3FFF8000
3FFE0000
3FFE0000
3FFE0000
3FFE0000
3FFE0100
3FFE3F00
3FFFFF00
3FFFFE00
3FFFFE00
3FFFFE00
3FFFFE00
3FFFFE00
3FFFFE00
3FFF0000
3FFC0000
3FFC0000
3FFE0030
3FFFFFF0
3FFFFFF0
7FFFFFF8
3FFFFFF8
7FFFFFF8
7FFFFFF8
7FFFFFF8
7FFFFFF8
7FFFFFF8
7FFFFFF8
FFFFFFF8
FFFFFFF8
FFFFFFF8
FFFFFFF8
FFFFFFE0
FFFFFE00
FFFFE000
FFFE0000
FFC00000
68000000
ENDCHAR
STARTCHAR 00C9
ENCODING 201
SWIDTH 488 0
DWIDTH 38 0
BBX 31 69 10 0
BITMAP
000001F8
00003FF8
00003FF0
00007FE0
0000FFC0
0000FF80
0001FF00
0003FE00
0003FE00
0007FC00
0007F800
000FF000
000FE000
00000000
00000000
003FFFC0
01FFFFFC
0FFFFFFE
3FFFFFFC
3FFFFFFC
3FFFFFF8
3FFFFFF8
3FFFFFF0
3FFFFFF0
3FFFFFE0
3FFFFFE0
3FFFFFE0
3FFFFFC0
3FFFFFE0
3FFFFFC0
3FFFFF80
3FFF8000
3FFE0000
3FFE0000
3FFE0000
3FFE0000
3FFE0100
3FFE3F00
3FFFFF00
3FFFFE00
3FFFFE00
3FFFFE00
3FFFFE00
3FFFFE00
3FFFFE00
3FFF0000
3FFC0000
3FFC0000
3FFE0030
3FFFFFF0
3FFFFFF0
7FFFFFF8
3FFFFFF8
7FFFFFF8
7FFFFFF8
7FFFFFF8
7FFFFFF8
7FFFFFF8
7FFFFFF8
FFFFFFF8
FFFFFFF8
FFFFFFF8
FFFFFFF8
FFFFFFE0
FFFFFE00
FFFFE000
FFFE0000
FFC00000
68000000
ENDCHAR
STARTCHAR 00CA
ENCODING 202
SWIDTH 488 0
DWIDTH 38 0
BBX 31 68 10 0
BITMAP
0001E000
0007F800
000FFC00
003FFF00
007FFF80
00FFFFC0
01FFFFE0
03FFFFE0
07FE7FE0
0FFC1FE0
1FF00F80
0FE00000
06000000
00000000
003FFFC0
01FFFFFC
0FFFFFFE
3FFFFFFC
3FFFFFFC
3FFFFFF8
3FFFFFF8
3FFFFFF0
3FFFFFF0
3FFFFFE0
3FFFFFE0
3FFFFFE0
3FFFFFC0
3FFFFFE0
3FFFFFC0
3FFFFF80
3FFF8000
3FFE0000
3FFE0000
3FFE0000
3FFE0000
3FFE0100
3FFE3F00
3FFFFF00
3FFFFE00
3FFFFE00
3FFFFE00
3FFFFE00
3FFFFE00
3FFFFE00
3FFF0000
3FFC0000
3FFC0000
3FFE0030
3FFFFFF0
3FFFFFF0
7FFFFFF8
3FFFFFF8
7FFFFFF8
7FFFFFF8
7FFFFFF8
7FFFFFF8
7FFFFFF8
7FFFFFF8
FFFFFFF8
FFFFFFF8
FFFFFFF8
FFFFFFF8
FFFFFFE0
FFFFFE00
FFFFE000
FFFE0000
FFC00000
68000000
ENDCHAR
STARTCHAR 00CB
ENCODING 203
SWIDTH 488 0
DWIDTH 38 0
BBX 31 65 10 0
BITMAP
00000600
00001FC0
00E01FC0
03F83FC0
07F83FC0
07F83FC0
0FF83F80
0FF03F00
0FF00C00
07E00000
00000000
003FFFC0
01FFFFFC
0FFFFFFE
3FFFFFFC
3FFFFFFC
3FFFFFF8
3FFFFFF8
3FFFFFF0
3FFFFFF0
3FFFFFE0
3FFFFFE0
3FFFFFE0
3FFFFFC0
3FFFFFE0
3FFFFFC0
3FFFFF80
3FFF8000
3FFE0000
3FFE0000
3FFE0000
3FFE0000
3FFE0100
3FFE3F00
3FFFFF00
3FFFFE00
3FFFFE00
3FFFFE00
3FFFFE00
3FFFFE00
3FFFFE00
3FFF0000
3FFC0000
3FFC0000
3FFE0030
3FFFFFF0
3FFFFFF0
7FFFFFF8
3FFFFFF8
7FFFFFF8
7FFFFFF8
7FFFFFF8
7FFFFFF8
7FFFFFF8
7FFFFFF8
FFFFFFF8
FFFFFFF8
FFFFFFF8
FFFFFFF8
FFFFFFE0
FFFFFE00
FFFFE000
FFFE0000
FFC00000
68000000
ENDCHAR
STARTCHAR 00CC
ENCODING 204
SWIDTH 334 0
DWIDTH 26 0
BBX 34 67 2 0
BITMAP
00003FF000
00007FF000
00007FF000
00003FF800
00001FF800
00000FFC00
00000FFC00
000007FC00
000003FC00
000003FE00
000001FE00
000001F000
0000000000
0000000000
0000000000
00007FFEC0
0000FFFFC0
0001FFFF80
0001FFFF00
0000FFFF00
0001FFFE00
0001FFFE00
0001FFFE00
0003FFFC00
0003FFFC00
0007FFFC00
0007FFF800
0007FFF800
000FFFF800
000FFFF000
000FFFF000
001FFFF000
001FFFF000
001FFFE000
003FFFE000
003FFFE000
003FFFC000
003FFFC000
007FFFC000
007FFFC000
007FFF8000
00FFFF8000
00FFFF8000
00FFFF8000
00FFFF0000
01FFFF0000
01FFFF0000
01FFFF0000
01FFFF0000
03FFFF0000
03FFFE0000
03FFFE0000
03FFFE0000
07FFFE0000
07FFFE0000
07FFFC0000
07FFFC0000
0FFFF80000
0FFFF80000
0FFFF00000
1FFFF00000
1FFFF00000
3FFFF00000
3FFFE00000
7FFF800000
FFE0000000
FC00000000
ENDCHAR
STARTCHAR 00CD
ENCODING 205
SWIDTH 334 0
DWIDTH 26 0
BBX 40 67 2 0
BITMAP
00000003FF
00000007FF
00000007FF
0000000FFC
0000001FF8
0000003FF0
0000007FE0
0000007FC0
000000FF80
000001FF00
000001FE00
0000007C00
0000000000
0000000000
0000000000
00007FFEC0
0000FFFFC0
0001FFFF80
0001FFFF00
0000FFFF00
0001FFFE00
0001FFFE00
0001FFFE00
0003FFFC00
0003FFFC00
0007FFFC00
0007FFF800
0007FFF800
000FFFF800
000FFFF000
000FFFF000
001FFFF000
001FFFF000
001FFFE000
003FFFE000
003FFFE000
003FFFC000
003FFFC000
007FFFC000
007FFFC000
007FFF8000
00FFFF8000
00FFFF8000
00FFFF8000
00FFFF0000
01FFFF0000
01FFFF0000
01FFFF0000
01FFFF0000
03FFFF0000
03FFFE0000
03FFFE0000
03FFFE0000
07FFFE0000
07FFFE0000
07FFFC0000
07FFFC0000
0FFFF80000
0FFFF80000
0FFFF00000
1FFFF00000
1FFFF00000
3FFFF00000
3FFFE00000
7FFF800000
FFE0000000
FC00000000
ENDCHAR
STARTCHAR 00CE
ENCODING 206
SWIDTH 334 0
DWIDTH 26 0
BBX 39 67 2 0
BITMAP
0000001E00
0000007F00
000001FF80
000007FFE0
00000FFFF0
00001FFFF0
00007FFFF8
0000FFFFFC
0001FFC7FE
0001FF87FC
0001FE03FC
00007001F0
0000000000
0000000000
0000000000
00007FFEC0
0000FFFFC0
0001FFFF80
0001FFFF00
0000FFFF00
0001FFFE00
0001FFFE00
0001FFFE00
0003FFFC00
0003FFFC00
0007FFFC00
0007FFF800
0007FFF800
000FFFF800
000FFFF000
000FFFF000
001FFFF000
001FFFF000
001FFFE000
003FFFE000
003FFFE000
003FFFC000
003FFFC000
007FFFC000
007FFFC000
007FFF8000
00FFFF8000
00FFFF8000
00FFFF8000
00FFFF0000
01FFFF0000
01FFFF0000
01FFFF0000
01FFFF0000
03FFFF0000
03FFFE0000
03FFFE0000
03FFFE0000
07FFFE0000
07FFFE0000
07FFFC0000
07FFFC0000
0FFFF80000
0FFFF80000
0FFFF00000
1FFFF00000
1FFFF00000
3FFFF00000
3FFFE00000
7FFF800000
FFE0000000
FC00000000
ENDCHAR
STARTCHAR 00CF
ENCODING 207
SWIDTH 334 0
DWIDTH 26 0
BBX 38 63 2 0
BITMAP
00000E00F8
00003F81FC
00007F83FC
00007F83FC
0000FF87FC
0000FF07F8
0000FF07F0
00007E01E0
0000080000
0000000000
0000000000
00007FFEC0
0000FFFFC0
0001FFFF80
0001FFFF00
0000FFFF00
0001FFFE00
0001FFFE00
0001FFFE00
0003FFFC00
0003FFFC00
0007FFFC00
0007FFF800
0007FFF800
000FFFF800
000FFFF000
000FFFF000
001FFFF000
001FFFF000
001FFFE000
003FFFE000
003FFFE000
003FFFC000
003FFFC000
007FFFC000
007FFFC000
007FFF8000
00FFFF8000
00FFFF8000
00FFFF8000
00FFFF0000
01FFFF0000
01FFFF0000
01FFFF0000
01FFFF0000
03FFFF0000
03FFFE0000
03FFFE0000
03FFFE0000
07FFFE0000
07FFFE0000
07FFFC0000
07FFFC0000
0FFFF80000
0FFFF80000
0FFFF00000
1FFFF00000
1FFFF00000
3FFFF00000
3FFFE00000
7FFF800000
FFE0000000
FC00000000
ENDCHAR
STARTCHAR 00D0
ENCODING 208
SWIDTH 488 0
DWIDTH 38 0
BBX 38 53 6 0
BITMAP
000FFE0000
001FFFC000
00FFFFF000
00FFFFFC00
00FFFFFF00
00FFFFFF80
00FFFFFF80
01FFFFFFC0
01FFFFFFE0
01FFFFFFE0
01FFFFFFF0
01FFFFFFF0
03FFFFFFF8
03FFFFFFF8
03FFFCFFF8
03FFF83FFC
03FFF01FFC
03FFFF0FFC
03FFFF0FFC
07FFFF0FFC
7FFFFF0FFC
7FFFFF0FFC
7FFFFF1FFC
7FFFFF1FFC
FFFFFF3FF8
FFFFFF3FF8
FFFFFF7FF0
FFFFE0FFE0
FFFFC1FFE0
FFFFC3FFC0
27FFC7FF80
07FFDFFF80
07FFFFFF00
07FFFFFE00
07FFFFFE00
07FFFFFC00
07FFFFF800
07FFFFF000
07FFFFF000
07FFFFE000
07FFFFC000
07FFFF8000
07FFFF0000
07FFFE0000
07FFFC0000
07FFF80000
07FFF00000
07FFC00000
07FF000000
07FC000000
07E0000000
0780000000
0600000000
ENDCHAR
STARTCHAR 00D1
ENCODING 209
SWIDTH 565 0
DWIDTH 44 0
BBX 51 65 2 1
BITMAP
00000007E07F80
0000000FF07F00
0000001FFCFF00
0000003FFFFF00
0000007FFFFF00
0000007FFFFE00
0000007FFFFE00
0000007FFFF800
000000FE7FF000
000000FC3FE000
000000FC0F8000
00000000000000
00000000000000
00000000000000
00001F00003F00
0000FFF801FFC0
0001FFFE07FFE0
0003FFFE0FFFE0
0003FFFC0FFFE0
0003FFFC0FFFE0
0007FFFC1FFFC0
0007FFF81FFFC0
0007FFF81FFFC0
000FFFF81FFF80
000FFFF83FFF80
000FFFF83FFF80
001FFFF83FFF00
001FFFF83FFF00
003FFFF87FFF00
003FFFF87FFE00
003FFFF87FFE00
007FFFF87FFE00
007FFFF8FFFC00
007FFFF8FFFC00
00FFFFF8FFFC00
00FFFFF8FFF800
00FFFFF9FFF800
01FFFFFDFFF800
01FFFFFDFFF000
01FFFFFDFFF000
03FFFFFFFFF000
03FFFFFFFFF000
03FFFFFFFFE000
03FFFFFFFFE000
07FFFFFFFFE000
07FFF3FFFFC000
07FFF3FFFFC000
07FFF3FFFFC000
0FFFF3FFFFC000
0FFFE3FFFF8000
0FFFE3FFFF8000
0FFFE3FFFF8000
1FFFE1FFFF8000
1FFFC1FFFF0000
1FFFC1FFFF0000
3FFFC1FFFF0000
3FFF81FFFE0000
3FFF81FFFE0000
7FFF81FFFE0000
7FFF81FFFE0000
7FFF01FFFE0000
7FFF01FFFC0000
FFFF03FFFC0000
FFFE03FFF80000
FFE0007FC00000
ENDCHAR
STARTCHAR 00D2
ENCODING 210
SWIDTH 527 0
DWIDTH 41 0
BBX 40 68 6 -1
BITMAP
003FF00000
003FF80000
003FF80000
001FF80000
001FFC0000
000FFC0000
0007FE0000
0007FE0000
0003FE0000
0001FE0000
0001FE0000
0000F00000
0000000000
00003F0000
00007FC000
0000FFF000
0001FFF800
0003FFFE00
0007FFFF00
0007FFFFC0
000FFFFFE0
001FFFFFE0
003FFFFFF0
003FFFFFF0
007FFFFFF8
00FFFFFFF8
00FFFFFFFC
01FFFFFFFC
01FFFFFFFE
03FFFFFFFE
07FFFFFFFE
07FFFFFFFE
0FFFFFFFFF
0FFFE0FFFF
1FFFC07FFF
1FFF803FFF
3FFF803FFF
3FFF003FFF
7FFF003FFF
7FFF007FFF
7FFE007FFF
7FFE007FFF
7FFE007FFF
FFFE00FFFF
FFFF01FFFE
FFFF83FFFE
FFFFC7FFFE
FFFFFFFFFC
FFFFFFFFFC
FFFFFFFFFC
FFFFFFFFF8
FFFFFFFFF8
FFFFFFFFF0
7FFFFFFFF0
7FFFFFFFE0
7FFFFFFFE0
7FFFFFFFC0
7FFFFFFFC0
3FFFFFFF80
3FFFFFFF80
3FFFFFFF00
1FFFFFFE00
0FFFFFFC00
07FFFFF000
01FFFFE000
00FFFF8000
001FFE0000
0001E00000
ENDCHAR
STARTCHAR 00D3
ENCODING 211
SWIDTH 527 0
DWIDTH 41 0
BBX 40 68 6 -1
BITMAP
0000003FF0
0000007FF0
000000FFE0
000000FFC0
000001FF80
000003FF00
000007FE00
000007FC00
00000FF000
00001FE000
00003FE000
000007C000
0000000000
00003F0000
00007FC000
0000FFF000
0001FFF800
0003FFFE00
0007FFFF00
0007FFFFC0
000FFFFFE0
001FFFFFE0
003FFFFFF0
003FFFFFF0
007FFFFFF8
00FFFFFFF8
00FFFFFFFC
01FFFFFFFC
01FFFFFFFE
03FFFFFFFE
07FFFFFFFE
07FFFFFFFE
0FFFFFFFFF
0FFFE0FFFF
1FFFC07FFF
1FFF803FFF
3FFF803FFF
3FFF003FFF
7FFF003FFF
7FFF007FFF
7FFE007FFF
7FFE007FFF
7FFE007FFF
FFFE00FFFF
FFFF01FFFE
FFFF83FFFE
FFFFC7FFFE
FFFFFFFFFC
FFFFFFFFFC
FFFFFFFFFC
FFFFFFFFF8
FFFFFFFFF8
FFFFFFFFF0
7FFFFFFFF0
7FFFFFFFE0
7FFFFFFFE0
7FFFFFFFC0
7FFFFFFFC0
3FFFFFFF80
3FFFFFFF80
3FFFFFFF00
1FFFFFFE00
0FFFFFFC00
07FFFFF000
01FFFFE000
00FFFF8000
001FFE0000
0001E00000
ENDCHAR
STARTCHAR 00D4
ENCODING 212
SWIDTH 527 0
DWIDTH 41 0
BBX 40 69 6 -1
BITMAP
0000030000
00000FC000
00001FF000
00007FF800
0000FFFC00
0003FFFE00
0007FFFF00
000FFFFF00
001FFBFF80
003FE1FF80
003FC0FF80
003F807F00
0002000000
0000000000
00003F0000
00007FC000
0000FFF000
0001FFF800
0003FFFE00
0007FFFF00
0007FFFFC0
000FFFFFE0
001FFFFFE0
003FFFFFF0
003FFFFFF0
007FFFFFF8
00FFFFFFF8
00FFFFFFFC
01FFFFFFFC
01FFFFFFFE
03FFFFFFFE
07FFFFFFFE
07FFFFFFFE
0FFFFFFFFF
0FFFE0FFFF
1FFFC07FFF
1FFF803FFF
3FFF803FFF
3FFF003FFF
7FFF003FFF
7FFF007FFF
7FFE007FFF
7FFE007FFF
7FFE007FFF
FFFE00FFFF
FFFF01FFFE
FFFF83FFFE
FFFFC7FFFE
FFFFFFFFFC
FFFFFFFFFC
FFFFFFFFFC
FFFFFFFFF8
FFFFFFFFF8
FFFFFFFFF0
7FFFFFFFF0
7FFFFFFFE0
7FFFFFFFE0
7FFFFFFFC0
7FFFFFFFC0
3FFFFFFF80
3FFFFFFF80
3FFFFFFF00
1FFFFFFE00
0FFFFFFC00
07FFFFF000
01FFFFE000
00FFFF8000
001FFE0000
0001E00000
ENDCHAR
STARTCHAR 00D5
ENCODING 213
SWIDTH 527 0
DWIDTH 41 0
BBX 40 69 6 -1
BITMAP
00000001C0
0000003FC0
0001F03FC0
0007FC7F80
000FFFFF80
001FFFFF80
001FFFFF80
003FFFFF00
003FFFFE00
003FFFFC00
003F9FF800
003F0FE000
003F000000
0020000000
00003F0000
00007FC000
0000FFF000
0001FFF800
0003FFFE00
0007FFFF00
0007FFFFC0
000FFFFFE0
001FFFFFE0
003FFFFFF0
003FFFFFF0
007FFFFFF8
00FFFFFFF8
00FFFFFFFC
01FFFFFFFC
01FFFFFFFE
03FFFFFFFE
07FFFFFFFE
07FFFFFFFE
0FFFFFFFFF
0FFFE0FFFF
1FFFC07FFF
1FFF803FFF
3FFF803FFF
3FFF003FFF
7FFF003FFF
7FFF007FFF
7FFE007FFF
7FFE007FFF
7FFE007FFF
FFFE00FFFF
FFFF01FFFE
FFFF83FFFE
FFFFC7FFFE
FFFFFFFFFC
FFFFFFFFFC
FFFFFFFFFC
FFFFFFFFF8
FFFFFFFFF8
FFFFFFFFF0
7FFFFFFFF0
7FFFFFFFE0
7FFFFFFFE0
7FFFFFFFC0
7FFFFFFFC0
3FFFFFFF80
3FFFFFFF80
3FFFFFFF00
1FFFFFFE00
0FFFFFFC00
07FFFFF000
01FFFFE000
00FFFF8000
001FFE0000
0001E00000
ENDCHAR
STARTCHAR 00D6
ENCODING 214
SWIDTH 527 0
DWIDTH 41 0
BBX 40 64 6 -1
BITMAP
0003803E00
0007E07F00
000FE0FF80
001FE0FF00
001FE0FF00
001FE0FF00
001FC0FE00
000F807800
0003000000
00003F0000
00007FC000
0000FFF000
0001FFF800
0003FFFE00
0007FFFF00
0007FFFFC0
000FFFFFE0
001FFFFFE0
003FFFFFF0
003FFFFFF0
007FFFFFF8
00FFFFFFF8
00FFFFFFFC
01FFFFFFFC
01FFFFFFFE
03FFFFFFFE
07FFFFFFFE
07FFFFFFFE
0FFFFFFFFF
0FFFE0FFFF
1FFFC07FFF
1FFF803FFF
3FFF803FFF
3FFF003FFF
7FFF003FFF
7FFF007FFF
7FFE007FFF
7FFE007FFF
7FFE007FFF
FFFE00FFFF
FFFF01FFFE
FFFF83FFFE
FFFFC7FFFE
FFFFFFFFFC
FFFFFFFFFC
FFFFFFFFFC
FFFFFFFFF8
FFFFFFFFF8
FFFFFFFFF0
7FFFFFFFF0
7FFFFFFFE0
7FFFFFFFE0
7FFFFFFFC0
7FFFFFFFC0
3FFFFFFF80
3FFFFFFF80
3FFFFFFF00
1FFFFFFE00
0FFFFFFC00
07FFFFF000
01FFFFE000
00FFFF8000
001FFE0000
0001E00000
ENDCHAR
STARTCHAR 00D7
ENCODING 215
SWIDTH 424 0
DWIDTH 33 0
BBX 35 31 5 12
BITMAP
0018000C00
003E001E00
007F007F00
00FF007F80
01FF80FF80
03FFC3FFC0
0FFFC7FFE0
0FFFEFFFE0
0FFFFFFFC0
07FFFFFF80
03FFFFFE00
03FFFFFC00
01FFFFF800
00FFFFF000
007FFFE000
003FFFC000
007FFFC000
00FFFFE000
01FFFFE000
03FFFFF000
07FFFFF800
1FFFFFFC00
3FFFFFFE00
7FFFFFFE00
FFFE7FFE00
7FFC7FFC00
3FF83FF800
3FE01FF000
1FC00FC000
0F80078000
0700030000
ENDCHAR
STARTCHAR 00D8
ENCODING 216
SWIDTH 527 0
DWIDTH 41 0
BBX 53 56 0 -1
BITMAP
00000000003FF8
000000FC007FF8
000001FF00FFF8
000003FFC1FFF0
000007FFE3FFE0
00000FFFFBFFC0
00001FFFFFFFC0
00001FFFFFFF80
00003FFFFFFF00
00007FFFFFFE00
0000FFFFFFFC00
0000FFFFFFFC00
0001FFFFFFF800
0003FFFFFFF000
0003FFFFFFF000
0007FFFFFFF000
0007FFFFFFF800
000FFFFFFFF800
001FFFFFFFF800
001FFFFFFFF800
003FFFFFFFFC00
003FFE7FFFFC00
007FFCFFFFFC00
007FF8FFFFFC00
00FFF1FFFFFC00
00FFE3FFFFFC00
01FFC7FFFFFC00
01FFC7FF7FFC00
01FFCFFE7FFC00
01FF9FFC7FFC00
01FFBFF8FFFC00
03FFBFF0FFFC00
03FFFFE1FFF800
03FFFFE3FFF800
03FFFFC7FFF800
03FFFF8FFFF000
03FFFF3FFFF000
03FFFFFFFFF000
03FFFFFFFFE000
03FFFFFFFFE000
03FFFFFFFFC000
01FFFFFFFFC000
01FFFFFFFF8000
01FFFFFFFF8000
01FFFFFFFF0000
01FFFFFFFF0000
03FFFFFFFE0000
07FFFFFFFE0000
0FFFFFFFFC0000
1FFFFFFFF80000
3FFFFFFFF00000
3FFFFFFFC00000
7FE7FFFF800000
FFC3FFFE000000
C7807FF8000000
03000780000000
ENDCHAR
STARTCHAR 00D9
ENCODING 217
SWIDTH 540 0
DWIDTH 42 0
BBX 46 66 6 1
BITMAP
00001FF80000
00001FFC0000
00001FFC0000
00000FFC0000
000007FE0000
000007FE0000
000003FF0000
000001FF0000
000001FF0000
000000FF0000
000000FF0000
000000780000
000000000000
000000000000
000FC0001000
001FFC003FFC
001FFE007FFC
003FFC007FFC
003FFC007FFC
007FF8007FF8
007FF0007FF8
00FFF0007FF8
00FFF0007FF8
01FFF0007FF0
01FFE000FFF0
01FFE000FFF0
03FFE000FFE0
03FFC001FFE0
07FFC001FFE0
07FFC001FFE0
0FFF8003FFE0
0FFF8003FFE0
0FFF8003FFC0
1FFF8007FFC0
1FFF0007FFC0
1FFF000FFFC0
3FFF000FFFC0
3FFF000FFFC0
7FFF001FFFC0
7FFF001FFF80
7FFF801FFF80
7FFF803FFF80
7FFFC03FFF00
7FFFE07FFF00
7FFFFEFFFE00
FFFFFFFFFE00
FFFFFFFFFC00
FFFFFFFFFC00
FFFFFFFFF800
FFFFFFFFF800
FFFFFFFFF000
FFFFFFFFE000
FFFFFFFFE000
FFFFFFFFC000
7FFFFFFFC000
7FFFFFFF8000
7FFFFFFF0000
3FFFFFFE0000
3FFFFFFC0000
3FFFFFF80000
1FFFFFF00000
1FFFFFE00000
0FFFFF800000
03FFFF000000
007FFE000000
000C00000000
ENDCHAR
STARTCHAR 00DA
ENCODING 218
SWIDTH 540 0
DWIDTH 42 0
BBX 46 66 6 1
BITMAP
000000003FF0
000000007FF0
00000000FFE0
00000000FFC0
00000001FF80
00000003FF00
00000007FE00
00000007FC00
0000000FF800
0000001FF000
0000001FE000
00000007C000
000000000000
000000000000
000FC0001000
001FFC003FFC
001FFE007FFC
003FFC007FFC
003FFC007FFC
007FF8007FF8
007FF0007FF8
00FFF0007FF8
00FFF0007FF8
01FFF0007FF0
01FFE000FFF0
01FFE000FFF0
03FFE000FFE0
03FFC001FFE0
07FFC001FFE0
07FFC001FFE0
0FFF8003FFE0
0FFF8003FFE0
0FFF8003FFC0
1FFF8007FFC0
1FFF0007FFC0
1FFF000FFFC0
3FFF000FFFC0
3FFF000FFFC0
7FFF001FFFC0
7FFF001FFF80
7FFF801FFF80
7FFF803FFF80
7FFFC03FFF00
7FFFE07FFF00
7FFFFEFFFE00
FFFFFFFFFE00
FFFFFFFFFC00
FFFFFFFFFC00
FFFFFFFFF800
FFFFFFFFF800
FFFFFFFFF000
FFFFFFFFE000
FFFFFFFFE000
FFFFFFFFC000
7FFFFFFFC000
7FFFFFFF8000
7FFFFFFF0000
3FFFFFFE0000
3FFFFFFC0000
3FFFFFF80000
1FFFFFF00000
1FFFFFE00000
0FFFFF800000
03FFFF000000
007FFE000000
000C00000000
ENDCHAR
STARTCHAR 00DB
ENCODING 219
SWIDTH 540 0
DWIDTH 42 0
BBX 46 66 6 1
BITMAP
00000003E000
0000000FF000
0000003FF800
0000007FFC00
000001FFFE00
000003FFFF00
000007FFFF80
00000FFFFFC0
00001FFCFFC0
00003FF07FC0
00001FE03F80
00000E001F00
000000000000
000000000000
000FC0001000
001FFC003FFC
001FFE007FFC
003FFC007FFC
003FFC007FFC
007FF8007FF8
007FF0007FF8
00FFF0007FF8
00FFF0007FF8
01FFF0007FF0
01FFE000FFF0
01FFE000FFF0
03FFE000FFE0
03FFC001FFE0
07FFC001FFE0
07FFC001FFE0
0FFF8003FFE0
0FFF8003FFE0
0FFF8003FFC0
1FFF8007FFC0
1FFF0007FFC0
1FFF000FFFC0
3FFF000FFFC0
3FFF000FFFC0
7FFF001FFFC0
7FFF001FFF80
7FFF801FFF80
7FFF803FFF80
7FFFC03FFF00
7FFFE07FFF00
7FFFFEFFFE00
FFFFFFFFFE00
FFFFFFFFFC00
FFFFFFFFFC00
FFFFFFFFF800
FFFFFFFFF800
FFFFFFFFF000
FFFFFFFFE000
FFFFFFFFE000
FFFFFFFFC000
7FFFFFFFC000
7FFFFFFF8000
7FFFFFFF0000
3FFFFFFE0000
3FFFFFFC0000
3FFFFFF80000
1FFFFFF00000
1FFFFFE00000
0FFFFF800000
03FFFF000000
007FFE000000
000C00000000
ENDCHAR
STARTCHAR 00DC
ENCODING 220
SWIDTH 540 0
DWIDTH 42 0
BBX 46 62 6 1
BITMAP
000001F00700
000007F03F80
00000FF83F80
00000FF87F80
00000FF07F80
00000FF07F80
000007E07F80
000007C03E00
000000001000
000000000000
000FC0001000
001FFC003FFC
001FFE007FFC
003FFC007FFC
003FFC007FFC
007FF8007FF8
007FF0007FF8
00FFF0007FF8
00FFF0007FF8
01FFF0007FF0
01FFE000FFF0
01FFE000FFF0
03FFE000FFE0
03FFC001FFE0
07FFC001FFE0
07FFC001FFE0
0FFF8003FFE0
0FFF8003FFE0
0FFF8003FFC0
1FFF8007FFC0
1FFF0007FFC0
1FFF000FFFC0
3FFF000FFFC0
3FFF000FFFC0
7FFF001FFFC0
7FFF001FFF80
7FFF801FFF80
7FFF803FFF80
7FFFC03FFF00
7FFFE07FFF00
7FFFFEFFFE00
FFFFFFFFFE00
FFFFFFFFFC00
FFFFFFFFFC00
FFFFFFFFF800
FFFFFFFFF800
FFFFFFFFF000
FFFFFFFFE000
FFFFFFFFE000
FFFFFFFFC000
7FFFFFFFC000
7FFFFFFF8000
7FFFFFFF0000
3FFFFFFE0000
3FFFFFFC0000
3FFFFFF80000
1FFFFFF00000
1FFFFFE00000
0FFFFF800000
03FFFF000000
007FFE000000
000C00000000
ENDCHAR
STARTCHAR 00DD
ENCODING 221
SWIDTH 604 0
DWIDTH 47 0
BBX 47 67 11 0
BITMAP
00000003FF00
00000007FF00
0000000FFE00
0000000FFC00
0000001FF800
0000003FF000
0000007FE000
000000FFC000
000000FF0000
000001FE0000
000003FE0000
0000007C0000
000000000000
000000000000
000000001FFE
000000007FFC
00380000FFF8
05FC00007FF8
3FFC0000FFF0
7FFE0001FFF0
FFFE0003FFE0
FFFE0007FFC0
7FFF0007FF80
7FFF000FFF80
7FFF000FFF00
7FFF801FFE00
3FFF803FFE00
3FFF807FFC00
3FFF807FF800
1FFF80FFF800
1FFFC1FFF000
1FFFC3FFE000
0FFFC3FFC000
0FFFC7FFC000
0FFFCFFF8000
0FFFEFFF0000
07FFFFFF0000
07FFFFFE0000
07FFFFFC0000
03FFFFFC0000
03FFFFF80000
03FFFFF00000
03FFFFF00000
01FFFFE00000
01FFFFC00000
01FFFFC00000
00FFFF800000
00FFFF000000
00FFFF000000
007FFC000000
007FFC000000
007FFC000000
003FFC000000
003FFC000000
003FFC000000
007FFC000000
007FF8000000
007FF8000000
007FF8000000
007FF8000000
00FFF8000000
00FFF8000000
00FFF8000000
00FFF8000000
00FFF8000000
00FFF0000000
00FE00000000
ENDCHAR
STARTCHAR 00DE
ENCODING 222
SWIDTH 501 0
DWIDTH 39 0
BBX 39 54 4 0
BITMAP
0007800000
00FFFC0000
00FFFC0000
00FFFC0000
00FFFC0000
00FFFC0000
01FFF80000
01FFF90000
01FFFFE000
01FFFFFF00
01FFFFFFC0
01FFFFFFE0
01FFFFFFF0
03FFFFFFF0
03FFFFFFF8
03FFFFFFF8
03FFFFFFFC
07FFFFFFFC
03FFFFFFFC
03FFE07FFC
07FFE01FFE
07FFE00FFE
07FFC00FFE
07FFC00FFE
07FFC00FFE
0FFFC00FFE
0FFFC00FFE
0FFFC01FFE
0FFFC01FFC
0FFFC03FFC
0FFFC03FFC
0FFFC07FFC
0FFFC0FFFC
0FFFC1FFFC
1FFFC7FFFC
1FFFFFFFFC
1FFFFFFFF8
1FFFFFFFF0
3FFFFFFFE0
3FFFFFFFC0
3FFFFFFF80
3FFFFFFE00
3FFFFFF800
3FFFFF8000
7FFF800000
7FFF000000
7FFF800000
7FFF000000
7FFF000000
7FFF000000
FFFF000000
FFFE000000
FFFE000000
7FFC000000
ENDCHAR
STARTCHAR 00DF
ENCODING 223
SWIDTH 552 0
DWIDTH 43 0
BBX 42 59 4 -5
BITMAP
00003FF00000
0000FFFE0000
0003FFFF8000
0007FFFFC000
0007FFFFE000
003FFFFFF000
007FFFFFF000
007FFFFFE000
00FFFFFFF000
01FFFFFFF000
01FFFFFFF800
01FFF0FFF800
03FFC03FF800
03FF803FF800
03FF803FF000
07FF803FF000
07FF803FF000
07FF803FF000
07FF007FE000
07FF007FE000
07FF00FFC000
07FF01FF8000
0FFF03FF0000
0FFF07FE0000
0FFF07FC0000
0FFF07FFC000
0FFE0FFFF000
0FFE0FFFFC00
0FFE0FFFFF00
1FFE0FFFFF80
1FFE0FFFFF80
1FFE0FFFFF80
1FFE0FFFFFC0
1FFE00FFFFC0
1FFC001FFFC0
1FFC000FFFC0
1FFC0007FFC0
3FFC0007FFC0
3FFC0007FFC0
3FFC0007FFC0
3FFC000FFF80
3FF8000FFF80
3FF8001FFF80
3FF8007FFF00
3FF803FFFF00
7FF81FFFFE00
7FF81FFFFE00
7FF81FFFFC00
7FF03FFFFC00
7FF03FFFF000
7FF03FFFE000
7FF03FFFC000
7FF03FFF0000
FFF03FF80000
FFE038000000
FFE000000000
FFE000000000
7FC000000000
3F0000000000
ENDCHAR
STARTCHAR 00E0
ENCODING 224
SWIDTH 630 0
DWIDTH 49 0
BBX 47 69 1 -2
BITMAP
0000001FF800
0000003FF800
0000001FF800
0000001FFC00
0000000FFC00
00000007FE00
00000007FE00
00000003FE00
00000001FF00
00000001FF00
00000000FF00
00000000F800
000000000000
000000000000
000000000300
000000007F00
00000000FF00
00000001FF80
00000001FF80
00000003FF80
00000003FF80
00000007FF80
00000007FF80
0000000FFF80
0000001FFF80
0000001FFF80
0000003FFF80
0000003FFF80
0000007FFF80
000000FFFF80
000000FFFF80
000001FFFF80
000001FFFF80
000003FFFFC0
000007FFFFC0
000007FFFFC0
00000FFFFFC0
00000FFFFFC0
00001FFFFFC0
00003FFFFFC0
00003FFFFFC0
00007FFFFFC0
0000FF9FFFC0
0000FF0FFFC0
0001FE0FFFC0
0003FE0FFFE0
0003FC0FFFE0
0007F807FFE0
000FF007FFE0
000FE00FFFE0
001FF1FFFFE0
003FFFFFFFE0
003FFFFFFFF0
007FFFFFFFF0
00FFFFFFFFF0
00FFFFFFFFF0
01FFFF1FFFF0
03FFF01FFFF8
03FFE01FFFF8
07FFC01FFFF8
0FFF801FFFF8
0FFF801FFFFC
1FFF001FFFFC
1FFF001FFFFC
3FFF001FFFFC
7FFE000FFFFE
7FFE000FFFFE
FFF8000F000C
F00000000000
ENDCHAR
STARTCHAR 00E1
ENCODING 225
SWIDTH 630 0
DWIDTH 49 0
BBX 52 69 1 -2
BITMAP
00000000003FF0
00000000007FF0
0000000000FFE0
0000000001FFC0
0000000003FF80
0000000007FE00
0000000007FC00
000000000FF800
000000001FF000
000000001FE000
000000003FC000
00000000078000
00000000000000
00000000000000
00000000030000
000000007F0000
00000000FF0000
00000001FF8000
00000001FF8000
00000003FF8000
00000003FF8000
00000007FF8000
00000007FF8000
0000000FFF8000
0000001FFF8000
0000001FFF8000
0000003FFF8000
0000003FFF8000
0000007FFF8000
000000FFFF8000
000000FFFF8000
000001FFFF8000
000001FFFF8000
000003FFFFC000
000007FFFFC000
000007FFFFC000
00000FFFFFC000
00000FFFFFC000
00001FFFFFC000
00003FFFFFC000
00003FFFFFC000
00007FFFFFC000
0000FF9FFFC000
0000FF0FFFC000
0001FE0FFFC000
0003FE0FFFE000
0003FC0FFFE000
0007F807FFE000
000FF007FFE000
000FE00FFFE000
001FF1FFFFE000
003FFFFFFFE000
003FFFFFFFF000
007FFFFFFFF000
00FFFFFFFFF000
00FFFFFFFFF000
01FFFF1FFFF000
03FFF01FFFF800
03FFE01FFFF800
07FFC01FFFF800
0FFF801FFFF800
0FFF801FFFFC00
1FFF001FFFFC00
1FFF001FFFFC00
3FFF001FFFFC00
7FFE000FFFFE00
7FFE000FFFFE00
FFF8000F000C00
F0000000000000
ENDCHAR
STARTCHAR 00E2
ENCODING 226
SWIDTH 630 0
DWIDTH 49 0
BBX 49 69 1 -2
BITMAP
0000000007C000
000000001FE000
000000007FF000
00000000FFF800
00000003FFFC00
00000007FFFE00
0000000FFFFF00
0000001FFFFF80
0000003FF9FF80
0000007FE0FF80
0000003FC07F00
0000001C003E00
00000000000000
00000000000000
00000000030000
000000007F0000
00000000FF0000
00000001FF8000
00000001FF8000
00000003FF8000
00000003FF8000
00000007FF8000
00000007FF8000
0000000FFF8000
0000001FFF8000
0000001FFF8000
0000003FFF8000
0000003FFF8000
0000007FFF8000
000000FFFF8000
000000FFFF8000
000001FFFF8000
000001FFFF8000
000003FFFFC000
000007FFFFC000
000007FFFFC000
00000FFFFFC000
00000FFFFFC000
00001FFFFFC000
00003FFFFFC000
00003FFFFFC000
00007FFFFFC000
0000FF9FFFC000
0000FF0FFFC000
0001FE0FFFC000
0003FE0FFFE000
0003FC0FFFE000
0007F807FFE000
000FF007FFE000
000FE00FFFE000
001FF1FFFFE000
003FFFFFFFE000
003FFFFFFFF000
007FFFFFFFF000
00FFFFFFFFF000
00FFFFFFFFF000
01FFFF1FFFF000
03FFF01FFFF800
03FFE01FFFF800
07FFC01FFFF800
0FFF801FFFF800
0FFF801FFFFC00
1FFF001FFFFC00
1FFF001FFFFC00
3FFF001FFFFC00
7FFE000FFFFE00
7FFE000FFFFE00
FFF8000F000C00
F0000000000000
ENDCHAR
STARTCHAR 00E3
ENCODING 227
SWIDTH 630 0
DWIDTH 49 0
BBX 51 68 1 -2
BITMAP
00000001F81FE0
00000003FE1FE0
00000007FF3FC0
0000000FFFFFC0
0000000FFFFFC0
0000001FFFFFC0
0000001FFFFF80
0000001FFFFF00
0000003F9FFC00
0000003F0FF800
0000003F03F000
00000000000000
00000000000000
00000000030000
000000007F0000
00000000FF0000
00000001FF8000
00000001FF8000
00000003FF8000
00000003FF8000
00000007FF8000
00000007FF8000
0000000FFF8000
0000001FFF8000
0000001FFF8000
0000003FFF8000
0000003FFF8000
0000007FFF8000
000000FFFF8000
000000FFFF8000
000001FFFF8000
000001FFFF8000
000003FFFFC000
000007FFFFC000
000007FFFFC000
00000FFFFFC000
00000FFFFFC000
00001FFFFFC000
00003FFFFFC000
00003FFFFFC000
00007FFFFFC000
0000FF9FFFC000
0000FF0FFFC000
0001FE0FFFC000
0003FE0FFFE000
0003FC0FFFE000
0007F807FFE000
000FF007FFE000
000FE00FFFE000
001FF1FFFFE000
003FFFFFFFE000
003FFFFFFFF000
007FFFFFFFF000
00FFFFFFFFF000
00FFFFFFFFF000
01FFFF1FFFF000
03FFF01FFFF800
03FFE01FFFF800
07FFC01FFFF800
0FFF801FFFF800
0FFF801FFFFC00
1FFF001FFFFC00
1FFF001FFFFC00
3FFF001FFFFC00
7FFE000FFFFE00
7FFE000FFFFE00
FFF8000F000C00
F0000000000000
ENDCHAR
STARTCHAR 00E4
ENCODING 228
SWIDTH 630 0
DWIDTH 49 0
BBX 49 65 1 -2
BITMAP
00000001C01F00
00000007F03F80
0000000FF07F80
0000000FF07F80
0000001FF0FF80
0000001FE0FF00
0000001FE0FE00
0000000FC03C00
00000001000000
00000000000000
00000000030000
000000007F0000
00000000FF0000
00000001FF8000
00000001FF8000
00000003FF8000
00000003FF8000
00000007FF8000
00000007FF8000
0000000FFF8000
0000001FFF8000
0000001FFF8000
0000003FFF8000
0000003FFF8000
0000007FFF8000
000000FFFF8000
000000FFFF8000
000001FFFF8000
000001FFFF8000
000003FFFFC000
000007FFFFC000
000007FFFFC000
00000FFFFFC000
00000FFFFFC000
00001FFFFFC000
00003FFFFFC000
00003FFFFFC000
00007FFFFFC000
0000FF9FFFC000
0000FF0FFFC000
0001FE0FFFC000
0003FE0FFFE000
0003FC0FFFE000
0007F807FFE000
000FF007FFE000
000FE00FFFE000
001FF1FFFFE000
003FFFFFFFE000
003FFFFFFFF000
007FFFFFFFF000
00FFFFFFFFF000
00FFFFFFFFF000
01FFFF1FFFF000
03FFF01FFFF800
03FFE01FFFF800
07FFC01FFFF800
0FFF801FFFF800
0FFF801FFFFC00
1FFF001FFFFC00
1FFF001FFFFC00
3FFF001FFFFC00
7FFE000FFFFE00
7FFE000FFFFE00
FFF8000F000C00
F0000000000000
ENDCHAR
STARTCHAR 00E5
ENCODING 229
SWIDTH 630 0
DWIDTH 49 0
BBX 49 69 1 -2
BITMAP
000000001FE000
00000000FFF800
00000003FFFC00
00000007FFFE00
0000000FFFFF00
0000001FF0FF00
0000001FE0FF00
0000003FC07F80
0000003F807F00
0000007F807F00
0000007F807F00
0000007F80FF00
0000007F80FE00
0000007FC1FE00
0000007FE7FC00
0000003FFFF800
0000001FFFF000
0000000FFFC000
00000007FF8000
00000003FF8000
00000003FF8000
00000007FF8000
0000000FFF8000
0000000FFF8000
0000001FFF8000
0000001FFF8000
0000003FFF8000
0000003FFF8000
0000007FFF8000
000000FFFF8000
000000FFFF8000
000001FFFF8000
000001FFFF8000
000003FFFFC000
000007FFFFC000
000007FFFFC000
00000FFFFFC000
00000FFFFFC000
00001FFFFFC000
00003FFFFFC000
00003FFFFFC000
00007FFFFFC000
0000FF9FFFC000
0000FF0FFFC000
0001FE0FFFC000
0003FE0FFFE000
0003FC0FFFE000
0007F807FFE000
000FF007FFE000
000FF00FFFE000
001FF1FFFFE000
003FFFFFFFE000
003FFFFFFFF000
007FFFFFFFF000
00FFFFFFFFF000
00FFFFFFFFF000
01FFFF1FFFF000
03FFF01FFFF800
03FFE01FFFF800
07FFC01FFFF800
0FFF801FFFF800
0FFF801FFFFC00
1FFF001FFFFC00
1FFF001FFFFC00
3FFF001FFFFC00
7FFE000FFFFE00
7FFE000FFFFE00
FFF8000F000C00
F0000000000000
ENDCHAR
STARTCHAR 00E6
ENCODING 230
SWIDTH 732 0
DWIDTH 57 0
BBX 59 55 1 -2
BITMAP
00000000007FE000
000000000FFFFF80
00000000FFFFFFE0
00000000FFFFFFC0
00000001FFFFFFC0
00000001FFFFFF80
00000003FFFFFF80
00000003FFFFFF00
00000007FFFFFF00
0000000FFFFFFE00
0000000FFFFFFE00
0000001FFFFFFE00
0000001FFFFFFC00
0000003FFFFFFC00
0000007FFFFFFC00
0000007FFFFFF800
000000FFFFFF3000
000000FFFFF00000
000001FFFFE00000
000003FFFFE00000
000003FFFFE00000
000007FFFFE00000
000007FFFFE0F000
00000FFFFFFFF000
00001FFFFFFFE000
00001FFFFFFFE000
00003FFFFFFFE000
00007FFFFFFFE000
00007FFFFFFFE000
0000FF8FFFFFE000
0001FF0FFFFC0000
0001FE0FFFC00000
0003FC0FFFC00000
0007F807FFC00300
0007F807FFEFCF00
000FF00FFFFFFF00
001FE03FFFFFFF00
001FFFFFFFFFFF80
003FFFFFFFFFFF80
003FFFFFFFFFFF80
007FFFFFFFFFFF80
00FFFFFFFFFFFF80
00FFFFFFFFFFFF80
01FFFC1FFFFFFF80
03FFF01FFFFFFF80
03FFC01FFFFFFF80
07FFC01FFFFFFF80
0FFF801FFFFFFF80
0FFF801FFFFFFF00
1FFF001FFFFFF800
3FFF001FFFFF8000
3FFF000FFFF80000
7FFF000FFE000000
FFFF000FE0000000
FFC0000400000000
ENDCHAR
STARTCHAR 00E7
ENCODING 231
SWIDTH 488 0
DWIDTH 38 0
BBX 42 66 5 -13
BITMAP
0000003F0000
000001FFF000
00000FFFFC00
00007FFFFE00
0001FFFFFF00
0007FFFFFF80
000FFFFFFFC0
001FFFFFFFC0
003FFFFFFF80
007FFFFFFF80
00FFFFFFFF80
01FFFFFFFF00
01FFFFFFFF00
03FFFFFFFF00
03FFFFFFFE00
07FFFFE02000
07FFFF000000
0FFFFC000000
0FFFF8000000
1FFFF0000000
1FFFE0000000
1FFFE0000000
1FFFC0000000
1FFFC0000000
3FFFC0000000
3FFFC0000000
3FFFC0000000
3FFFC0000000
7FFFE0000000
7FFFF001F000
7FFFF8FFF000
7FFFFFFFF000
7FFFFFFFF000
7FFFFFFFF000
7FFFFFFFE000
7FFFFFFFE000
7FFFFFFFE000
7FFFFFFFE000
7FFFFFFFC000
3FFFFFFFC000
3FFFFFFFC000
3FFFFFFFC000
3FFFFFFFC000
3FFFFFFF8000
1FFFFFFF0000
1FFFFFFE0000
1FFFFFF80000
0FFFFFF80000
0FFFFFF00000
00FFFFC00000
007FFF000000
007FF8000000
00FF80000000
00FF80000000
007FC0000000
007FE0000000
003FF0000000
001FF8000000
0007FC000000
3807FC000000
7F87FC000000
7FFFFC000000
FFFFF8000000
7FFFF0000000
3FFFE0000000
07FF00000000
ENDCHAR
STARTCHAR 00E8
ENCODING 232
SWIDTH 488 0
DWIDTH 38 0
BBX 31 68 10 0
BITMAP
00070000
03FF0000
07FF8000
07FF8000
03FFC000
01FFC000
00FFE000
007FE000
003FF000
001FF000
000FF000
000F8000
00000000
00000000
003FFFC0
01FFFFFC
0FFFFFFE
3FFFFFFC
3FFFFFFC
3FFFFFF8
3FFFFFF8
3FFFFFF0
3FFFFFF0
3FFFFFE0
3FFFFFE0
3FFFFFE0
3FFFFFC0
3FFFFFE0
3FFFFFC0
3FFFFF80
3FFF8000
3FFE0000
3FFE0000
3FFE0000
3FFE0000
3FFE0100
3FFE3F00
3FFFFF00
3FFFFE00
3FFFFE00
3FFFFE00
3FFFFE00
3FFFFE00
3FFFFE00
3FFF0000
3FFC0000
3FFC0000
3FFE0030
3FFFFFF0
3FFFFFF0
7FFFFFF8
3FFFFFF8
7FFFFFF8
7FFFFFF8
7FFFFFF8
7FFFFFF8
7FFFFFF8
7FFFFFF8
FFFFFFF8
FFFFFFF8
FFFFFFF8
FFFFFFF8
FFFFFFE0
FFFFFE00
FFFFE000
FFFE0000
FFC00000
68000000
ENDCHAR
STARTCHAR 00E9
ENCODING 233
SWIDTH 488 0
DWIDTH 38 0
BBX 31 69 10 0
BITMAP
000001F8
00003FF8
00003FF0
00007FE0
0000FFC0
0000FF80
0001FF00
0003FE00
0003FE00
0007FC00
0007F800
000FF000
000FE000
00000000
00000000
003FFFC0
01FFFFFC
0FFFFFFE
3FFFFFFC
3FFFFFFC
3FFFFFF8
3FFFFFF8
3FFFFFF0
3FFFFFF0
3FFFFFE0
3FFFFFE0
3FFFFFE0
3FFFFFC0
3FFFFFE0
3FFFFFC0
3FFFFF80
3FFF8000
3FFE0000
3FFE0000
3FFE0000
3FFE0000
3FFE0100
3FFE3F00
3FFFFF00
3FFFFE00
3FFFFE00
3FFFFE00
3FFFFE00
3FFFFE00
3FFFFE00
3FFF0000
3FFC0000
3FFC0000
3FFE0030
3FFFFFF0
3FFFFFF0
7FFFFFF8
3FFFFFF8
7FFFFFF8
7FFFFFF8
7FFFFFF8
7FFFFFF8
7FFFFFF8
7FFFFFF8
FFFFFFF8
FFFFFFF8
FFFFFFF8
FFFFFFF8
FFFFFFE0
FFFFFE00
FFFFE000
FFFE0000
FFC00000
68000000
ENDCHAR
STARTCHAR 00EA
ENCODING 234
SWIDTH 488 0
DWIDTH 38 0
BBX 31 68 10 0
BITMAP
0001E000
0007F800
000FFC00
003FFF00
007FFF80
00FFFFC0
01FFFFE0
03FFFFE0
07FE7FE0
0FFC1FE0
1FF00F80
0FE00000
06000000
00000000
003FFFC0
01FFFFFC
0FFFFFFE
3FFFFFFC
3FFFFFFC
3FFFFFF8
3FFFFFF8
3FFFFFF0
3FFFFFF0
3FFFFFE0
3FFFFFE0
3FFFFFE0
3FFFFFC0
3FFFFFE0
3FFFFFC0
3FFFFF80
3FFF8000
3FFE0000
3FFE0000
3FFE0000
3FFE0000
3FFE0100
3FFE3F00
3FFFFF00
3FFFFE00
3FFFFE00
3FFFFE00
3FFFFE00
3FFFFE00
3FFFFE00
3FFF0000
3FFC0000
3FFC0000
3FFE0030
3FFFFFF0
3FFFFFF0
7FFFFFF8
3FFFFFF8
7FFFFFF8
7FFFFFF8
7FFFFFF8
7FFFFFF8
7FFFFFF8
7FFFFFF8
FFFFFFF8
FFFFFFF8
FFFFFFF8
FFFFFFF8
FFFFFFE0
FFFFFE00
FFFFE000
FFFE0000
FFC00000
68000000
ENDCHAR
STARTCHAR 00EB
ENCODING 235
SWIDTH 488 0
DWIDTH 38 0
BBX 31 65 10 0
BITMAP
00000600
00001FC0
00E01FC0
03F83FC0
07F83FC0
07F83FC0
0FF83F80
0FF03F00
0FF00C00
07E00000
00000000
003FFFC0
01FFFFFC
0FFFFFFE
3FFFFFFC
3FFFFFFC
3FFFFFF8
3FFFFFF8
3FFFFFF0
3FFFFFF0
3FFFFFE0
3FFFFFE0
3FFFFFE0
3FFFFFC0
3FFFFFE0
3FFFFFC0
3FFFFF80
3FFF8000
3FFE0000
3FFE0000
3FFE0000
3FFE0000
3FFE0100
3FFE3F00
3FFFFF00
3FFFFE00
3FFFFE00
3FFFFE00
3FFFFE00
3FFFFE00
3FFFFE00
3FFF0000
3FFC0000
3FFC0000
3FFE0030
3FFFFFF0
3FFFFFF0
7FFFFFF8
3FFFFFF8
7FFFFFF8
7FFFFFF8
7FFFFFF8
7FFFFFF8
7FFFFFF8
7FFFFFF8
FFFFFFF8
FFFFFFF8
FFFFFFF8
FFFFFFF8
FFFFFFE0
FFFFFE00
FFFFE000
FFFE0000
FFC00000
68000000
ENDCHAR
STARTCHAR 00EC
ENCODING 236
SWIDTH 334 0
DWIDTH 26 0
BBX 34 67 2 0
BITMAP
00003FF000
00007FF000
00007FF000
00003FF800
00001FF800
00000FFC00
00000FFC00
000007FC00
000003FC00
000003FE00
000001FE00
000001F000
0000000000
0000000000
0000000000
00007FFEC0
0000FFFFC0
0001FFFF80
0001FFFF00
0000FFFF00
0001FFFE00
0001FFFE00
0001FFFE00
0003FFFC00
0003FFFC00
0007FFFC00
0007FFF800
0007FFF800
000FFFF800
000FFFF000
000FFFF000
001FFFF000
001FFFF000
001FFFE000
003FFFE000
003FFFE000
003FFFC000
003FFFC000
007FFFC000
007FFFC000
007FFF8000
00FFFF8000
00FFFF8000
00FFFF8000
00FFFF0000
01FFFF0000
01FFFF0000
01FFFF0000
01FFFF0000
03FFFF0000
03FFFE0000
03FFFE0000
03FFFE0000
07FFFE0000
07FFFE0000
07FFFC0000
07FFFC0000
0FFFF80000
0FFFF80000
0FFFF00000
1FFFF00000
1FFFF00000
3FFFF00000
3FFFE00000
7FFF800000
FFE0000000
FC00000000
ENDCHAR
STARTCHAR 00ED
ENCODING 237
SWIDTH 334 0
DWIDTH 26 0
BBX 40 67 2 0
BITMAP
00000003FF
00000007FF
00000007FF
0000000FFC
0000001FF8
0000003FF0
0000007FE0
0000007FC0
000000FF80
000001FF00
000001FE00
0000007C00
0000000000
0000000000
0000000000
00007FFEC0
0000FFFFC0
0001FFFF80
0001FFFF00
0000FFFF00
0001FFFE00
0001FFFE00
0001FFFE00
0003FFFC00
0003FFFC00
0007FFFC00
0007FFF800
0007FFF800
000FFFF800
000FFFF000
000FFFF000
001FFFF000
001FFFF000
001FFFE000
003FFFE000
003FFFE000
003FFFC000
003FFFC000
007FFFC000
007FFFC000
007FFF8000
00FFFF8000
00FFFF8000
00FFFF8000
00FFFF0000
01FFFF0000
01FFFF0000
01FFFF0000
01FFFF0000
03FFFF0000
03FFFE0000
03FFFE0000
03FFFE0000
07FFFE0000
07FFFE0000
07FFFC0000
07FFFC0000
0FFFF80000
0FFFF80000
0FFFF00000
1FFFF00000
1FFFF00000
3FFFF00000
3FFFE00000
7FFF800000
FFE0000000
FC00000000
ENDCHAR
STARTCHAR 00EE
ENCODING 238
SWIDTH 334 0
DWIDTH 26 0
BBX 39 67 2 0
BITMAP
0000001E00
0000007F00
000001FF80
000007FFE0
00000FFFF0
00001FFFF0
00007FFFF8
0000FFFFFC
0001FFC7FE
0001FF87FC
0001FE03FC
00007001F0
0000000000
0000000000
0000000000
00007FFEC0
0000FFFFC0
0001FFFF80
0001FFFF00
0000FFFF00
0001FFFE00
0001FFFE00
0001FFFE00
0003FFFC00
0003FFFC00
0007FFFC00
0007FFF800
0007FFF800
000FFFF800
000FFFF000
000FFFF000
001FFFF000
001FFFF000
001FFFE000
003FFFE000
003FFFE000
003FFFC000
003FFFC000
007FFFC000
007FFFC000
007FFF8000
00FFFF8000
00FFFF8000
00FFFF8000
00FFFF0000
01FFFF0000
01FFFF0000
01FFFF0000
01FFFF0000
03FFFF0000
03FFFE0000
03FFFE0000
03FFFE0000
07FFFE0000
07FFFE0000
07FFFC0000
07FFFC0000
0FFFF80000
0FFFF80000
0FFFF00000
1FFFF00000
1FFFF00000
3FFFF00000
3FFFE00000
7FFF800000
FFE0000000
FC00000000
ENDCHAR
STARTCHAR 00EF
ENCODING 239
SWIDTH 334 0
DWIDTH 26 0
BBX 38 63 2 0
BITMAP
00000E00F8
00003F81FC
00007F83FC
00007F83FC
0000FF87FC
0000FF07F8
0000FF07F0
00007E01E0
0000080000
0000000000
0000000000
00007FFEC0
0000FFFFC0
0001FFFF80
0001FFFF00
0000FFFF00
0001FFFE00
0001FFFE00
0001FFFE00
0003FFFC00
0003FFFC00
0007FFFC00
0007FFF800
0007FFF800
000FFFF800
000FFFF000
000FFFF000
001FFFF000
001FFFF000
001FFFE000
003FFFE000
003FFFE000
003FFFC000
003FFFC000
007FFFC000
007FFFC000
007FFF8000
00FFFF8000
00FFFF8000
00FFFF8000
00FFFF0000
01FFFF0000
01FFFF0000
01FFFF0000
01FFFF0000
03FFFF0000
03FFFE0000
03FFFE0000
03FFFE0000
07FFFE0000
07FFFE0000
07FFFC0000
07FFFC0000
0FFFF80000
0FFFF80000
0FFFF00000
1FFFF00000
1FFFF00000
3FFFF00000
3FFFE00000
7FFF800000
FFE0000000
FC00000000
ENDCHAR
STARTCHAR 00F0
ENCODING 240
SWIDTH 488 0
DWIDTH 38 0
BBX 38 53 6 0
BITMAP
000FFE0000
001FFFC000
00FFFFF000
00FFFFFC00
00FFFFFF00
00FFFFFF80
00FFFFFF80
01FFFFFFC0
01FFFFFFE0
01FFFFFFE0
01FFFFFFF0
01FFFFFFF0
03FFFFFFF8
03FFFFFFF8
03FFFCFFF8
03FFF83FFC
03FFF01FFC
03FFFF0FFC
03FFFF0FFC
07FFFF0FFC
7FFFFF0FFC
7FFFFF0FFC
7FFFFF1FFC
7FFFFF1FFC
FFFFFF3FF8
FFFFFF3FF8
FFFFFF7FF0
FFFFE0FFE0
FFFFC1FFE0
FFFFC3FFC0
27FFC7FF80
07FFDFFF80
07FFFFFF00
07FFFFFE00
07FFFFFE00
07FFFFFC00
07FFFFF800
07FFFFF000
07FFFFF000
07FFFFE000
07FFFFC000
07FFFF8000
07FFFF0000
07FFFE0000
07FFFC0000
07FFF80000
07FFF00000
07FFC00000
07FF000000
07FC000000
07E0000000
0780000000
0600000000
ENDCHAR
STARTCHAR 00F1
ENCODING 241
SWIDTH 565 0
DWIDTH 44 0
BBX 51 65 2 1
BITMAP
00000007E07F80
0000000FF07F00
0000001FFCFF00
0000003FFFFF00
0000007FFFFF00
0000007FFFFE00
0000007FFFFE00
0000007FFFF800
000000FE7FF000
000000FC3FE000
000000FC0F8000
00000000000000
00000000000000
00000000000000
00001F00003F00
0000FFF801FFC0
0001FFFE07FFE0
0003FFFE0FFFE0
0003FFFC0FFFE0
0003FFFC0FFFE0
0007FFFC1FFFC0
0007FFF81FFFC0
0007FFF81FFFC0
000FFFF81FFF80
000FFFF83FFF80
000FFFF83FFF80
001FFFF83FFF00
001FFFF83FFF00
003FFFF87FFF00
003FFFF87FFE00
003FFFF87FFE00
007FFFF87FFE00
007FFFF8FFFC00
007FFFF8FFFC00
00FFFFF8FFFC00
00FFFFF8FFF800
00FFFFF9FFF800
01FFFFFDFFF800
01FFFFFDFFF000
01FFFFFDFFF000
03FFFFFFFFF000
03FFFFFFFFF000
03FFFFFFFFE000
03FFFFFFFFE000
07FFFFFFFFE000
07FFF3FFFFC000
07FFF3FFFFC000
07FFF3FFFFC000
0FFFF3FFFFC000
0FFFE3FFFF8000
0FFFE3FFFF8000
0FFFE3FFFF8000
1FFFE1FFFF8000
1FFFC1FFFF0000
1FFFC1FFFF0000
3FFFC1FFFF0000
3FFF81FFFE0000
3FFF81FFFE0000
7FFF81FFFE0000
7FFF81FFFE0000
7FFF01FFFE0000
7FFF01FFFC0000
FFFF03FFFC0000
FFFE03FFF80000
FFE0007FC00000
ENDCHAR
STARTCHAR 00F2
ENCODING 242
SWIDTH 527 0
DWIDTH 41 0
BBX 40 68 6 -1
BITMAP
003FF00000
003FF80000
003FF80000
001FF80000
001FFC0000
000FFC0000
0007FE0000
0007FE0000
0003FE0000
0001FE0000
0001FE0000
0000F00000
0000000000
00003F0000
00007FC000
0000FFF000
0001FFF800
0003FFFE00
0007FFFF00
0007FFFFC0
000FFFFFE0
001FFFFFE0
003FFFFFF0
003FFFFFF0
007FFFFFF8
00FFFFFFF8
00FFFFFFFC
01FFFFFFFC
01FFFFFFFE
03FFFFFFFE
07FFFFFFFE
07FFFFFFFE
0FFFFFFFFF
0FFFE0FFFF
1FFFC07FFF
1FFF803FFF
3FFF803FFF
3FFF003FFF
7FFF003FFF
7FFF007FFF
7FFE007FFF
7FFE007FFF
7FFE007FFF
FFFE00FFFF
FFFF01FFFE
FFFF83FFFE
FFFFC7FFFE
FFFFFFFFFC
FFFFFFFFFC
FFFFFFFFFC
FFFFFFFFF8
FFFFFFFFF8
FFFFFFFFF0
7FFFFFFFF0
7FFFFFFFE0
7FFFFFFFE0
7FFFFFFFC0
7FFFFFFFC0
3FFFFFFF80
3FFFFFFF80
3FFFFFFF00
1FFFFFFE00
0FFFFFFC00
07FFFFF000
01FFFFE000
00FFFF8000
001FFE0000
0001E00000
ENDCHAR
STARTCHAR 00F3
ENCODING 243
SWIDTH 527 0
DWIDTH 41 0
BBX 40 68 6 -1
BITMAP
0000003FF0
0000007FF0
000000FFE0
000000FFC0
000001FF80
000003FF00
000007FE00
000007FC00
00000FF000
00001FE000
00003FE000
000007C000
0000000000
00003F0000
00007FC000
0000FFF000
0001FFF800
0003FFFE00
0007FFFF00
0007FFFFC0
000FFFFFE0
001FFFFFE0
003FFFFFF0
003FFFFFF0
007FFFFFF8
00FFFFFFF8
00FFFFFFFC
01FFFFFFFC
01FFFFFFFE
03FFFFFFFE
07FFFFFFFE
07FFFFFFFE
0FFFFFFFFF
0FFFE0FFFF
1FFFC07FFF
1FFF803FFF
3FFF803FFF
3FFF003FFF
7FFF003FFF
7FFF007FFF
7FFE007FFF
7FFE007FFF
7FFE007FFF
FFFE00FFFF
FFFF01FFFE
FFFF83FFFE
FFFFC7FFFE
FFFFFFFFFC
FFFFFFFFFC
FFFFFFFFFC
FFFFFFFFF8
FFFFFFFFF8
FFFFFFFFF0
7FFFFFFFF0
7FFFFFFFE0
7FFFFFFFE0
7FFFFFFFC0
7FFFFFFFC0
3FFFFFFF80
3FFFFFFF80
3FFFFFFF00
1FFFFFFE00
0FFFFFFC00
07FFFFF000
01FFFFE000
00FFFF8000
001FFE0000
0001E00000
ENDCHAR
STARTCHAR 00F4
ENCODING 244
SWIDTH 527 0
DWIDTH 41 0
BBX 40 69 6 -1
BITMAP
0000030000
00000FC000
00001FF000
00007FF800
0000FFFC00
0003FFFE00
0007FFFF00
000FFFFF00
001FFBFF80
003FE1FF80
003FC0FF80
003F807F00
0002000000
0000000000
00003F0000
00007FC000
0000FFF000
0001FFF800
0003FFFE00
0007FFFF00
0007FFFFC0
000FFFFFE0
001FFFFFE0
003FFFFFF0
003FFFFFF0
007FFFFFF8
00FFFFFFF8
00FFFFFFFC
01FFFFFFFC
01FFFFFFFE
03FFFFFFFE
07FFFFFFFE
07FFFFFFFE
0FFFFFFFFF
0FFFE0FFFF
1FFFC07FFF
1FFF803FFF
3FFF803FFF
3FFF003FFF
7FFF003FFF
7FFF007FFF
7FFE007FFF
7FFE007FFF
7FFE007FFF
FFFE00FFFF
FFFF01FFFE
FFFF83FFFE
FFFFC7FFFE
FFFFFFFFFC
FFFFFFFFFC
FFFFFFFFFC
FFFFFFFFF8
FFFFFFFFF8
FFFFFFFFF0
7FFFFFFFF0
7FFFFFFFE0
7FFFFFFFE0
7FFFFFFFC0
7FFFFFFFC0
3FFFFFFF80
3FFFFFFF80
3FFFFFFF00
1FFFFFFE00
0FFFFFFC00
07FFFFF000
01FFFFE000
00FFFF8000
001FFE0000
0001E00000
ENDCHAR
STARTCHAR 00F5
ENCODING 245
SWIDTH 527 0
DWIDTH 41 0
BBX 40 69 6 -1
BITMAP
00000001C0
0000003FC0
0001F03FC0
0007FC7F80
000FFFFF80
001FFFFF80
001FFFFF80
003FFFFF00
003FFFFE00
003FFFFC00
003F9FF800
003F0FE000
003F000000
0020000000
00003F0000
00007FC000
0000FFF000
0001FFF800
0003FFFE00
0007FFFF00
0007FFFFC0
000FFFFFE0
001FFFFFE0
003FFFFFF0
003FFFFFF0
007FFFFFF8
00FFFFFFF8
00FFFFFFFC
01FFFFFFFC
01FFFFFFFE
03FFFFFFFE
07FFFFFFFE
07FFFFFFFE
0FFFFFFFFF
0FFFE0FFFF
1FFFC07FFF
1FFF803FFF
3FFF803FFF
3FFF003FFF
7FFF003FFF
7FFF007FFF
7FFE007FFF
7FFE007FFF
7FFE007FFF
FFFE00FFFF
FFFF01FFFE
FFFF83FFFE
FFFFC7FFFE
FFFFFFFFFC
FFFFFFFFFC
FFFFFFFFFC
FFFFFFFFF8
FFFFFFFFF8
FFFFFFFFF0
7FFFFFFFF0
7FFFFFFFE0
7FFFFFFFE0
7FFFFFFFC0
7FFFFFFFC0
3FFFFFFF80
3FFFFFFF80
3FFFFFFF00
1FFFFFFE00
0FFFFFFC00
07FFFFF000
01FFFFE000
00FFFF8000
001FFE0000
0001E00000
ENDCHAR
STARTCHAR 00F6
ENCODING 246
SWIDTH 527 0
DWIDTH 41 0
BBX 40 64 6 -1
BITMAP
0003803E00
0007E07F00
000FE0FF80
001FE0FF00
001FE0FF00
001FE0FF00
001FC0FE00
000F807800
0003000000
00003F0000
00007FC000
0000FFF000
0001FFF800
0003FFFE00
0007FFFF00
0007FFFFC0
000FFFFFE0
001FFFFFE0
003FFFFFF0
003FFFFFF0
007FFFFFF8
00FFFFFFF8
00FFFFFFFC
01FFFFFFFC
01FFFFFFFE
03FFFFFFFE
07FFFFFFFE
07FFFFFFFE
0FFFFFFFFF
0FFFE0FFFF
1FFFC07FFF
1FFF803FFF
3FFF803FFF
3FFF003FFF
7FFF003FFF
7FFF007FFF
7FFE007FFF
7FFE007FFF
7FFE007FFF
FFFE00FFFF
FFFF01FFFE
FFFF83FFFE
FFFFC7FFFE
FFFFFFFFFC
FFFFFFFFFC
FFFFFFFFFC
FFFFFFFFF8
FFFFFFFFF8
FFFFFFFFF0
7FFFFFFFF0
7FFFFFFFE0
7FFFFFFFE0
7FFFFFFFC0
7FFFFFFFC0
3FFFFFFF80
3FFFFFFF80
3FFFFFFF00
1FFFFFFE00
0FFFFFFC00
07FFFFF000
01FFFFE000
00FFFF8000
001FFE0000
0001E00000
ENDCHAR
STARTCHAR 00F7
ENCODING 247
SWIDTH 475 0
DWIDTH 37 0
BBX 37 41 6 7
BITMAP
00000F8000
00001FE000
00003FF000
00007FF000
0000FFF000
0000FFF000
0001FFF000
0001FFF000
0001FFE000
0001FFE000
0000FFC000
00007F8000
00001E0000
0000000000
0000000000
1FFFFFFFF0
3FFFFFFFF8
3FFFFFFFF0
3FFFFFFFF0
3FFFFFFFF0
7FFFFFFFF0
7FFFFFFFF0
7FFFFFFFF0
7FFFFFFFE0
FFFFFFFFE0
3FFE000000
0000000000
0000000000
0001000000
0007F00000
001FF80000
001FFC0000
003FFC0000
003FFC0000
007FFC0000
007FFC0000
007FF80000
007FF00000
007FF00000
007FE00000
001F800000
ENDCHAR
STARTCHAR 00F8
ENCODING 248
SWIDTH 527 0
DWIDTH 41 0
BBX 53 56 0 -1
BITMAP
00000000003FF8
000000FC007FF8
000001FF00FFF8
000003FFC1FFF0
000007FFE3FFE0
00000FFFFBFFC0
00001FFFFFFFC0
00001FFFFFFF80
00003FFFFFFF00
00007FFFFFFE00
0000FFFFFFFC00
0000FFFFFFFC00
0001FFFFFFF800
0003FFFFFFF000
0003FFFFFFF000
0007FFFFFFF000
0007FFFFFFF800
000FFFFFFFF800
001FFFFFFFF800
001FFFFFFFF800
003FFFFFFFFC00
003FFE7FFFFC00
007FFCFFFFFC00
007FF8FFFFFC00
00FFF1FFFFFC00
00FFE3FFFFFC00
01FFC7FFFFFC00
01FFC7FF7FFC00
01FFCFFE7FFC00
01FF9FFC7FFC00
01FFBFF8FFFC00
03FFBFF0FFFC00
03FFFFE1FFF800
03FFFFE3FFF800
03FFFFC7FFF800
03FFFF8FFFF000
03FFFF3FFFF000
03FFFFFFFFF000
03FFFFFFFFE000
03FFFFFFFFE000
03FFFFFFFFC000
01FFFFFFFFC000
01FFFFFFFF8000
01FFFFFFFF8000
01FFFFFFFF0000
01FFFFFFFF0000
03FFFFFFFE0000
07FFFFFFFE0000
0FFFFFFFFC0000
1FFFFFFFF80000
3FFFFFFFF00000
3FFFFFFFC00000
7FE7FFFF800000
FFC3FFFE000000
C7807FF8000000
03000780000000
ENDCHAR
STARTCHAR 00F9
ENCODING 249
SWIDTH 540 0
DWIDTH 42 0
BBX 46 66 6 1
BITMAP
00001FF80000
00001FFC0000
00001FFC0000
00000FFC0000
000007FE0000
000007FE0000
000003FF0000
000001FF0000
000001FF0000
000000FF0000
000000FF0000
000000780000
000000000000
000000000000
000FC0001000
001FFC003FFC
001FFE007FFC
003FFC007FFC
003FFC007FFC
007FF8007FF8
007FF0007FF8
00FFF0007FF8
00FFF0007FF8
01FFF0007FF0
01FFE000FFF0
01FFE000FFF0
03FFE000FFE0
03FFC001FFE0
07FFC001FFE0
07FFC001FFE0
0FFF8003FFE0
0FFF8003FFE0
0FFF8003FFC0
1FFF8007FFC0
1FFF0007FFC0
1FFF000FFFC0
3FFF000FFFC0
3FFF000FFFC0
7FFF001FFFC0
7FFF001FFF80
7FFF801FFF80
7FFF803FFF80
7FFFC03FFF00
7FFFE07FFF00
7FFFFEFFFE00
FFFFFFFFFE00
FFFFFFFFFC00
FFFFFFFFFC00
FFFFFFFFF800
FFFFFFFFF800
FFFFFFFFF000
FFFFFFFFE000
FFFFFFFFE000
FFFFFFFFC000
7FFFFFFFC000
7FFFFFFF8000
7FFFFFFF0000
3FFFFFFE0000
3FFFFFFC0000
3FFFFFF80000
1FFFFFF00000
1FFFFFE00000
0FFFFF800000
03FFFF000000
007FFE000000
000C00000000
ENDCHAR
STARTCHAR 00FA
ENCODING 250
SWIDTH 540 0
DWIDTH 42 0
BBX 46 66 6 1
BITMAP
000000003FF0
000000007FF0
00000000FFE0
00000000FFC0
00000001FF80
00000003FF00
00000007FE00
00000007FC00
0000000FF800
0000001FF000
0000001FE000
00000007C000
000000000000
000000000000
000FC0001000
001FFC003FFC
001FFE007FFC
003FFC007FFC
003FFC007FFC
007FF8007FF8
007FF0007FF8
00FFF0007FF8
00FFF0007FF8
01FFF0007FF0
01FFE000FFF0
01FFE000FFF0
03FFE000FFE0
03FFC001FFE0
07FFC001FFE0
07FFC001FFE0
0FFF8003FFE0
0FFF8003FFE0
0FFF8003FFC0
1FFF8007FFC0
1FFF0007FFC0
1FFF000FFFC0
3FFF000FFFC0
3FFF000FFFC0
7FFF001FFFC0
7FFF001FFF80
7FFF801FFF80
7FFF803FFF80
7FFFC03FFF00
7FFFE07FFF00
7FFFFEFFFE00
FFFFFFFFFE00
FFFFFFFFFC00
FFFFFFFFFC00
FFFFFFFFF800
FFFFFFFFF800
FFFFFFFFF000
FFFFFFFFE000
FFFFFFFFE000
FFFFFFFFC000
7FFFFFFFC000
7FFFFFFF8000
7FFFFFFF0000
3FFFFFFE0000
3FFFFFFC0000
3FFFFFF80000
1FFFFFF00000
1FFFFFE00000
0FFFFF800000
03FFFF000000
007FFE000000
000C00000000
ENDCHAR
STARTCHAR 00FB
ENCODING 251
SWIDTH 540 0
DWIDTH 42 0
BBX 46 66 6 1
BITMAP
00000003E000
0000000FF000
0000003FF800
0000007FFC00
000001FFFE00
000003FFFF00
000007FFFF80
00000FFFFFC0
00001FFCFFC0
00003FF07FC0
00001FE03F80
00000E001F00
000000000000
000000000000
000FC0001000
001FFC003FFC
001FFE007FFC
003FFC007FFC
003FFC007FFC
007FF8007FF8
007FF0007FF8
00FFF0007FF8
00FFF0007FF8
01FFF0007FF0
01FFE000FFF0
01FFE000FFF0
03FFE000FFE0
03FFC001FFE0
07FFC001FFE0
07FFC001FFE0
0FFF8003FFE0
0FFF8003FFE0
0FFF8003FFC0
1FFF8007FFC0
1FFF0007FFC0
1FFF000FFFC0
3FFF000FFFC0
3FFF000FFFC0
7FFF001FFFC0
7FFF001FFF80
7FFF801FFF80
7FFF803FFF80
7FFFC03FFF00
7FFFE07FFF00
7FFFFEFFFE00
FFFFFFFFFE00
FFFFFFFFFC00
FFFFFFFFFC00
FFFFFFFFF800
FFFFFFFFF800
FFFFFFFFF000
FFFFFFFFE000
FFFFFFFFE000
FFFFFFFFC000
7FFFFFFFC000
7FFFFFFF8000
7FFFFFFF0000
3FFFFFFE0000
3FFFFFFC0000
3FFFFFF80000
1FFFFFF00000
1FFFFFE00000
0FFFFF800000
03FFFF000000
007FFE000000
000C00000000
ENDCHAR
STARTCHAR 00FC
ENCODING 252
SWIDTH 540 0
DWIDTH 42 0
BBX 46 62 6 1
BITMAP
000001F00700
000007F03F80
00000FF83F80
00000FF87F80
00000FF07F80
00000FF07F80
000007E07F80
000007C03E00
000000001000
000000000000
000FC0001000
001FFC003FFC
001FFE007FFC
003FFC007FFC
003FFC007FFC
007FF8007FF8
007FF0007FF8
00FFF0007FF8
00FFF0007FF8
01FFF0007FF0
01FFE000FFF0
01FFE000FFF0
03FFE000FFE0
03FFC001FFE0
07FFC001FFE0
07FFC001FFE0
0FFF8003FFE0
0FFF8003FFE0
0FFF8003FFC0
1FFF8007FFC0
1FFF0007FFC0
1FFF000FFFC0
3FFF000FFFC0
3FFF000FFFC0
7FFF001FFFC0
7FFF001FFF80
7FFF801FFF80
7FFF803FFF80
7FFFC03FFF00
7FFFE07FFF00
7FFFFEFFFE00
FFFFFFFFFE00
FFFFFFFFFC00
FFFFFFFFFC00
FFFFFFFFF800
FFFFFFFFF800
FFFFFFFFF000
FFFFFFFFE000
FFFFFFFFE000
FFFFFFFFC000
7FFFFFFFC000
7FFFFFFF8000
7FFFFFFF0000
3FFFFFFE0000
3FFFFFFC0000
3FFFFFF80000
1FFFFFF00000
1FFFFFE00000
0FFFFF800000
03FFFF000000
007FFE000000
000C00000000
ENDCHAR
STARTCHAR 00FD
ENCODING 253
SWIDTH 604 0
DWIDTH 47 0
BBX 47 67 11 0
BITMAP
00000003FF00
00000007FF00
0000000FFE00
0000000FFC00
0000001FF800
0000003FF000
0000007FE000
000000FFC000
000000FF0000
000001FE0000
000003FE0000
0000007C0000
000000000000
000000000000
000000001FFE
000000007FFC
00380000FFF8
05FC00007FF8
3FFC0000FFF0
7FFE0001FFF0
FFFE0003FFE0
FFFE0007FFC0
7FFF0007FF80
7FFF000FFF80
7FFF000FFF00
7FFF801FFE00
3FFF803FFE00
3FFF807FFC00
3FFF807FF800
1FFF80FFF800
1FFFC1FFF000
1FFFC3FFE000
0FFFC3FFC000
0FFFC7FFC000
0FFFCFFF8000
0FFFEFFF0000
07FFFFFF0000
07FFFFFE0000
07FFFFFC0000
03FFFFFC0000
03FFFFF80000
03FFFFF00000
03FFFFF00000
01FFFFE00000
01FFFFC00000
01FFFFC00000
00FFFF800000
00FFFF000000
00FFFF000000
007FFC000000
007FFC000000
007FFC000000
003FFC000000
003FFC000000
003FFC000000
007FFC000000
007FF8000000
007FF8000000
007FF8000000
007FF8000000
00FFF8000000
00FFF8000000
00FFF8000000
00FFF8000000
00FFF8000000
00FFF0000000
00FE00000000
ENDCHAR
STARTCHAR 00FE
ENCODING 254
SWIDTH 501 0
DWIDTH 39 0
BBX 39 54 4 0
BITMAP
0007800000
00FFFC0000
00FFFC0000
00FFFC0000
00FFFC0000
00FFFC0000
01FFF80000
01FFF90000
01FFFFE000
01FFFFFF00
01FFFFFFC0
01FFFFFFE0
01FFFFFFF0
03FFFFFFF0
03FFFFFFF8
03FFFFFFF8
03FFFFFFFC
07FFFFFFFC
03FFFFFFFC
03FFE07FFC
07FFE01FFE
07FFE00FFE
07FFC00FFE
07FFC00FFE
07FFC00FFE
0FFFC00FFE
0FFFC00FFE
0FFFC01FFE
0FFFC01FFC
0FFFC03FFC
0FFFC03FFC
0FFFC07FFC
0FFFC0FFFC
0FFFC1FFFC
1FFFC7FFFC
1FFFFFFFFC
1FFFFFFFF8
1FFFFFFFF0
3FFFFFFFE0
3FFFFFFFC0
3FFFFFFF80
3FFFFFFE00
3FFFFFF800
3FFFFF8000
7FFF800000
7FFF000000
7FFF800000
7FFF000000
7FFF000000
7FFF000000
FFFF000000
FFFE000000
FFFE000000
7FFC000000
ENDCHAR
STARTCHAR 00FF
ENCODING 255
SWIDTH 604 0
DWIDTH 47 0
BBX 47 63 11 0
BITMAP
00003C03E000
00007E07F000
0000FF07F800
0001FE0FF800
0001FE0FF000
0001FE0FF000
0001FC0FE000
0000F807C000
000030000000
000000000000
000000001FFE
000000007FFC
00380000FFF8
05FC00007FF8
3FFC0000FFF0
7FFE0001FFF0
FFFE0003FFE0
FFFE0007FFC0
7FFF0007FF80
7FFF000FFF80
7FFF000FFF00
7FFF801FFE00
3FFF803FFE00
3FFF807FFC00
3FFF807FF800
1FFF80FFF800
1FFFC1FFF000
1FFFC3FFE000
0FFFC3FFC000
0FFFC7FFC000
0FFFCFFF8000
0FFFEFFF0000
07FFFFFF0000
07FFFFFE0000
07FFFFFC0000
03FFFFFC0000
03FFFFF80000
03FFFFF00000
03FFFFF00000
01FFFFE00000
01FFFFC00000
01FFFFC00000
00FFFF800000
00FFFF000000
00FFFF000000
007FFC000000
007FFC000000
007FFC000000
003FFC000000
003FFC000000
003FFC000000
007FFC000000
007FF8000000
007FF8000000
007FF8000000
007FF8000000
00FFF8000000
00FFF8000000
00FFF8000000
00FFF8000000
00FFF8000000
00FFF0000000
00FE00000000
ENDCHAR
STARTCHAR 0100
ENCODING 256
SWIDTH 630 0
DWIDTH 49 0
BBX 50 65 1 -2
BITMAP
00000000406000
0000001FFFFFC0
0000001FFFFFC0
0000001FFFFFC0
0000001FFFFF80
0000003FFFFF80
0000003FFFFF80
0000000F000000
00000000000000
00000000000000
00000000030000
000000007F0000
00000000FF0000
00000001FF8000
00000001FF8000
00000003FF8000
00000003FF8000
00000007FF8000
00000007FF8000
0000000FFF8000
0000001FFF8000
0000001FFF8000
0000003FFF8000
0000003FFF8000
0000007FFF8000
000000FFFF8000
000000FFFF8000
000001FFFF8000
000001FFFF8000
000003FFFFC000
000007FFFFC000
000007FFFFC000
00000FFFFFC000
00000FFFFFC000
00001FFFFFC000
00003FFFFFC000
00003FFFFFC000
00007FFFFFC000
0000FF9FFFC000
0000FF0FFFC000
0001FE0FFFC000
0003FE0FFFE000
0003FC0FFFE000
0007F807FFE000
000FF007FFE000
000FE00FFFE000
001FF1FFFFE000
003FFFFFFFE000
003FFFFFFFF000
007FFFFFFFF000
00FFFFFFFFF000
00FFFFFFFFF000
01FFFF1FFFF000
03FFF01FFFF800
03FFE01FFFF800
07FFC01FFFF800
0FFF801FFFF800
0FFF801FFFFC00
1FFF001FFFFC00
1FFF001FFFFC00
3FFF001FFFFC00
7FFE000FFFFE00
7FFE000FFFFE00
FFF8000F000C00
F0000000000000
ENDCHAR
STARTCHAR 0101
ENCODING 257
SWIDTH 630 0
DWIDTH 49 0
BBX 50 65 1 -2
BITMAP
00000000406000
0000001FFFFFC0
0000001FFFFFC0
0000001FFFFFC0
0000001FFFFF80
0000003FFFFF80
0000003FFFFF80
0000000F000000
00000000000000
00000000000000
00000000030000
000000007F0000
00000000FF0000
00000001FF8000
00000001FF8000
00000003FF8000
00000003FF8000
00000007FF8000
00000007FF8000
0000000FFF8000
0000001FFF8000
0000001FFF8000
0000003FFF8000
0000003FFF8000
0000007FFF8000
000000FFFF8000
000000FFFF8000
000001FFFF8000
000001FFFF8000
000003FFFFC000
000007FFFFC000
000007FFFFC000
00000FFFFFC000
00000FFFFFC000
00001FFFFFC000
00003FFFFFC000
00003FFFFFC000
00007FFFFFC000
0000FF9FFFC000
0000FF0FFFC000
0001FE0FFFC000
0003FE0FFFE000
0003FC0FFFE000
0007F807FFE000
000FF007FFE000
000FE00FFFE000
001FF1FFFFE000
003FFFFFFFE000
003FFFFFFFF000
007FFFFFFFF000
00FFFFFFFFF000
00FFFFFFFFF000
01FFFF1FFFF000
03FFF01FFFF800
03FFE01FFFF800
07FFC01FFFF800
0FFF801FFFF800
0FFF801FFFFC00
1FFF001FFFFC00
1FFF001FFFFC00
3FFF001FFFFC00
7FFE000FFFFE00
7FFE000FFFFE00
FFF8000F000C00
F0000000000000
ENDCHAR
STARTCHAR 0102
ENCODING 258
SWIDTH 630 0
DWIDTH 49 0
BBX 51 69 1 -2
BITMAP
0000001F800FE0
0000001F801FC0
0000001FC03FC0
0000001FE07FC0
0000001FFFFF80
0000000FFFFF00
0000000FFFFF00
0000000FFFFC00
00000007FFF800
00000003FFF000
00000001FFE000
000000007F0000
00000000000000
00000000000000
00000000030000
000000007F0000
00000000FF0000
00000001FF8000
00000001FF8000
00000003FF8000
00000003FF8000
00000007FF8000
00000007FF8000
0000000FFF8000
0000001FFF8000
0000001FFF8000
0000003FFF8000
0000003FFF8000
0000007FFF8000
000000FFFF8000
000000FFFF8000
000001FFFF8000
000001FFFF8000
000003FFFFC000
000007FFFFC000
000007FFFFC000
00000FFFFFC000
00000FFFFFC000
00001FFFFFC000
00003FFFFFC000
00003FFFFFC000
00007FFFFFC000
0000FF9FFFC000
0000FF0FFFC000
0001FE0FFFC000
0003FE0FFFE000
0003FC0FFFE000
0007F807FFE000
000FF007FFE000
000FF00FFFE000
001FF1FFFFE000
003FFFFFFFE000
003FFFFFFFF000
007FFFFFFFF000
00FFFFFFFFF000
00FFFFFFFFF000
01FFFF1FFFF000
03FFF01FFFF800
03FFE01FFFF800
07FFC01FFFF800
0FFF801FFFF800
0FFF801FFFFC00
1FFF001FFFFC00
1FFF001FFFFC00
3FFF001FFFFC00
7FFE000FFFFE00
7FFE000FFFFE00
FFF8000F000C00
F0000000000000
ENDCHAR
STARTCHAR 0103
ENCODING 259
SWIDTH 630 0
DWIDTH 49 0
BBX 51 69 1 -2
BITMAP
0000001F800FE0
0000001F801FC0
0000001FC03FC0
0000001FE07FC0
0000001FFFFF80
0000000FFFFF00
0000000FFFFF00
0000000FFFFC00
00000007FFF800
00000003FFF000
00000001FFE000
000000007F0000
00000000000000
00000000000000
00000000030000
000000007F0000
00000000FF0000
00000001FF8000
00000001FF8000
00000003FF8000
00000003FF8000
00000007FF8000
00000007FF8000
0000000FFF8000
0000001FFF8000
0000001FFF8000
0000003FFF8000
0000003FFF8000
0000007FFF8000
000000FFFF8000
000000FFFF8000
000001FFFF8000
000001FFFF8000
000003FFFFC000
000007FFFFC000
000007FFFFC000
00000FFFFFC000
00000FFFFFC000
00001FFFFFC000
00003FFFFFC000
00003FFFFFC000
00007FFFFFC000
0000FF9FFFC000
0000FF0FFFC000
0001FE0FFFC000
0003FE0FFFE000
0003FC0FFFE000
0007F807FFE000
000FF007FFE000
000FF00FFFE000
001FF1FFFFE000
003FFFFFFFE000
003FFFFFFFF000
007FFFFFFFF000
00FFFFFFFFF000
00FFFFFFFFF000
01FFFF1FFFF000
03FFF01FFFF800
03FFE01FFFF800
07FFC01FFFF800
0FFF801FFFF800
0FFF801FFFFC00
1FFF001FFFFC00
1FFF001FFFFC00
3FFF001FFFFC00
7FFE000FFFFE00
7FFE000FFFFE00
FFF8000F000C00
F0000000000000
ENDCHAR
STARTCHAR 0104
ENCODING 260
SWIDTH 630 0
DWIDTH 49 0
BBX 47 66 1 -13
BITMAP
000000000300
000000007F00
00000000FF00
00000001FF80
00000001FF80
00000003FF80
00000003FF80
00000007FF80
00000007FF80
0000000FFF80
0000001FFF80
0000001FFF80
0000003FFF80
0000003FFF80
0000007FFF80
000000FFFF80
000000FFFF80
000001FFFF80
000001FFFF80
000003FFFFC0
000007FFFFC0
000007FFFFC0
00000FFFFFC0
00000FFFFFC0
00001FFFFFC0
00003FFFFFC0
00003FFFFFC0
00007FFFFFC0
0000FF9FFFC0
0000FF0FFFC0
0001FE0FFFC0
0003FE0FFFE0
0003FC0FFFE0
0007F807FFE0
000FF007FFE0
000FF00FFFE0
001FF1FFFFE0
003FFFFFFFE0
003FFFFFFFF0
007FFFFFFFF0
00FFFFFFFFF0
00FFFFFFFFF0
01FFFF1FFFF0
03FFF01FFFF8
03FFE01FFFF8
07FFC01FFFF8
0FFF801FFFF8
0FFF801FFFFC
1FFF001FFFFC
1FFF001FFFFC
3FFF001FFFFC
7FFE000FFFFE
7FFE001FFFFE
FFF8003F000C
F000007F0000
000000FE0000
000000FE0000
000001FC0000
000003FC0000
000003FC03C0
000003FFFFC0
000003FFFFC0
000003FFFFC0
000003FFFF80
000001FFFF80
0000003FFE00
ENDCHAR
STARTCHAR 0105
ENCODING 261
SWIDTH 630 0
DWIDTH 49 0
BBX 47 66 1 -13
BITMAP
000000000300
000000007F00
00000000FF00
00000001FF80
00000001FF80
00000003FF80
00000003FF80
00000007FF80
00000007FF80
0000000FFF80
0000001FFF80
0000001FFF80
0000003FFF80
0000003FFF80
0000007FFF80
000000FFFF80
000000FFFF80
000001FFFF80
000001FFFF80
000003FFFFC0
000007FFFFC0
000007FFFFC0
00000FFFFFC0
00000FFFFFC0
00001FFFFFC0
00003FFFFFC0
00003FFFFFC0
00007FFFFFC0
0000FF9FFFC0
0000FF0FFFC0
0001FE0FFFC0
0003FE0FFFE0
0003FC0FFFE0
0007F807FFE0
000FF007FFE0
000FF00FFFE0
001FF1FFFFE0
003FFFFFFFE0
003FFFFFFFF0
007FFFFFFFF0
00FFFFFFFFF0
00FFFFFFFFF0
01FFFF1FFFF0
03FFF01FFFF8
03FFE01FFFF8
07FFC01FFFF8
0FFF801FFFF8
0FFF801FFFFC
1FFF001FFFFC
1FFF001FFFFC
3FFF001FFFFC
7FFE000FFFFE
7FFE001FFFFE
FFF8003F000C
F000007F0000
000000FE0000
000000FE0000
000001FC0000
000003FC0000
000003FC03C0
000003FFFFC0
000003FFFFC0
000003FFFFC0
000003FFFF80
000001FFFF80
0000003FFE00
ENDCHAR
STARTCHAR 0106
ENCODING 262
SWIDTH 488 0
DWIDTH 38 0
BBX 44 66 6 1
BITMAP
000000003FF0
000000007FF0
00000000FFE0
00000000FFC0
00000001FF80
00000003FF00
00000007FE00
0000000FFC00
0000000FF000
0000001FE000
0000003FE000
00000007C000
000000000000
000000000000
0000007E0000
000003FFE000
00001FFFF800
0000FFFFFC00
0003FFFFFE00
000FFFFFFF00
001FFFFFFF80
003FFFFFFF80
007FFFFFFF00
00FFFFFFFF00
01FFFFFFFF00
03FFFFFFFE00
03FFFFFFFE00
07FFFFFFFE00
07FFFFFFFC00
0FFFFFC04000
0FFFFE000000
1FFFF8000000
1FFFF0000000
3FFFE0000000
3FFFC0000000
3FFFC0000000
3FFF80000000
3FFF80000000
7FFF80000000
7FFF80000000
7FFF80000000
7FFF80000000
FFFFC0000000
FFFFE003E000
FFFFF1FFE000
FFFFFFFFE000
FFFFFFFFE000
FFFFFFFFE000
FFFFFFFFC000
FFFFFFFFC000
FFFFFFFFC000
FFFFFFFFC000
FFFFFFFF8000
7FFFFFFF8000
7FFFFFFF8000
7FFFFFFF8000
7FFFFFFF8000
7FFFFFFF0000
3FFFFFFE0000
3FFFFFFC0000
3FFFFFF00000
1FFFFFF00000
1FFFFFE00000
01FFFF800000
00FFFE000000
0007F0000000
ENDCHAR
STARTCHAR 0107
ENCODING 263
SWIDTH 488 0
DWIDTH 38 0
BBX 44 66 6 1
BITMAP
000000003FF0
000000007FF0
00000000FFE0
00000000FFC0
00000001FF80
00000003FF00
00000007FE00
0000000FFC00
0000000FF000
0000001FE000
0000003FE000
00000007C000
000000000000
000000000000
0000007E0000
000003FFE000
00001FFFF800
0000FFFFFC00
0003FFFFFE00
000FFFFFFF00
001FFFFFFF80
003FFFFFFF80
007FFFFFFF00
00FFFFFFFF00
01FFFFFFFF00
03FFFFFFFE00
03FFFFFFFE00
07FFFFFFFE00
07FFFFFFFC00
0FFFFFC04000
0FFFFE000000
1FFFF8000000
1FFFF0000000
3FFFE0000000
3FFFC0000000
3FFFC0000000
3FFF80000000
3FFF80000000
7FFF80000000
7FFF80000000
7FFF80000000
7FFF80000000
FFFFC0000000
FFFFE003E000
FFFFF1FFE000
FFFFFFFFE000
FFFFFFFFE000
FFFFFFFFE000
FFFFFFFFC000
FFFFFFFFC000
FFFFFFFFC000
FFFFFFFFC000
FFFFFFFF8000
7FFFFFFF8000
7FFFFFFF8000
7FFFFFFF8000
7FFFFFFF8000
7FFFFFFF0000
3FFFFFFE0000
3FFFFFFC0000
3FFFFFF00000
1FFFFFF00000
1FFFFFE00000
01FFFF800000
00FFFE000000
0007F0000000
ENDCHAR
STARTCHAR 0108
ENCODING 264
SWIDTH 488 0
DWIDTH 38 0
BBX 41 66 6 1
BITMAP
00000003C000
0000001FE000
0000003FF000
000000FFF800
000001FFFC00
000007FFFE00
00000FFFFF00
00001FFFFF80
00003FF9FF80
00003FE0FF80
00003FC07F80
00001E003E00
000000000000
000000000000
0000007E0000
000003FFE000
00001FFFF800
0000FFFFFC00
0003FFFFFE00
000FFFFFFF00
001FFFFFFF80
003FFFFFFF80
007FFFFFFF00
00FFFFFFFF00
01FFFFFFFF00
03FFFFFFFE00
03FFFFFFFE00
07FFFFFFFE00
07FFFFFFFC00
0FFFFFC04000
0FFFFE000000
1FFFF8000000
1FFFF0000000
3FFFE0000000
3FFFC0000000
3FFFC0000000
3FFF80000000
3FFF80000000
7FFF80000000
7FFF80000000
7FFF80000000
7FFF80000000
FFFFC0000000
FFFFE003E000
FFFFF1FFE000
FFFFFFFFE000
FFFFFFFFE000
FFFFFFFFE000
FFFFFFFFC000
FFFFFFFFC000
FFFFFFFFC000
FFFFFFFFC000
FFFFFFFF8000
7FFFFFFF8000
7FFFFFFF8000
7FFFFFFF8000
7FFFFFFF8000
7FFFFFFF0000
3FFFFFFE0000
3FFFFFFC0000
3FFFFFF00000
1FFFFFF00000
1FFFFFE00000
01FFFF800000
00FFFE000000
0007F0000000
ENDCHAR
STARTCHAR 0109
ENCODING 265
SWIDTH 488 0
DWIDTH 38 0
BBX 41 66 6 1
BITMAP
00000003C000
0000001FE000
0000003FF000
000000FFF800
000001FFFC00
000007FFFE00
00000FFFFF00
00001FFFFF80
00003FF9FF80
00003FE0FF80
00003FC07F80
00001E003E00
000000000000
000000000000
0000007E0000
000003FFE000
00001FFFF800
0000FFFFFC00
0003FFFFFE00
000FFFFFFF00
001FFFFFFF80
003FFFFFFF80
007FFFFFFF00
00FFFFFFFF00
01FFFFFFFF00
03FFFFFFFE00
03FFFFFFFE00
07FFFFFFFE00
07FFFFFFFC00
0FFFFFC04000
0FFFFE000000
1FFFF8000000
1FFFF0000000
3FFFE0000000
3FFFC0000000
3FFFC0000000
3FFF80000000
3FFF80000000
7FFF80000000
7FFF80000000
7FFF80000000
7FFF80000000
FFFFC0000000
FFFFE003E000
FFFFF1FFE000
FFFFFFFFE000
FFFFFFFFE000
FFFFFFFFE000
FFFFFFFFC000
FFFFFFFFC000
FFFFFFFFC000
FFFFFFFFC000
FFFFFFFF8000
7FFFFFFF8000
7FFFFFFF8000
7FFFFFFF8000
7FFFFFFF8000
7FFFFFFF0000
3FFFFFFE0000
3FFFFFFC0000
3FFFFFF00000
1FFFFFF00000
1FFFFFE00000
01FFFF800000
00FFFE000000
0007F0000000
ENDCHAR
STARTCHAR 010A
ENCODING 266
SWIDTH 488 0
DWIDTH 38 0
BBX 41 62 6 1
BITMAP
0000000E0000
0000001F8000
0000003F8000
0000007F8000
0000007F8000
0000007F8000
0000007F0000
0000003E0000
0000000C0000
000000000000
0000007E0000
000003FFE000
00001FFFF800
0000FFFFFC00
0003FFFFFE00
000FFFFFFF00
001FFFFFFF80
003FFFFFFF80
007FFFFFFF00
00FFFFFFFF00
01FFFFFFFF00
03FFFFFFFE00
03FFFFFFFE00
07FFFFFFFE00
07FFFFFFFC00
0FFFFFC04000
0FFFFE000000
1FFFF8000000
1FFFF0000000
3FFFE0000000
3FFFC0000000
3FFFC0000000
3FFF80000000
3FFF80000000
7FFF80000000
7FFF80000000
7FFF80000000
7FFF80000000
FFFFC0000000
FFFFE003E000
FFFFF1FFE000
FFFFFFFFE000
FFFFFFFFE000
FFFFFFFFE000
FFFFFFFFC000
FFFFFFFFC000
FFFFFFFFC000
FFFFFFFFC000
FFFFFFFF8000
7FFFFFFF8000
7FFFFFFF8000
7FFFFFFF8000
7FFFFFFF8000
7FFFFFFF0000
3FFFFFFE0000
3FFFFFFC0000
3FFFFFF00000
1FFFFFF00000
1FFFFFE00000
01FFFF800000
00FFFE000000
0007F0000000
ENDCHAR
STARTCHAR 010B
ENCODING 267
SWIDTH 488 0
DWIDTH 38 0
BBX 41 62 6 1
BITMAP
0000000E0000
0000001F8000
0000003F8000
0000007F8000
0000007F8000
0000007F8000
0000007F0000
0000003E0000
0000000C0000
000000000000
0000007E0000
000003FFE000
00001FFFF800
0000FFFFFC00
0003FFFFFE00
000FFFFFFF00
001FFFFFFF80
003FFFFFFF80
007FFFFFFF00
00FFFFFFFF00
01FFFFFFFF00
03FFFFFFFE00
03FFFFFFFE00
07FFFFFFFE00
07FFFFFFFC00
0FFFFFC04000
0FFFFE000000
1FFFF8000000
1FFFF0000000
3FFFE0000000
3FFFC0000000
3FFFC0000000
3FFF80000000
3FFF80000000
7FFF80000000
7FFF80000000
7FFF80000000
7FFF80000000
FFFFC0000000
FFFFE003E000
FFFFF1FFE000
FFFFFFFFE000
FFFFFFFFE000
FFFFFFFFE000
FFFFFFFFC000
FFFFFFFFC000
FFFFFFFFC000
FFFFFFFFC000
FFFFFFFF8000
7FFFFFFF8000
7FFFFFFF8000
7FFFFFFF8000
7FFFFFFF8000
7FFFFFFF0000
3FFFFFFE0000
3FFFFFFC0000
3FFFFFF00000
1FFFFFF00000
1FFFFFE00000
01FFFF800000
00FFFE000000
0007F0000000
ENDCHAR
STARTCHAR 010C
ENCODING 268
SWIDTH 488 0
DWIDTH 38 0
BBX 43 66 6 1
BITMAP
000007C007C0
00000FE03FE0
00001FF07FE0
00001FF9FFC0
00000FFFFF80
00000FFFFF00
000007FFFE00
000003FFFC00
000001FFF000
000000FFE000
0000007F8000
0000003C0000
000000000000
000000000000
0000007E0000
000003FFE000
00001FFFF800
0000FFFFFC00
0003FFFFFE00
000FFFFFFF00
001FFFFFFF80
003FFFFFFF80
007FFFFFFF00
00FFFFFFFF00
01FFFFFFFF00
03FFFFFFFE00
03FFFFFFFE00
07FFFFFFFE00
07FFFFFFFC00
0FFFFFC04000
0FFFFE000000
1FFFF8000000
1FFFF0000000
3FFFE0000000
3FFFC0000000
3FFFC0000000
3FFF80000000
3FFF80000000
7FFF80000000
7FFF80000000
7FFF80000000
7FFF80000000
FFFFC0000000
FFFFE003E000
FFFFF1FFE000
FFFFFFFFE000
FFFFFFFFE000
FFFFFFFFE000
FFFFFFFFC000
FFFFFFFFC000
FFFFFFFFC000
FFFFFFFFC000
FFFFFFFF8000
7FFFFFFF8000
7FFFFFFF8000
7FFFFFFF8000
7FFFFFFF8000
7FFFFFFF0000
3FFFFFFE0000
3FFFFFFC0000
3FFFFFF00000
1FFFFFF00000
1FFFFFE00000
01FFFF800000
00FFFE000000
0007F0000000
ENDCHAR
STARTCHAR 010D
ENCODING 269
SWIDTH 488 0
DWIDTH 38 0
BBX 43 66 6 1
BITMAP
000007C007C0
00000FE03FE0
00001FF07FE0
00001FF9FFC0
00000FFFFF80
00000FFFFF00
000007FFFE00
000003FFFC00
000001FFF000
000000FFE000
0000007F8000
0000003C0000
000000000000
000000000000
0000007E0000
000003FFE000
00001FFFF800
0000FFFFFC00
0003FFFFFE00
000FFFFFFF00
001FFFFFFF80
003FFFFFFF80
007FFFFFFF00
00FFFFFFFF00
01FFFFFFFF00
03FFFFFFFE00
03FFFFFFFE00
07FFFFFFFE00
07FFFFFFFC00
0FFFFFC04000
0FFFFE000000
1FFFF8000000
1FFFF0000000
3FFFE0000000
3FFFC0000000
3FFFC0000000
3FFF80000000
3FFF80000000
7FFF80000000
7FFF80000000
7FFF80000000
7FFF80000000
FFFFC0000000
FFFFE003E000
FFFFF1FFE000
FFFFFFFFE000
FFFFFFFFE000
FFFFFFFFE000
FFFFFFFFC000
FFFFFFFFC000
FFFFFFFFC000
FFFFFFFFC000
FFFFFFFF8000
7FFFFFFF8000
7FFFFFFF8000
7FFFFFFF8000
7FFFFFFF8000
7FFFFFFF0000
3FFFFFFE0000
3FFFFFFC0000
3FFFFFF00000
1FFFFFF00000
1FFFFFE00000
01FFFF800000
00FFFE000000
0007F0000000
ENDCHAR
STARTCHAR 010E
ENCODING 270
SWIDTH 462 0
DWIDTH 36 0
BBX 34 68 8 0
BITMAP
0000007C00
001803FE00
00FE07FC00
01FF0FFC00
01FFBFF800
01FFFFF000
00FFFFE000
007FFFC000
003FFF8000
001FFE0000
000FFC0000
0003F00000
0001C00000
0000000000
0000000000
00FFE00000
03FFF80000
0FFFFF0000
0FFFFFC000
0FFFFFF000
1FFFFFF000
1FFFFFF800
1FFFFFFC00
1FFFFFFC00
3FFFFFFE00
3FFFFFFE00
3FFFFFFF00
3FFFFFFF00
3FFFFFFF80
3FFF9FFF80
7FFF07FF80
7FFF01FF80
7FFE00FFC0
7FFE00FFC0
7FFC00FFC0
7FFC01FFC0
7FFC01FFC0
7FFC01FF80
7FFC03FF80
7FFC03FF80
FFFC07FF00
FFFC0FFF00
FFFC0FFE00
FFFC1FFC00
FFFC3FFC00
FFFCFFF800
FFFDFFF000
FFFFFFF000
FFFFFFE000
FFFFFFC000
FFFFFFC000
FFFFFF8000
FFFFFF0000
FFFFFE0000
FFFFFC0000
FFFFFC0000
FFFFF80000
FFFFF00000
FFFFE00000
FFFFC00000
FFFF000000
FFFE000000
FFF8000000
FFE0000000
FF80000000
FE00000000
7000000000
4000000000
ENDCHAR
STARTCHAR 010F
ENCODING 271
SWIDTH 462 0
DWIDTH 36 0
BBX 34 68 8 0
BITMAP
0000007C00
001803FE00
00FE07FC00
01FF0FFC00
01FFBFF800
01FFFFF000
00FFFFE000
007FFFC000
003FFF8000
001FFE0000
000FFC0000
0003F00000
0001C00000
0000000000
0000000000
00FFE00000
03FFF80000
0FFFFF0000
0FFFFFC000
0FFFFFF000
1FFFFFF000
1FFFFFF800
1FFFFFFC00
1FFFFFFC00
3FFFFFFE00
3FFFFFFE00
3FFFFFFF00
3FFFFFFF00
3FFFFFFF80
3FFF9FFF80
7FFF07FF80
7FFF01FF80
7FFE00FFC0
7FFE00FFC0
7FFC00FFC0
7FFC01FFC0
7FFC01FFC0
7FFC01FF80
7FFC03FF80
7FFC03FF80
FFFC07FF00
FFFC0FFF00
FFFC0FFE00
FFFC1FFC00
FFFC3FFC00
FFFCFFF800
FFFDFFF000
FFFFFFF000
FFFFFFE000
FFFFFFC000
FFFFFFC000
FFFFFF8000
FFFFFF0000
FFFFFE0000
FFFFFC0000
FFFFFC0000
FFFFF80000
FFFFF00000
FFFFE00000
FFFFC00000
FFFF000000
FFFE000000
FFF8000000
FFE0000000
FF80000000
FE00000000
7000000000
4000000000
ENDCHAR
STARTCHAR 0110
ENCODING 272
SWIDTH 488 0
DWIDTH 38 0
BBX 38 53 6 0
BITMAP
000FFE0000
001FFFC000
00FFFFF000
00FFFFFC00
00FFFFFF00
00FFFFFF80
00FFFFFF80
01FFFFFFC0
01FFFFFFE0
01FFFFFFE0
01FFFFFFF0
01FFFFFFF0
03FFFFFFF8
03FFFFFFF8
03FFFCFFF8
03FFF83FFC
03FFF01FFC
03FFFF0FFC
03FFFF0FFC
07FFFF0FFC
7FFFFF0FFC
7FFFFF0FFC
7FFFFF1FFC
7FFFFF1FFC
FFFFFF3FF8
FFFFFF3FF8
FFFFFF7FF0
FFFFE0FFE0
FFFFC1FFE0
FFFFC3FFC0
27FFC7FF80
07FFDFFF80
07FFFFFF00
07FFFFFE00
07FFFFFE00
07FFFFFC00
07FFFFF800
07FFFFF000
07FFFFF000
07FFFFE000
07FFFFC000
07FFFF8000
07FFFF0000
07FFFE0000
07FFFC0000
07FFF80000
07FFF00000
07FFC00000
07FF000000
07FC000000
07E0000000
0780000000
0600000000
ENDCHAR
STARTCHAR 0111
ENCODING 273
SWIDTH 488 0
DWIDTH 38 0
BBX 38 53 6 0
BITMAP
000FFE0000
001FFFC000
00FFFFF000
00FFFFFC00
00FFFFFF00
00FFFFFF80
00FFFFFF80
01FFFFFFC0
01FFFFFFE0
01FFFFFFE0
01FFFFFFF0
01FFFFFFF0
03FFFFFFF8
03FFFFFFF8
03FFFCFFF8
03FFF83FFC
03FFF01FFC
03FFFF0FFC
03FFFF0FFC
07FFFF0FFC
7FFFFF0FFC
7FFFFF0FFC
7FFFFF1FFC
7FFFFF1FFC
FFFFFF3FF8
FFFFFF3FF8
FFFFFF7FF0
FFFFE0FFE0
FFFFC1FFE0
FFFFC3FFC0
27FFC7FF80
07FFDFFF80
07FFFFFF00
07FFFFFE00
07FFFFFE00
07FFFFFC00
07FFFFF800
07FFFFF000
07FFFFF000
07FFFFE000
07FFFFC000
07FFFF8000
07FFFF0000
07FFFE0000
07FFFC0000
07FFF80000
07FFF00000
07FFC00000
07FF000000
07FC000000
07E0000000
0780000000
0600000000
ENDCHAR
STARTCHAR 0112
ENCODING 274
SWIDTH 488 0
DWIDTH 38 0
BBX 31 64 10 0
BITMAP
000000E0
0007FFE0
07FFFFE0
0FFFFFE0
0FFFFFE0
0FFFFFE0
0FFFFE00
0FFF8000
1FC00000
00000000
003FFFC0
01FFFFFC
0FFFFFFE
3FFFFFFC
3FFFFFFC
3FFFFFF8
3FFFFFF8
3FFFFFF0
3FFFFFF0
3FFFFFE0
3FFFFFE0
3FFFFFE0
3FFFFFC0
3FFFFFE0
3FFFFFC0
3FFFFF80
3FFF8000
3FFE0000
3FFE0000
3FFE0000
3FFE0000
3FFE0100
3FFE3F00
3FFFFF00
3FFFFE00
3FFFFE00
3FFFFE00
3FFFFE00
3FFFFE00
3FFFFE00
3FFF0000
3FFC0000
3FFC0000
3FFE0030
3FFFFFF0
3FFFFFF0
7FFFFFF8
3FFFFFF8
7FFFFFF8
7FFFFFF8
7FFFFFF8
7FFFFFF8
7FFFFFF8
7FFFFFF8
FFFFFFF8
FFFFFFF8
FFFFFFF8
FFFFFFF8
FFFFFFE0
FFFFFE00
FFFFE000
FFFE0000
FFC00000
68000000
ENDCHAR
STARTCHAR 0113
ENCODING 275
SWIDTH 488 0
DWIDTH 38 0
BBX 31 64 10 0
BITMAP
000000E0
0007FFE0
07FFFFE0
0FFFFFE0
0FFFFFE0
0FFFFFE0
0FFFFE00
0FFF8000
1FC00000
00000000
003FFFC0
01FFFFFC
0FFFFFFE
3FFFFFFC
3FFFFFFC
3FFFFFF8
3FFFFFF8
3FFFFFF0
3FFFFFF0
3FFFFFE0
3FFFFFE0
3FFFFFE0
3FFFFFC0
3FFFFFE0
3FFFFFC0
3FFFFF80
3FFF8000
3FFE0000
3FFE0000
3FFE0000
3FFE0000
3FFE0100
3FFE3F00
3FFFFF00
3FFFFE00
3FFFFE00
3FFFFE00
3FFFFE00
3FFFFE00
3FFFFE00
3FFF0000
3FFC0000
3FFC0000
3FFE0030
3FFFFFF0
3FFFFFF0
7FFFFFF8
3FFFFFF8
7FFFFFF8
7FFFFFF8
7FFFFFF8
7FFFFFF8
7FFFFFF8
7FFFFFF8
FFFFFFF8
FFFFFFF8
FFFFFFF8
FFFFFFF8
FFFFFFE0
FFFFFE00
FFFFE000
FFFE0000
FFC00000
68000000
ENDCHAR
STARTCHAR 0114
ENCODING 276
SWIDTH 488 0
DWIDTH 38 0
BBX 31 69 10 0
BITMAP
00000018
000003F8
01E007F8
07F007F0
07F01FF0
07FC7FE0
03FFFFC0
03FFFFC0
03FFFF80
01FFFF00
01FFFC00
007FF800
003FE000
00000000
00000000
003FFFC0
01FFFFFC
0FFFFFFE
3FFFFFFC
3FFFFFFC
3FFFFFF8
3FFFFFF8
3FFFFFF0
3FFFFFF0
3FFFFFE0
3FFFFFE0
3FFFFFE0
3FFFFFC0
3FFFFFE0
3FFFFFC0
3FFFFF80
3FFF8000
3FFE0000
3FFE0000
3FFE0000
3FFE0000
3FFE0100
3FFE3F00
3FFFFF00
3FFFFE00
3FFFFE00
3FFFFE00
3FFFFE00
3FFFFE00
3FFFFE00
3FFF0000
3FFC0000
3FFC0000
3FFE0030
3FFFFFF0
3FFFFFF0
7FFFFFF8
3FFFFFF8
7FFFFFF8
7FFFFFF8
7FFFFFF8
7FFFFFF8
7FFFFFF8
7FFFFFF8
FFFFFFF8
FFFFFFF8
FFFFFFF8
FFFFFFF8
FFFFFFE0
FFFFFE00
FFFFE000
FFFE0000
FFC00000
68000000
ENDCHAR
STARTCHAR 0115
ENCODING 277
SWIDTH 488 0
DWIDTH 38 0
BBX 31 69 10 0
BITMAP
00000018
000003F8
01E007F8
07F007F0
07F01FF0
07FC7FE0
03FFFFC0
03FFFFC0
03FFFF80
01FFFF00
01FFFC00
007FF800
003FE000
00000000
00000000
003FFFC0
01FFFFFC
0FFFFFFE
3FFFFFFC
3FFFFFFC
3FFFFFF8
3FFFFFF8
3FFFFFF0
3FFFFFF0
3FFFFFE0
3FFFFFE0
3FFFFFE0
3FFFFFC0
3FFFFFE0
3FFFFFC0
3FFFFF80
3FFF8000
3FFE0000
3FFE0000
3FFE0000
3FFE0000
3FFE0100
3FFE3F00
3FFFFF00
3FFFFE00
3FFFFE00
3FFFFE00
3FFFFE00
3FFFFE00
3FFFFE00
3FFF0000
3FFC0000
3FFC0000
3FFE0030
3FFFFFF0
3FFFFFF0
7FFFFFF8
3FFFFFF8
7FFFFFF8
7FFFFFF8
7FFFFFF8
7FFFFFF8
7FFFFFF8
7FFFFFF8
FFFFFFF8
FFFFFFF8
FFFFFFF8
FFFFFFF8
FFFFFFE0
FFFFFE00
FFFFE000
FFFE0000
FFC00000
68000000
ENDCHAR
STARTCHAR 0116
ENCODING 278
SWIDTH 488 0
DWIDTH 38 0
BBX 31 64 10 0
BITMAP
0003E000
0007E000
000FF000
001FF000
001FE000
001FE000
001FC000
000F8000
00000000
00000000
003FFFC0
01FFFFFC
0FFFFFFE
3FFFFFFC
3FFFFFFC
3FFFFFF8
3FFFFFF8
3FFFFFF0
3FFFFFF0
3FFFFFE0
3FFFFFE0
3FFFFFE0
3FFFFFC0
3FFFFFE0
3FFFFFC0
3FFFFF80
3FFF8000
3FFE0000
3FFE0000
3FFE0000
3FFE0000
3FFE0100
3FFE3F00
3FFFFF00
3FFFFE00
3FFFFE00
3FFFFE00
3FFFFE00
3FFFFE00
3FFFFE00
3FFF0000
3FFC0000
3FFC0000
3FFE0030
3FFFFFF0
3FFFFFF0
7FFFFFF8
3FFFFFF8
7FFFFFF8
7FFFFFF8
7FFFFFF8
7FFFFFF8
7FFFFFF8
7FFFFFF8
FFFFFFF8
FFFFFFF8
FFFFFFF8
FFFFFFF8
FFFFFFE0
FFFFFE00
FFFFE000
FFFE0000
FFC00000
68000000
ENDCHAR
STARTCHAR 0117
ENCODING 279
SWIDTH 488 0
DWIDTH 38 0
BBX 31 64 10 0
BITMAP
0003E000
0007E000
000FF000
001FF000
001FE000
001FE000
001FC000
000F8000
00000000
00000000
003FFFC0
01FFFFFC
0FFFFFFE
3FFFFFFC
3FFFFFFC
3FFFFFF8
3FFFFFF8
3FFFFFF0
3FFFFFF0
3FFFFFE0
3FFFFFE0
3FFFFFE0
3FFFFFC0
3FFFFFE0
3FFFFFC0
3FFFFF80
3FFF8000
3FFE0000
3FFE0000
3FFE0000
3FFE0000
3FFE0100
3FFE3F00
3FFFFF00
3FFFFE00
3FFFFE00
3FFFFE00
3FFFFE00
3FFFFE00
3FFFFE00
3FFF0000
3FFC0000
3FFC0000
3FFE0030
3FFFFFF0
3FFFFFF0
7FFFFFF8
3FFFFFF8
7FFFFFF8
7FFFFFF8
7FFFFFF8
7FFFFFF8
7FFFFFF8
7FFFFFF8
FFFFFFF8
FFFFFFF8
FFFFFFF8
FFFFFFF8
FFFFFFE0
FFFFFE00
FFFFE000
FFFE0000
FFC00000
68000000
ENDCHAR
STARTCHAR 0118
ENCODING 280
SWIDTH 488 0
DWIDTH 38 0
BBX 31 66 10 -12
BITMAP
003FFFC0
01FFFFFC
0FFFFFFE
3FFFFFFC
3FFFFFFC
3FFFFFF8
3FFFFFF8
3FFFFFF0
3FFFFFF0
3FFFFFE0
3FFFFFE0
3FFFFFE0
3FFFFFC0
3FFFFFE0
3FFFFFC0
3FFFFF80
3FFF8000
3FFE0000
3FFE0000
3FFE0000
3FFE0000
3FFE0100
3FFE3F00
3FFFFF00
3FFFFE00
3FFFFE00
3FFFFE00
3FFFFE00
3FFFFE00
3FFFFE00
3FFF0000
3FFC0000
3FFC0000
3FFE0030
3FFFFFF0
3FFFFFF0
7FFFFFF8
3FFFFFF8
7FFFFFF8
7FFFFFF8
7FFFFFF8
7FFFFFF8
7FFFFFF8
7FFFFFF8
FFFFFFF8
FFFFFFF8
FFFFFFF8
FFFFFFF8
FFFFFFE0
FFFFFE00
FFFFE000
FFFF0000
FFFF0000
687E0000
00FE0000
00FC0000
01FC0000
03FC0080
03FC07C0
07FEFFC0
07FFFFC0
07FFFFC0
07FFFF80
03FFFF80
03FFFC00
00380000
ENDCHAR
STARTCHAR 0119
ENCODING 281
SWIDTH 488 0
DWIDTH 38 0
BBX 31 66 10 -12
BITMAP
003FFFC0
01FFFFFC
0FFFFFFE
3FFFFFFC
3FFFFFFC
3FFFFFF8
3FFFFFF8
3FFFFFF0
3FFFFFF0
3FFFFFE0
3FFFFFE0
3FFFFFE0
3FFFFFC0
3FFFFFE0
3FFFFFC0
3FFFFF80
3FFF8000
3FFE0000
3FFE0000
3FFE0000
3FFE0000
3FFE0100
3FFE3F00
3FFFFF00
3FFFFE00
3FFFFE00
3FFFFE00
3FFFFE00
3FFFFE00
3FFFFE00
3FFF0000
3FFC0000
3FFC0000
3FFE0030
3FFFFFF0
3FFFFFF0
7FFFFFF8
3FFFFFF8
7FFFFFF8
7FFFFFF8
7FFFFFF8
7FFFFFF8
7FFFFFF8
7FFFFFF8
FFFFFFF8
FFFFFFF8
FFFFFFF8
FFFFFFF8
FFFFFFE0
FFFFFE00
FFFFE000
FFFF0000
FFFF0000
687E0000
00FE0000
00FC0000
01FC0000
03FC0080
03FC07C0
07FEFFC0
07FFFFC0
07FFFFC0
07FFFF80
03FFFF80
03FFFC00
00380000
ENDCHAR
STARTCHAR 011A
ENCODING 282
SWIDTH 488 0
DWIDTH 38 0
BBX 31 68 10 0
BITMAP
000001F0
00600FF8
03F81FF0
07FC3FF0
07FEFFE0
07FFFFC0
03FFFF80
01FFFF00
00FFFE00
007FF800
003FF000
000FC000
00070000
00000000
003FFFC0
01FFFFFC
0FFFFFFE
3FFFFFFC
3FFFFFFC
3FFFFFF8
3FFFFFF8
3FFFFFF0
3FFFFFF0
3FFFFFE0
3FFFFFE0
3FFFFFE0
3FFFFFC0
3FFFFFE0
3FFFFFC0
3FFFFF80
3FFF8000
3FFE0000
3FFE0000
3FFE0000
3FFE0000
3FFE0100
3FFE3F00
3FFFFF00
3FFFFE00
3FFFFE00
3FFFFE00
3FFFFE00
3FFFFE00
3FFFFE00
3FFF0000
3FFC0000
3FFC0000
3FFE0030
3FFFFFF0
3FFFFFF0
7FFFFFF8
3FFFFFF8
7FFFFFF8
7FFFFFF8
7FFFFFF8
7FFFFFF8
7FFFFFF8
7FFFFFF8
FFFFFFF8
FFFFFFF8
FFFFFFF8
FFFFFFF8
FFFFFFE0
FFFFFE00
FFFFE000
FFFE0000
FFC00000
68000000
ENDCHAR
STARTCHAR 011B
ENCODING 283
SWIDTH 488 0
DWIDTH 38 0
BBX 31 68 10 0
BITMAP
000001F0
00600FF8
03F81FF0
07FC3FF0
07FEFFE0
07FFFFC0
03FFFF80
01FFFF00
00FFFE00
007FF800
003FF000
000FC000
00070000
00000000
003FFFC0
01FFFFFC
0FFFFFFE
3FFFFFFC
3FFFFFFC
3FFFFFF8
3FFFFFF8
3FFFFFF0
3FFFFFF0
3FFFFFE0
3FFFFFE0
3FFFFFE0
3FFFFFC0
3FFFFFE0
3FFFFFC0
3FFFFF80
3FFF8000
3FFE0000
3FFE0000
3FFE0000
3FFE0000
3FFE0100
3FFE3F00
3FFFFF00
3FFFFE00
3FFFFE00
3FFFFE00
3FFFFE00
3FFFFE00
3FFFFE00
3FFF0000
3FFC0000
3FFC0000
3FFE0030
3FFFFFF0
3FFFFFF0
7FFFFFF8
3FFFFFF8
7FFFFFF8
7FFFFFF8
7FFFFFF8
7FFFFFF8
7FFFFFF8
7FFFFFF8
FFFFFFF8
FFFFFFF8
FFFFFFF8
FFFFFFF8
FFFFFFE0
FFFFFE00
FFFFE000
FFFE0000
FFC00000
68000000
ENDCHAR
STARTCHAR 011C
ENCODING 284
SWIDTH 501 0
DWIDTH 39 0
BBX 42 66 4 1
BITMAP
00000003C000
0000001FE000
0000003FF000
000000FFF800
000001FFFC00
000007FFFE00
00000FFFFF00
00001FFFFF80
00003FF8FF80
00003FE0FF80
00003FC07F80
00001E003E00
000000000000
000000000000
000001FFE000
000003FFFC00
00000FFFFE00
00001FFFFF00
00003FFFFF80
00007FFFFFC0
0000FFFFFFC0
0001FFFFFFC0
0003FFFFFFC0
0007FFFFFFC0
0007FFFFFF80
000FFFF3FE00
001FFF80F800
001FFE000000
003FF8000000
003FF0000000
007FE0000000
00FFE0000000
00FFC0000000
00FFC0000000
01FF80000000
01FF80000000
03FF0003FF00
03FF007FFF00
07FE01FFFF00
07FE03FFFE00
0FFE03FFFE00
0FFE01FFFE00
0FFC01FFFE00
1FFC03FFFE00
1FFC03FFFC00
3FFC03FFFC00
3FFC03FFFC00
3FFC03FFFC00
7FFC03FFF800
7FFF07FFF800
7FFFFFFFF800
7FFFFFFFF800
FFFFFFFFF000
FFFFFFFFF000
FFFFFFFFF000
FFFFFFFFF000
FFFFFFFFC000
FFFFFFFF8000
7FFFFFFE0000
7FFFFFFC0000
3FFFFFF00000
3FFFFFC00000
1FFFFF000000
0FFFF8000000
07FFC0000000
03FE00000000
ENDCHAR
STARTCHAR 011D
ENCODING 285
SWIDTH 501 0
DWIDTH 39 0
BBX 42 66 4 1
BITMAP
00000003C000
0000001FE000
0000003FF000
000000FFF800
000001FFFC00
000007FFFE00
00000FFFFF00
00001FFFFF80
00003FF8FF80
00003FE0FF80
00003FC07F80
00001E003E00
000000000000
000000000000
000001FFE000
000003FFFC00
00000FFFFE00
00001FFFFF00
00003FFFFF80
00007FFFFFC0
0000FFFFFFC0
0001FFFFFFC0
0003FFFFFFC0
0007FFFFFFC0
0007FFFFFF80
000FFFF3FE00
001FFF80F800
001FFE000000
003FF8000000
003FF0000000
007FE0000000
00FFE0000000
00FFC0000000
00FFC0000000
01FF80000000
01FF80000000
03FF0003FF00
03FF007FFF00
07FE01FFFF00
07FE03FFFE00
0FFE03FFFE00
0FFE01FFFE00
0FFC01FFFE00
1FFC03FFFE00
1FFC03FFFC00
3FFC03FFFC00
3FFC03FFFC00
3FFC03FFFC00
7FFC03FFF800
7FFF07FFF800
7FFFFFFFF800
7FFFFFFFF800
FFFFFFFFF000
FFFFFFFFF000
FFFFFFFFF000
FFFFFFFFF000
FFFFFFFFC000
FFFFFFFF8000
7FFFFFFE0000
7FFFFFFC0000
3FFFFFF00000
3FFFFFC00000
1FFFFF000000
0FFFF8000000
07FFC0000000
03FE00000000
ENDCHAR
STARTCHAR 011E
ENCODING 286
SWIDTH 501 0
DWIDTH 39 0
BBX 43 66 4 1
BITMAP
00000FC00FE0
00000FC00FE0
00000FC01FC0
00000FE07FC0
00000FFBFF80
00000FFFFF80
00000FFFFF00
000007FFFE00
000007FFFC00
000003FFF000
000001FFE000
0000007F8000
000000000000
000000000000
000001FFE000
000003FFFC00
00000FFFFE00
00001FFFFF00
00003FFFFF80
00007FFFFFC0
0000FFFFFFC0
0001FFFFFFC0
0003FFFFFFC0
0007FFFFFFC0
0007FFFFFF80
000FFFF3FE00
001FFF80F800
001FFE000000
003FF8000000
003FF0000000
007FE0000000
00FFE0000000
00FFC0000000
00FFC0000000
01FF80000000
01FF80000000
03FF0003FF00
03FF007FFF00
07FE01FFFF00
07FE03FFFE00
0FFE03FFFE00
0FFE01FFFE00
0FFC01FFFE00
1FFC03FFFE00
1FFC03FFFC00
3FFC03FFFC00
3FFC03FFFC00
3FFC03FFFC00
7FFC03FFF800
7FFF07FFF800
7FFFFFFFF800
7FFFFFFFF800
FFFFFFFFF000
FFFFFFFFF000
FFFFFFFFF000
FFFFFFFFF000
FFFFFFFFC000
FFFFFFFF8000
7FFFFFFE0000
7FFFFFFC0000
3FFFFFF00000
3FFFFFC00000
1FFFFF000000
0FFFF8000000
07FFC0000000
03FE00000000
ENDCHAR
STARTCHAR 011F
ENCODING 287
SWIDTH 501 0
DWIDTH 39 0
BBX 43 66 4 1
BITMAP
00000FC00FE0
00000FC00FE0
00000FC01FC0
00000FE07FC0
00000FFBFF80
00000FFFFF80
00000FFFFF00
000007FFFE00
000007FFFC00
000003FFF000
000001FFE000
0000007F8000
000000000000
000000000000
000001FFE000
000003FFFC00
00000FFFFE00
00001FFFFF00
00003FFFFF80
00007FFFFFC0
0000FFFFFFC0
0001FFFFFFC0
0003FFFFFFC0
0007FFFFFFC0
0007FFFFFF80
000FFFF3FE00
001FFF80F800
001FFE000000
003FF8000000
003FF0000000
007FE0000000
00FFE0000000
00FFC0000000
00FFC0000000
01FF80000000
01FF80000000
03FF0003FF00
03FF007FFF00
07FE01FFFF00
07FE03FFFE00
0FFE03FFFE00
0FFE01FFFE00
0FFC01FFFE00
1FFC03FFFE00
1FFC03FFFC00
3FFC03FFFC00
3FFC03FFFC00
3FFC03FFFC00
7FFC03FFF800
7FFF07FFF800
7FFFFFFFF800
7FFFFFFFF800
FFFFFFFFF000
FFFFFFFFF000
FFFFFFFFF000
FFFFFFFFF000
FFFFFFFFC000
FFFFFFFF8000
7FFFFFFE0000
7FFFFFFC0000
3FFFFFF00000
3FFFFFC00000
1FFFFF000000
0FFFF8000000
07FFC0000000
03FE00000000
ENDCHAR
STARTCHAR 0120
ENCODING 288
SWIDTH 501 0
DWIDTH 39 0
BBX 42 62 4 1
BITMAP
0000000E0000
0000001F8000
0000003F8000
0000007F8000
0000007F8000
0000007F8000
0000007F0000
0000003E0000
0000000C0000
000000000000
000001FFE000
000003FFFC00
00000FFFFE00
00001FFFFF00
00003FFFFF80
00007FFFFFC0
0000FFFFFFC0
0001FFFFFFC0
0003FFFFFFC0
0007FFFFFFC0
0007FFFFFF80
000FFFF3FE00
001FFF80F800
001FFE000000
003FF8000000
003FF0000000
007FE0000000
00FFE0000000
00FFC0000000
00FFC0000000
01FF80000000
01FF80000000
03FF0003FF00
03FF007FFF00
07FE01FFFF00
07FE03FFFE00
0FFE03FFFE00
0FFE01FFFE00
0FFC01FFFE00
1FFC03FFFE00
1FFC03FFFC00
3FFC03FFFC00
3FFC03FFFC00
3FFC03FFFC00
7FFC03FFF800
7FFF07FFF800
7FFFFFFFF800
7FFFFFFFF800
FFFFFFFFF000
FFFFFFFFF000
FFFFFFFFF000
FFFFFFFFF000
FFFFFFFFC000
FFFFFFFF8000
7FFFFFFE0000
7FFFFFFC0000
3FFFFFF00000
3FFFFFC00000
1FFFFF000000
0FFFF8000000
07FFC0000000
03FE00000000
ENDCHAR
STARTCHAR 0121
ENCODING 289
SWIDTH 501 0
DWIDTH 39 0
BBX 42 62 4 1
BITMAP
0000000E0000
0000001F8000
0000003F8000
0000007F8000
0000007F8000
0000007F8000
0000007F0000
0000003E0000
0000000C0000
000000000000
000001FFE000
000003FFFC00
00000FFFFE00
00001FFFFF00
00003FFFFF80
00007FFFFFC0
0000FFFFFFC0
0001FFFFFFC0
0003FFFFFFC0
0007FFFFFFC0
0007FFFFFF80
000FFFF3FE00
001FFF80F800
001FFE000000
003FF8000000
003FF0000000
007FE0000000
00FFE0000000
00FFC0000000
00FFC0000000
01FF80000000
01FF80000000
03FF0003FF00
03FF007FFF00
07FE01FFFF00
07FE03FFFE00
0FFE03FFFE00
0FFE01FFFE00
0FFC01FFFE00
1FFC03FFFE00
1FFC03FFFC00
3FFC03FFFC00
3FFC03FFFC00
3FFC03FFFC00
7FFC03FFF800
7FFF07FFF800
7FFFFFFFF800
7FFFFFFFF800
FFFFFFFFF000
FFFFFFFFF000
FFFFFFFFF000
FFFFFFFFF000
FFFFFFFFC000
FFFFFFFF8000
7FFFFFFE0000
7FFFFFFC0000
3FFFFFF00000
3FFFFFC00000
1FFFFF000000
0FFFF8000000
07FFC0000000
03FE00000000
ENDCHAR
STARTCHAR 0122
ENCODING 290
SWIDTH 501 0
DWIDTH 39 0
BBX 42 66 4 -13
BITMAP
000001FFE000
000003FFFC00
00000FFFFE00
00001FFFFF00
00003FFFFF80
00007FFFFFC0
0000FFFFFFC0
0001FFFFFFC0
0003FFFFFFC0
0007FFFFFFC0
0007FFFFFF80
000FFFF3FE00
001FFF80F800
001FFE000000
003FF8000000
003FF0000000
007FE0000000
00FFE0000000
00FFC0000000
00FFC0000000
01FF80000000
01FF80000000
03FF0003FF00
03FF007FFF00
07FE01FFFF00
07FE03FFFE00
0FFE03FFFE00
0FFE01FFFE00
0FFC01FFFE00
1FFC03FFFE00
1FFC03FFFC00
3FFC03FFFC00
3FFC03FFFC00
3FFC03FFFC00
7FFC03FFF800
7FFF07FFF800
7FFFFFFFF800
7FFFFFFFF800
FFFFFFFFF000
FFFFFFFFF000
FFFFFFFFF000
FFFFFFFFF000
FFFFFFFFC000
FFFFFFFF8000
7FFFFFFE0000
7FFFFFFC0000
3FFFFFF00000
3FFFFFC00000
1FFFFF000000
0FFFF8000000
07FFC0000000
03FE00000000
000000000000
000000000000
01FF00000000
03FF00000000
07FF00000000
07FF00000000
07FE00000000
0FFE00000000
0FFC00000000
1FF800000000
1FF000000000
1FE000000000
1FC000000000
078000000000
ENDCHAR
STARTCHAR 0123
ENCODING 291
SWIDTH 501 0
DWIDTH 39 0
BBX 42 66 4 -13
BITMAP
000001FFE000
000003FFFC00
00000FFFFE00
00001FFFFF00
00003FFFFF80
00007FFFFFC0
0000FFFFFFC0
0001FFFFFFC0
0003FFFFFFC0
0007FFFFFFC0
0007FFFFFF80
000FFFF3FE00
001FFF80F800
001FFE000000
003FF8000000
003FF0000000
007FE0000000
00FFE0000000
00FFC0000000
00FFC0000000
01FF80000000
01FF80000000
03FF0003FF00
03FF007FFF00
07FE01FFFF00
07FE03FFFE00
0FFE03FFFE00
0FFE01FFFE00
0FFC01FFFE00
1FFC03FFFE00
1FFC03FFFC00
3FFC03FFFC00
3FFC03FFFC00
3FFC03FFFC00
7FFC03FFF800
7FFF07FFF800
7FFFFFFFF800
7FFFFFFFF800
FFFFFFFFF000
FFFFFFFFF000
FFFFFFFFF000
FFFFFFFFF000
FFFFFFFFC000
FFFFFFFF8000
7FFFFFFE0000
7FFFFFFC0000
3FFFFFF00000
3FFFFFC00000
1FFFFF000000
0FFFF8000000
07FFC0000000
03FE00000000
000000000000
000000000000
01FF00000000
03FF00000000
07FF00000000
07FF00000000
07FE00000000
0FFE00000000
0FFC00000000
1FF800000000
1FF000000000
1FE000000000
1FC000000000
078000000000
ENDCHAR
STARTCHAR 0124
ENCODING 292
SWIDTH 552 0
DWIDTH 43 0
BBX 51 66 2 1
BITMAP
0000000003C000
000000000FE000
000000003FF800
00000000FFFC00
00000001FFFE00
00000003FFFE00
0000000FFFFF00
0000001FFFFF80
0000003FF8FFC0
0000003FF0FF80
0000003FC07F80
0000000E003E00
00000000000000
00000000000000
0000001C000000
00000FFF000000
0000FFFF00FFE0
0001FFFE03FFE0
0003FFFC03FFE0
0003FFF807FFE0
0003FFFC07FFC0
0003FFFC0FFFC0
0003FFFC0FFFC0
0003FFF80FFFC0
0003FFF80FFF80
0007FFF81FFF80
0007FFF01FFF80
0007FFF03FFF00
000FFFF03FFF00
000FFFF03FFF00
000FFFE03FFE00
001FFFE03FFE00
001FFFE07FFE00
001FFFE0FFFE00
003FFFFFFFFC00
003FFFFFFFFC00
003FFFFFFFFC00
007FFFFFFFF800
007FFFFFFFF800
007FFFFFFFF800
00FFFFFFFFF000
00FFFFFFFFF000
00FFFFFFFFF000
01FFFFFFFFF800
01FFFFFFFFF800
01FFFFFFFFF000
01FFFFFFFFF000
03FFFFFFFFF000
03FFFFFFFFF000
03FFFC0FFFE000
07FFFC0FFFE000
07FFFC1FFFE000
07FFF81FFFC000
07FFF81FFFC000
0FFFF81FFFC000
0FFFF03FFF8000
0FFFF83FFF8000
1FFFF03FFF8000
1FFFF07FFF0000
1FFFF07FFF0000
3FFFF07FFF0000
3FFFE07FFE0000
7FFFE07FFE0000
7FFFE0FFFC0000
FFFFC0FF000000
01FF80F0000000
ENDCHAR
STARTCHAR 0125
ENCODING 293
SWIDTH 552 0
DWIDTH 43 0
BBX 51 66 2 1
BITMAP
0000000003C000
000000000FE000
000000003FF800
00000000FFFC00
00000001FFFE00
00000003FFFE00
0000000FFFFF00
0000001FFFFF80
0000003FF8FFC0
0000003FF0FF80
0000003FC07F80
0000000E003E00
00000000000000
00000000000000
0000001C000000
00000FFF000000
0000FFFF00FFE0
0001FFFE03FFE0
0003FFFC03FFE0
0003FFF807FFE0
0003FFFC07FFC0
0003FFFC0FFFC0
0003FFFC0FFFC0
0003FFF80FFFC0
0003FFF80FFF80
0007FFF81FFF80
0007FFF01FFF80
0007FFF03FFF00
000FFFF03FFF00
000FFFF03FFF00
000FFFE03FFE00
001FFFE03FFE00
001FFFE07FFE00
001FFFE0FFFE00
003FFFFFFFFC00
003FFFFFFFFC00
003FFFFFFFFC00
007FFFFFFFF800
007FFFFFFFF800
007FFFFFFFF800
00FFFFFFFFF000
00FFFFFFFFF000
00FFFFFFFFF000
01FFFFFFFFF800
01FFFFFFFFF800
01FFFFFFFFF000
01FFFFFFFFF000
03FFFFFFFFF000
03FFFFFFFFF000
03FFFC0FFFE000
07FFFC0FFFE000
07FFFC1FFFE000
07FFF81FFFC000
07FFF81FFFC000
0FFFF81FFFC000
0FFFF03FFF8000
0FFFF83FFF8000
1FFFF03FFF8000
1FFFF07FFF0000
1FFFF07FFF0000
3FFFF07FFF0000
3FFFE07FFE0000
7FFFE07FFE0000
7FFFE0FFFC0000
FFFFC0FF000000
01FF80F0000000
ENDCHAR
STARTCHAR 0126
ENCODING 294
SWIDTH 591 0
DWIDTH 46 0
BBX 52 52 2 1
BITMAP
0000003C000000
00001FFF000000
0000FFFF00FFE0
0003FFFE03FFE0
0003FFFC03FFE0
0003FFF81FFFE0
003FFFFFFFFFF0
007FFFFFFFFFF0
007FFFFFFFFFF0
007FFFFFFFFFF0
007FFFFFFFFFF0
00FFFFFFFFFFF0
00FFFFFFFFFFE0
00FFFFFFFFFFE0
00FFFFFFFFFFE0
01FFFFFFFFFFC0
007FFFF03FFF00
001FFFE03FFE00
001FFFE07FFE00
001FFFE0FFFE00
003FFFFFFFFC00
003FFFFFFFFC00
003FFFFFFFFC00
007FFFFFFFF800
007FFFFFFFF800
007FFFFFFFF800
00FFFFFFFFF000
00FFFFFFFFF000
00FFFFFFFFF000
01FFFFFFFFF800
01FFFFFFFFF800
01FFFFFFFFF000
03FFFFFFFFF000
03FFFFFFFFF000
03FFFFFFFFF000
03FFFC0FFFE000
07FFFC0FFFE000
07FFFC1FFFE000
07FFF81FFFC000
07FFF81FFFC000
0FFFF81FFFC000
0FFFF03FFF8000
0FFFF83FFF8000
1FFFF03FFF8000
1FFFF07FFF0000
1FFFF07FFF0000
3FFFF07FFF0000
3FFFE07FFE0000
7FFFE07FFE0000
7FFFC0FFFC0000
FFFFC0FF000000
01FF80E0000000
ENDCHAR
STARTCHAR 0127
ENCODING 295
SWIDTH 591 0
DWIDTH 46 0
BBX 52 52 2 1
BITMAP
0000003C000000
00001FFF000000
0000FFFF00FFE0
0003FFFE03FFE0
0003FFFC03FFE0
0003FFF81FFFE0
003FFFFFFFFFF0
007FFFFFFFFFF0
007FFFFFFFFFF0
007FFFFFFFFFF0
007FFFFFFFFFF0
00FFFFFFFFFFF0
00FFFFFFFFFFE0
00FFFFFFFFFFE0
00FFFFFFFFFFE0
01FFFFFFFFFFC0
007FFFF03FFF00
001FFFE03FFE00
001FFFE07FFE00
001FFFE0FFFE00
003FFFFFFFFC00
003FFFFFFFFC00
003FFFFFFFFC00
007FFFFFFFF800
007FFFFFFFF800
007FFFFFFFF800
00FFFFFFFFF000
00FFFFFFFFF000
00FFFFFFFFF000
01FFFFFFFFF800
01FFFFFFFFF800
01FFFFFFFFF000
03FFFFFFFFF000
03FFFFFFFFF000
03FFFFFFFFF000
03FFFC0FFFE000
07FFFC0FFFE000
07FFFC1FFFE000
07FFF81FFFC000
07FFF81FFFC000
0FFFF81FFFC000
0FFFF03FFF8000
0FFFF83FFF8000
1FFFF03FFF8000
1FFFF07FFF0000
1FFFF07FFF0000
3FFFF07FFF0000
3FFFE07FFE0000
7FFFE07FFE0000
7FFFC0FFFC0000
FFFFC0FF000000
01FF80E0000000
ENDCHAR
STARTCHAR 0128
ENCODING 296
SWIDTH 334 0
DWIDTH 26 0
BBX 40 66 2 0
BITMAP
000007E0FF
00001FF0FF
00003FF8FF
00007FFFFE
00007FFFFE
0000FFFFFE
0000FFFFFC
0000FFFFF8
0000FCFFF0
0001FC3FE0
0001F81F80
0000000000
0000000000
0000000000
00007FFEC0
0000FFFFC0
0001FFFF80
0001FFFF00
0000FFFF00
0001FFFE00
0001FFFE00
0001FFFE00
0003FFFC00
0003FFFC00
0007FFFC00
0007FFF800
0007FFF800
000FFFF800
000FFFF000
000FFFF000
001FFFF000
001FFFF000
001FFFE000
003FFFE000
003FFFE000
003FFFC000
003FFFC000
007FFFC000
007FFFC000
007FFF8000
00FFFF8000
00FFFF8000
00FFFF8000
00FFFF0000
01FFFF0000
01FFFF0000
01FFFF0000
01FFFF0000
03FFFF0000
03FFFE0000
03FFFE0000
03FFFE0000
07FFFE0000
07FFFE0000
07FFFC0000
07FFFC0000
0FFFF80000
0FFFF80000
0FFFF00000
1FFFF00000
1FFFF00000
3FFFF00000
3FFFE00000
7FFF800000
FFE0000000
FC00000000
ENDCHAR
STARTCHAR 0129
ENCODING 297
SWIDTH 334 0
DWIDTH 26 0
BBX 40 66 2 0
BITMAP
000007E0FF
00001FF0FF
00003FF8FF
00007FFFFE
00007FFFFE
0000FFFFFE
0000FFFFFC
0000FFFFF8
0000FCFFF0
0001FC3FE0
0001F81F80
0000000000
0000000000
0000000000
00007FFEC0
0000FFFFC0
0001FFFF80
0001FFFF00
0000FFFF00
0001FFFE00
0001FFFE00
0001FFFE00
0003FFFC00
0003FFFC00
0007FFFC00
0007FFF800
0007FFF800
000FFFF800
000FFFF000
000FFFF000
001FFFF000
001FFFF000
001FFFE000
003FFFE000
003FFFE000
003FFFC000
003FFFC000
007FFFC000
007FFFC000
007FFF8000
00FFFF8000
00FFFF8000
00FFFF8000
00FFFF0000
01FFFF0000
01FFFF0000
01FFFF0000
01FFFF0000
03FFFF0000
03FFFE0000
03FFFE0000
03FFFE0000
07FFFE0000
07FFFE0000
07FFFC0000
07FFFC0000
0FFFF80000
0FFFF80000
0FFFF00000
1FFFF00000
1FFFF00000
3FFFF00000
3FFFE00000
7FFF800000
FFE0000000
FC00000000
ENDCHAR
STARTCHAR 012A
ENCODING 298
SWIDTH 334 0
DWIDTH 26 0
BBX 39 63 2 0
BITMAP
0000020100
0000FFFFFE
0000FFFFFE
0000FFFFFE
0000FFFFFE
0001FFFFFC
0001FFFFFC
0000780000
0000000000
0000000000
0000000000
00007FFEC0
0000FFFFC0
0001FFFF80
0001FFFF00
0000FFFF00
0001FFFE00
0001FFFE00
0001FFFE00
0003FFFC00
0003FFFC00
0007FFFC00
0007FFF800
0007FFF800
000FFFF800
000FFFF000
000FFFF000
001FFFF000
001FFFF000
001FFFE000
003FFFE000
003FFFE000
003FFFC000
003FFFC000
007FFFC000
007FFFC000
007FFF8000
00FFFF8000
00FFFF8000
00FFFF8000
00FFFF0000
01FFFF0000
01FFFF0000
01FFFF0000
01FFFF0000
03FFFF0000
03FFFE0000
03FFFE0000
03FFFE0000
07FFFE0000
07FFFE0000
07FFFC0000
07FFFC0000
0FFFF80000
0FFFF80000
0FFFF00000
1FFFF00000
1FFFF00000
3FFFF00000
3FFFE00000
7FFF800000
FFE0000000
FC00000000
ENDCHAR
STARTCHAR 012B
ENCODING 299
SWIDTH 334 0
DWIDTH 26 0
BBX 39 63 2 0
BITMAP
0000020100
0000FFFFFE
0000FFFFFE
0000FFFFFE
0000FFFFFE
0001FFFFFC
0001FFFFFC
0000780000
0000000000
0000000000
0000000000
00007FFEC0
0000FFFFC0
0001FFFF80
0001FFFF00
0000FFFF00
0001FFFE00
0001FFFE00
0001FFFE00
0003FFFC00
0003FFFC00
0007FFFC00
0007FFF800
0007FFF800
000FFFF800
000FFFF000
000FFFF000
001FFFF000
001FFFF000
001FFFE000
003FFFE000
003FFFE000
003FFFC000
003FFFC000
007FFFC000
007FFFC000
007FFF8000
00FFFF8000
00FFFF8000
00FFFF8000
00FFFF0000
01FFFF0000
01FFFF0000
01FFFF0000
01FFFF0000
03FFFF0000
03FFFE0000
03FFFE0000
03FFFE0000
07FFFE0000
07FFFE0000
07FFFC0000
07FFFC0000
0FFFF80000
0FFFF80000
0FFFF00000
1FFFF00000
1FFFF00000
3FFFF00000
3FFFE00000
7FFF800000
FFE0000000
FC00000000
ENDCHAR
STARTCHAR 012C
ENCODING 300
SWIDTH 334 0
DWIDTH 26 0
BBX 41 67 2 0
BITMAP
00007E003F80
00007E007F00
00007F00FF00
00007F01FE00
00007FFFFE00
00007FFFFC00
00003FFFF800
00003FFFF000
00001FFFE000
00000FFFC000
000007FF8000
000001FC0000
000000000000
000000000000
000000000000
00007FFEC000
0000FFFFC000
0001FFFF8000
0001FFFF0000
0000FFFF0000
0001FFFE0000
0001FFFE0000
0001FFFE0000
0003FFFC0000
0003FFFC0000
0007FFFC0000
0007FFF80000
0007FFF80000
000FFFF80000
000FFFF00000
000FFFF00000
001FFFF00000
001FFFF00000
001FFFE00000
003FFFE00000
003FFFE00000
003FFFC00000
003FFFC00000
007FFFC00000
007FFFC00000
007FFF800000
00FFFF800000
00FFFF800000
00FFFF800000
00FFFF000000
01FFFF000000
01FFFF000000
01FFFF000000
01FFFF000000
03FFFF000000
03FFFE000000
03FFFE000000
03FFFE000000
07FFFE000000
07FFFE000000
07FFFC000000
07FFFC000000
0FFFF8000000
0FFFF8000000
0FFFF0000000
1FFFF0000000
1FFFF0000000
3FFFF0000000
3FFFE0000000
7FFF80000000
FFE000000000
FC0000000000
ENDCHAR
STARTCHAR 012D
ENCODING 301
SWIDTH 334 0
DWIDTH 26 0
BBX 41 67 2 0
BITMAP
00007E003F80
00007E007F00
00007F00FF00
00007F01FE00
00007FFFFE00
00007FFFFC00
00003FFFF800
00003FFFF000
00001FFFE000
00000FFFC000
000007FF8000
000001FC0000
000000000000
000000000000
000000000000
00007FFEC000
0000FFFFC000
0001FFFF8000
0001FFFF0000
0000FFFF0000
0001FFFE0000
0001FFFE0000
0001FFFE0000
0003FFFC0000
0003FFFC0000
0007FFFC0000
0007FFF80000
0007FFF80000
000FFFF80000
000FFFF00000
000FFFF00000
001FFFF00000
001FFFF00000
001FFFE00000
003FFFE00000
003FFFE00000
003FFFC00000
003FFFC00000
007FFFC00000
007FFFC00000
007FFF800000
00FFFF800000
00FFFF800000
00FFFF800000
00FFFF000000
01FFFF000000
01FFFF000000
01FFFF000000
01FFFF000000
03FFFF000000
03FFFE000000
03FFFE000000
03FFFE000000
07FFFE000000
07FFFE000000
07FFFC000000
07FFFC000000
0FFFF8000000
0FFFF8000000
0FFFF0000000
1FFFF0000000
1FFFF0000000
3FFFF0000000
3FFFE0000000
7FFF80000000
FFE000000000
FC0000000000
ENDCHAR
STARTCHAR 012E
ENCODING 302
SWIDTH 334 0
DWIDTH 26 0
BBX 34 65 2 -13
BITMAP
00007FFEC0
0000FFFFC0
0001FFFF80
0001FFFF00
0000FFFF00
0001FFFE00
0001FFFE00
0001FFFE00
0003FFFC00
0003FFFC00
0007FFFC00
0007FFF800
0007FFF800
000FFFF800
000FFFF000
000FFFF000
001FFFF000
001FFFF000
001FFFE000
003FFFE000
003FFFE000
003FFFE000
003FFFC000
007FFFC000
007FFFC000
007FFF8000
00FFFF8000
00FFFF8000
00FFFF8000
00FFFF8000
01FFFF0000
01FFFF0000
01FFFF0000
01FFFF0000
03FFFF0000
03FFFE0000
03FFFE0000
03FFFE0000
07FFFE0000
07FFFE0000
07FFFC0000
07FFFC0000
0FFFF80000
0FFFF80000
0FFFF00000
1FFFF00000
1FFFF00000
3FFFF00000
3FFFE00000
7FFF800000
FFF8000000
FFF0000000
07E0000000
0FE0000000
1FC0000000
1FC0000000
3F80000000
7F80000000
7F80780000
7FFFF80000
7FFFF80000
7FFFF80000
7FFFF00000
3FFFF00000
07FFC00000
ENDCHAR
STARTCHAR 012F
ENCODING 303
SWIDTH 334 0
DWIDTH 26 0
BBX 34 65 2 -13
BITMAP
00007FFEC0
0000FFFFC0
0001FFFF80
0001FFFF00
0000FFFF00
0001FFFE00
0001FFFE00
0001FFFE00
0003FFFC00
0003FFFC00
0007FFFC00
0007FFF800
0007FFF800
000FFFF800
000FFFF000
000FFFF000
001FFFF000
001FFFF000
001FFFE000
003FFFE000
003FFFE000
003FFFE000
003FFFC000
007FFFC000
007FFFC000
007FFF8000
00FFFF8000
00FFFF8000
00FFFF8000
00FFFF8000
01FFFF0000
01FFFF0000
01FFFF0000
01FFFF0000
03FFFF0000
03FFFE0000
03FFFE0000
03FFFE0000
07FFFE0000
07FFFE0000
07FFFC0000
07FFFC0000
0FFFF80000
0FFFF80000
0FFFF00000
1FFFF00000
1FFFF00000
3FFFF00000
3FFFE00000
7FFF800000
FFF8000000
FFF0000000
07E0000000
0FE0000000
1FC0000000
1FC0000000
3F80000000
7F80000000
7F80780000
7FFFF80000
7FFFF80000
7FFFF80000
7FFFF00000
3FFFF00000
07FFC00000
ENDCHAR
STARTCHAR 0130
ENCODING 304
SWIDTH 334 0
DWIDTH 26 0
BBX 34 63 2 0
BITMAP
0000007C00
000000FE00
000000FF00
000001FF00
000001FE00
000001FE00
000001FC00
000000F800
0000000000
0000000000
0000000000
00007FFEC0
0000FFFFC0
0001FFFF80
0001FFFF00
0000FFFF00
0001FFFE00
0001FFFE00
0001FFFE00
0003FFFC00
0003FFFC00
0007FFFC00
0007FFF800
0007FFF800
000FFFF800
000FFFF000
000FFFF000
001FFFF000
001FFFF000
001FFFE000
003FFFE000
003FFFE000
003FFFC000
003FFFC000
007FFFC000
007FFFC000
007FFF8000
00FFFF8000
00FFFF8000
00FFFF8000
00FFFF0000
01FFFF0000
01FFFF0000
01FFFF0000
01FFFF0000
03FFFF0000
03FFFE0000
03FFFE0000
03FFFE0000
07FFFE0000
07FFFE0000
07FFFC0000
07FFFC0000
0FFFF80000
0FFFF80000
0FFFF00000
1FFFF00000
1FFFF00000
3FFFF00000
3FFFE00000
7FFF800000
FFE0000000
FC00000000
ENDCHAR
STARTCHAR 0131
ENCODING 305
SWIDTH 334 0
DWIDTH 26 0
BBX 34 63 2 0
BITMAP
0000007C00
000000FE00
000000FF00
000001FF00
000001FE00
000001FE00
000001FC00
000000F800
0000000000
0000000000
0000000000
00007FFEC0
0000FFFFC0
0001FFFF80
0001FFFF00
0000FFFF00
0001FFFE00
0001FFFE00
0001FFFE00
0003FFFC00
0003FFFC00
0007FFFC00
0007FFF800
0007FFF800
000FFFF800
000FFFF000
000FFFF000
001FFFF000
001FFFF000
001FFFE000
003FFFE000
003FFFE000
003FFFC000
003FFFC000
007FFFC000
007FFFC000
007FFF8000
00FFFF8000
00FFFF8000
00FFFF8000
00FFFF0000
01FFFF0000
01FFFF0000
01FFFF0000
01FFFF0000
03FFFF0000
03FFFE0000
03FFFE0000
03FFFE0000
07FFFE0000
07FFFE0000
07FFFC0000
07FFFC0000
0FFFF80000
0FFFF80000
0FFFF00000
1FFFF00000
1FFFF00000
3FFFF00000
3FFFE00000
7FFF800000
FFE0000000
FC00000000
ENDCHAR
STARTCHAR 0132
ENCODING 306
SWIDTH 604 0
DWIDTH 47 0
BBX 53 53 2 -1
BITMAP
00000000000018
0000FFE8007FF8
0001FFF800FFF8
0003FFF800FFF8
0003FFF000FFF8
0003FFE001FFF8
0003FFE001FFF8
0003FFE003FFF8
0007FFC003FFF8
0007FFC003FFF8
0007FFC007FFF0
000FFF8007FFF0
000FFF8007FFF0
000FFF800FFFF0
001FFF000FFFE0
001FFF000FFFE0
001FFF000FFFE0
003FFF001FFFE0
003FFE001FFFE0
003FFE001FFFE0
003FFE001FFFE0
007FFE003FFFE0
007FFC003FFFC0
007FFC003FFFC0
00FFFC003FFFC0
00FFFC003FFFC0
00FFF8003FFFC0
00FFF8003FFF80
01FFF8003FFF80
01FFF8003FFF80
01FFF0003FFF80
01FFF0003FFF00
03FFF0003FFF00
03FFF0003FFF00
03FFF0003FFE00
03FFE01C3FFE00
07FFE3FC3FFE00
07FFE7FC3FFC00
07FFE7FE3FFC00
07FFEFFE7FFC00
0FFFCFFE7FF800
0FFFCFFE7FF000
0FFFCFFF7FF000
0FFF8FFFFFE000
1FFF8FFFFFE000
1FFF0FFFFFC000
1FFF07FFFF8000
3FFF07FFFF0000
3FFF07FFFE0000
7FFE03FFFC0000
7FFC01FFF80000
FF80007FF00000
F800001FC00000
ENDCHAR
STARTCHAR 0133
ENCODING 307
SWIDTH 604 0
DWIDTH 47 0
BBX 53 53 2 -1
BITMAP
00000000000018
0000FFE8007FF8
0001FFF800FFF8
0003FFF800FFF8
0003FFF000FFF8
0003FFE001FFF8
0003FFE001FFF8
0003FFE003FFF8
0007FFC003FFF8
0007FFC003FFF8
0007FFC007FFF0
000FFF8007FFF0
000FFF8007FFF0
000FFF800FFFF0
001FFF000FFFE0
001FFF000FFFE0
001FFF000FFFE0
003FFF001FFFE0
003FFE001FFFE0
003FFE001FFFE0
003FFE001FFFE0
007FFE003FFFE0
007FFC003FFFC0
007FFC003FFFC0
00FFFC003FFFC0
00FFFC003FFFC0
00FFF8003FFFC0
00FFF8003FFF80
01FFF8003FFF80
01FFF8003FFF80
01FFF0003FFF80
01FFF0003FFF00
03FFF0003FFF00
03FFF0003FFF00
03FFF0003FFE00
03FFE01C3FFE00
07FFE3FC3FFE00
07FFE7FC3FFC00
07FFE7FE3FFC00
07FFEFFE7FFC00
0FFFCFFE7FF800
0FFFCFFE7FF000
0FFFCFFF7FF000
0FFF8FFFFFE000
1FFF8FFFFFE000
1FFF0FFFFFC000
1FFF07FFFF8000
3FFF07FFFF0000
3FFF07FFFE0000
7FFE03FFFC0000
7FFC01FFF80000
FF80007FF00000
F800001FC00000
ENDCHAR
STARTCHAR 0134
ENCODING 308
SWIDTH 450 0
DWIDTH 35 0
BBX 44 68 4 -1
BITMAP
000000007000
00000001F800
00000007FE00
0000000FFF00
0000003FFF80
0000007FFFC0
000000FFFFE0
000001FFFFF0
000003FF3FF0
000007FE1FF0
00000FFC0FE0
00000FF00200
000007C00000
000000000000
000000000000
000000000600
000000FFFF00
000001FFFF00
000001FFFF00
000003FFFF00
000003FFFF00
000003FFFE00
000007FFFE00
000007FFFE00
00000FFFFE00
00000FFFFE00
00001FFFFE00
00001FFFFC00
00001FFFFC00
00003FFFFC00
00003FFFFC00
00003FFFFC00
00003FFFFC00
00007FFFFC00
00007FFFF800
00007FFFF800
00007FFFF800
00007FFFF800
0000FFFFF800
00007FFFF800
00007FFFF000
00007FFFF000
00007FFFF000
00007FFFF000
00007FFFE000
00007FFFE000
00007FFFE000
00007FFFE000
00007FFFC000
00007FFFC000
00F07FFFC000
3FF07FFF8000
7FF87FFF8000
7FF87FFF0000
FFFC7FFF0000
FFFCFFFE0000
FFFC7FFC0000
FFFEFFFC0000
FFFFFFF80000
FFFFFFF80000
FFFFFFF00000
7FFFFFE00000
7FFFFFC00000
3FFFFF000000
1FFFFE000000
0FFFF8000000
03FFF0000000
007FC0000000
ENDCHAR
STARTCHAR 0135
ENCODING 309
SWIDTH 450 0
DWIDTH 35 0
BBX 44 68 4 -1
BITMAP
000000007000
00000001F800
00000007FE00
0000000FFF00
0000003FFF80
0000007FFFC0
000000FFFFE0
000001FFFFF0
000003FF3FF0
000007FE1FF0
00000FFC0FE0
00000FF00200
000007C00000
000000000000
000000000000
000000000600
000000FFFF00
000001FFFF00
000001FFFF00
000003FFFF00
000003FFFF00
000003FFFE00
000007FFFE00
000007FFFE00
00000FFFFE00
00000FFFFE00
00001FFFFE00
00001FFFFC00
00001FFFFC00
00003FFFFC00
00003FFFFC00
00003FFFFC00
00003FFFFC00
00007FFFFC00
00007FFFF800
00007FFFF800
00007FFFF800
00007FFFF800
0000FFFFF800
00007FFFF800
00007FFFF000
00007FFFF000
00007FFFF000
00007FFFF000
00007FFFE000
00007FFFE000
00007FFFE000
00007FFFE000
00007FFFC000
00007FFFC000
00F07FFFC000
3FF07FFF8000
7FF87FFF8000
7FF87FFF0000
FFFC7FFF0000
FFFCFFFE0000
FFFC7FFC0000
FFFEFFFC0000
FFFFFFF80000
FFFFFFF80000
FFFFFFF00000
7FFFFFE00000
7FFFFFC00000
3FFFFF000000
1FFFFE000000
0FFFF8000000
03FFF0000000
007FC0000000
ENDCHAR
STARTCHAR 0136
ENCODING 310
SWIDTH 552 0
DWIDTH 43 0
BBX 50 67 2 -13
BITMAP
00000000003000
0000020600F000
003FFFFE01F000
003FFFFE03F800
001FFFFE07FC00
001FFFFE0FFFC0
001FFFFC1FFFC0
003FFFFC3FFF80
003FFFF83FFF00
003FFFFC7FFE00
003FFFF8FFFC00
007FFFF9FFF800
007FFFF9FFF000
007FFFFBFFE000
007FFFFFFFC000
00FFFFF7FFC000
00FFFFFFFF0000
00FFFFFFFE0000
00FFFFFFFE0000
01FFFFFFFC0000
01FFFFFFF80000
01FFFFFFF00000
01FFFFFFF00000
01FFFFFFE00000
03FFFFFFC00000
03FFFFFF800000
07FFFFFF800000
07FFFFFF000000
07FFFFFC000000
07FFFFFE000000
0FFFFFFE000000
0FFFFFFF000000
0FFFFFFF800000
0FFFFFFFC00000
1FFFFFFFC00000
1FFFFFFFE00000
1FFFFFFFF00000
1FFFFFFFF00000
3FFFFFFFF80000
3FFFFEFFF80000
3FFFFEFFFC0000
3FFFFC7FFC0000
3FFFFC7FFE0000
3FFFF83FFE0000
7FFFF83FFF0000
7FFFF83FFF0000
7FFFF81FFF0000
7FFFF81FFF0000
7FFFF80FFF8000
7FFFF80FFF8000
7FFFF80FF38000
FFFFF007C00000
FFFFE00F800000
00040007000000
00000000000000
0000FF80000000
0001FFC0000000
0001FF80000000
0001FF80000000
0003FF80000000
0003FF00000000
0003FF00000000
0007FE00000000
000FFC00000000
000FF800000000
0007F000000000
0003C000000000
ENDCHAR
STARTCHAR 0137
ENCODING 311
SWIDTH 552 0
DWIDTH 43 0
BBX 50 67 2 -13
BITMAP
00000000003000
0000020600F000
003FFFFE01F000
003FFFFE03F800
001FFFFE07FC00
001FFFFE0FFFC0
001FFFFC1FFFC0
003FFFFC3FFF80
003FFFF83FFF00
003FFFFC7FFE00
003FFFF8FFFC00
007FFFF9FFF800
007FFFF9FFF000
007FFFFBFFE000
007FFFFFFFC000
00FFFFF7FFC000
00FFFFFFFF0000
00FFFFFFFE0000
00FFFFFFFE0000
01FFFFFFFC0000
01FFFFFFF80000
01FFFFFFF00000
01FFFFFFF00000
01FFFFFFE00000
03FFFFFFC00000
03FFFFFF800000
07FFFFFF800000
07FFFFFF000000
07FFFFFC000000
07FFFFFE000000
0FFFFFFE000000
0FFFFFFF000000
0FFFFFFF800000
0FFFFFFFC00000
1FFFFFFFC00000
1FFFFFFFE00000
1FFFFFFFF00000
1FFFFFFFF00000
3FFFFFFFF80000
3FFFFEFFF80000
3FFFFEFFFC0000
3FFFFC7FFC0000
3FFFFC7FFE0000
3FFFF83FFE0000
7FFFF83FFF0000
7FFFF83FFF0000
7FFFF81FFF0000
7FFFF81FFF0000
7FFFF80FFF8000
7FFFF80FFF8000
7FFFF80FF38000
FFFFF007C00000
FFFFE00F800000
00040007000000
00000000000000
0000FF80000000
0001FFC0000000
0001FF80000000
0001FF80000000
0003FF80000000
0003FF00000000
0003FF00000000
0007FE00000000
000FFC00000000
000FF800000000
0007F000000000
0003C000000000
ENDCHAR
STARTCHAR 0138
ENCODING 312
SWIDTH 527 0
DWIDTH 41 0
BBX 46 43 2 -1
BITMAP
000000100700
00FFFFF00F80
00FFFFF01FC0
007FFFF07FE0
007FFFE0FFFC
00FFFFE1FFF8
00FFFFC3FFF0
00FFFFE3FFE0
01FFFFC7FFC0
01FFFFCFFF80
01FFFFDFFF00
01FFFFDFFE00
03FFFFFFFC00
03FFFFFFF800
03FFFFFFF000
03FFFFFFE000
07FFFFFFC000
07FFFFFF8000
07FFFFFF0000
07FFFFFF0000
07FFFFFC0000
0FFFFFF80000
0FFFFFF00000
1FFFFFF80000
1FFFFFFC0000
1FFFFFFE0000
1FFFFFFF0000
3FFFFFFF0000
3FFFFFFF8000
3FFFFFFFC000
3FFFFFFFE000
7FFFFBFFE000
7FFFF9FFF000
7FFFF0FFF800
7FFFF0FFF800
7FFFF07FFC00
7FFFE07FFC00
FFFFF03FFC00
FFFFF03FFE00
FFFFF01FFE00
FFFFE01F8400
FFFFC01E0000
0008001C0000
ENDCHAR
STARTCHAR 0139
ENCODING 313
SWIDTH 514 0
DWIDTH 40 0
BBX 45 68 1 -1
BITMAP
000000001FF8
000000003FF8
000000007FF0
00000000FFE0
00000001FFC0
00000001FF80
00000003FE00
00000007FC00
0000000FF800
0000000FF000
0000001FE000
00000003C000
000000000000
000000000000
0000003FF800
000007FFFC00
00001FFFFC00
00003FFFFC00
00007FFFF800
00007FFFF800
00007FFFF800
0000FFFFF000
0000FFFFF000
0000FFFFE000
0001FFFFE000
0001FFFFE000
0001FFFFC000
0003FFFFC000
0003FFFFC000
0003FFFF8000
0003FFFF8000
0007FFFF0000
0007FFFF0000
0007FFFF0000
0007FFFE0000
000FFFFE0000
000FFFFE0000
001FFFFC0000
001FFFFC0000
003FFFF80000
003FFFF80000
003FFFF80000
007FFFF00000
007FFFF00000
00FFFFE00000
00FFFFE00000
00FFFFE00000
01FFFFC00000
01FFFFC00000
01FFFFC00000
03FFFFC00000
03FFFFFFFF00
03FFFFFFFF00
07FFFFFFFE00
07FFFFFFFE00
07FFFFFFFE00
07FFFFFFFE00
0FFFFFFFFE00
0FFFFFFFFC00
0FFFFFFFFC00
0FFFFFFFFC00
1FFFFFFFFC00
1FFFFFFFFC00
1FFFFFFFFC00
1FFFFFFF0000
3FFFFFFF0000
7FFE00000000
FE0000000000
ENDCHAR
STARTCHAR 013A
ENCODING 314
SWIDTH 514 0
DWIDTH 40 0
BBX 45 68 1 -1
BITMAP
000000001FF8
000000003FF8
000000007FF0
00000000FFE0
00000001FFC0
00000001FF80
00000003FE00
00000007FC00
0000000FF800
0000000FF000
0000001FE000
00000003C000
000000000000
000000000000
0000003FF800
000007FFFC00
00001FFFFC00
00003FFFFC00
00007FFFF800
00007FFFF800
00007FFFF800
0000FFFFF000
0000FFFFF000
0000FFFFE000
0001FFFFE000
0001FFFFE000
0001FFFFC000
0003FFFFC000
0003FFFFC000
0003FFFF8000
0003FFFF8000
0007FFFF0000
0007FFFF0000
0007FFFF0000
0007FFFE0000
000FFFFE0000
000FFFFE0000
001FFFFC0000
001FFFFC0000
003FFFF80000
003FFFF80000
003FFFF80000
007FFFF00000
007FFFF00000
00FFFFE00000
00FFFFE00000
00FFFFE00000
01FFFFC00000
01FFFFC00000
01FFFFC00000
03FFFFC00000
03FFFFFFFF00
03FFFFFFFF00
07FFFFFFFE00
07FFFFFFFE00
07FFFFFFFE00
07FFFFFFFE00
0FFFFFFFFE00
0FFFFFFFFC00
0FFFFFFFFC00
0FFFFFFFFC00
1FFFFFFFFC00
1FFFFFFFFC00
1FFFFFFFFC00
1FFFFFFF0000
3FFFFFFF0000
7FFE00000000
FE0000000000
ENDCHAR
STARTCHAR 013B
ENCODING 315
SWIDTH 514 0
DWIDTH 40 0
BBX 40 66 1 -13
BITMAP
0000003FF8
000007FFFC
00001FFFFC
00003FFFFC
00007FFFF8
00007FFFF8
00007FFFF8
0000FFFFF0
0000FFFFF0
0000FFFFE0
0001FFFFE0
0001FFFFE0
0001FFFFC0
0003FFFFC0
0003FFFFC0
0003FFFF80
0003FFFF80
0007FFFF00
0007FFFF00
0007FFFF00
0007FFFE00
000FFFFE00
000FFFFE00
001FFFFC00
001FFFFC00
003FFFF800
003FFFF800
003FFFF800
007FFFF000
007FFFF000
00FFFFE000
00FFFFE000
00FFFFE000
01FFFFC000
01FFFFC000
01FFFFC000
03FFFFC000
03FFFFFFFF
03FFFFFFFF
07FFFFFFFE
07FFFFFFFE
07FFFFFFFE
07FFFFFFFE
0FFFFFFFFE
0FFFFFFFFC
0FFFFFFFFC
0FFFFFFFFC
1FFFFFFFFC
1FFFFFFFFC
1FFFFFFFFC
1FFFFFFF00
3FFFFFFF00
7FFE000000
FE00000000
0007FC0000
000FFE0000
000FFE0000
000FFE0000
000FFC0000
001FFC0000
001FF80000
003FF00000
003FE00000
007FC00000
003F800000
000F000000
ENDCHAR
STARTCHAR 013C
ENCODING 316
SWIDTH 514 0
DWIDTH 40 0
BBX 40 66 1 -13
BITMAP
0000003FF8
000007FFFC
00001FFFFC
00003FFFFC
00007FFFF8
00007FFFF8
00007FFFF8
0000FFFFF0
0000FFFFF0
0000FFFFE0
0001FFFFE0
0001FFFFE0
0001FFFFC0
0003FFFFC0
0003FFFFC0
0003FFFF80
0003FFFF80
0007FFFF00
0007FFFF00
0007FFFF00
0007FFFE00
000FFFFE00
000FFFFE00
001FFFFC00
001FFFFC00
003FFFF800
003FFFF800
003FFFF800
007FFFF000
007FFFF000
00FFFFE000
00FFFFE000
00FFFFE000
01FFFFC000
01FFFFC000
01FFFFC000
03FFFFC000
03FFFFFFFF
03FFFFFFFF
07FFFFFFFE
07FFFFFFFE
07FFFFFFFE
07FFFFFFFE
0FFFFFFFFE
0FFFFFFFFC
0FFFFFFFFC
0FFFFFFFFC
1FFFFFFFFC
1FFFFFFFFC
1FFFFFFFFC
1FFFFFFF00
3FFFFFFF00
7FFE000000
FE00000000
0007FC0000
000FFE0000
000FFE0000
000FFE0000
000FFC0000
001FFC0000
001FF80000
003FF00000
003FE00000
007FC00000
003F800000
000F000000
ENDCHAR
STARTCHAR 013D
ENCODING 317
SWIDTH 514 0
DWIDTH 40 0
BBX 49 56 1 -1
BITMAP
00000000003F80
00000000007F80
0000003FF87F80
000007FFFCFF80
00001FFFFCFF80
00003FFFFCFF00
00007FFFF8FF00
00007FFFF8FF00
00007FFFF9FE00
0000FFFFF1FE00
0000FFFFF1FC00
0000FFFFE3FC00
0001FFFFE3F800
0001FFFFE7F800
0001FFFFC7F000
0003FFFFC3E000
0003FFFFC3C000
0003FFFF81C000
0003FFFF800000
0007FFFF000000
0007FFFF000000
0007FFFF000000
0007FFFE000000
000FFFFE000000
000FFFFE000000
001FFFFC000000
001FFFFC000000
003FFFF8000000
003FFFF8000000
003FFFF8000000
007FFFF0000000
007FFFF0000000
00FFFFE0000000
00FFFFE0000000
00FFFFE0000000
01FFFFC0000000
01FFFFC0000000
01FFFFC0000000
03FFFFC0000000
03FFFFFFFF0000
03FFFFFFFF0000
07FFFFFFFE0000
07FFFFFFFE0000
07FFFFFFFE0000
07FFFFFFFE0000
0FFFFFFFFE0000
0FFFFFFFFC0000
0FFFFFFFFC0000
0FFFFFFFFC0000
1FFFFFFFFC0000
1FFFFFFFFC0000
1FFFFFFFFC0000
1FFFFFFF000000
3FFFFFFF000000
7FFE0000000000
FE000000000000
ENDCHAR
STARTCHAR 013E
ENCODING 318
SWIDTH 514 0
DWIDTH 40 0
BBX 49 56 1 -1
BITMAP
00000000003F80
00000000007F80
0000003FF87F80
000007FFFCFF80
00001FFFFCFF80
00003FFFFCFF00
00007FFFF8FF00
00007FFFF8FF00
00007FFFF9FE00
0000FFFFF1FE00
0000FFFFF1FC00
0000FFFFE3FC00
0001FFFFE3F800
0001FFFFE7F800
0001FFFFC7F000
0003FFFFC3E000
0003FFFFC3C000
0003FFFF81C000
0003FFFF800000
0007FFFF000000
0007FFFF000000
0007FFFF000000
0007FFFE000000
000FFFFE000000
000FFFFE000000
001FFFFC000000
001FFFFC000000
003FFFF8000000
003FFFF8000000
003FFFF8000000
007FFFF0000000
007FFFF0000000
00FFFFE0000000
00FFFFE0000000
00FFFFE0000000
01FFFFC0000000
01FFFFC0000000
01FFFFC0000000
03FFFFC0000000
03FFFFFFFF0000
03FFFFFFFF0000
07FFFFFFFE0000
07FFFFFFFE0000
07FFFFFFFE0000
07FFFFFFFE0000
0FFFFFFFFE0000
0FFFFFFFFC0000
0FFFFFFFFC0000
0FFFFFFFFC0000
1FFFFFFFFC0000
1FFFFFFFFC0000
1FFFFFFFFC0000
1FFFFFFF000000
3FFFFFFF000000
7FFE0000000000
FE000000000000
ENDCHAR
STARTCHAR 013F
ENCODING 319
SWIDTH 514 0
DWIDTH 40 0
BBX 40 54 1 -1
BITMAP
0000003FF8
000007FFFC
00001FFFFC
00003FFFFC
00007FFFF8
00007FFFF8
00007FFFF8
0000FFFFF0
0000FFFFF0
0000FFFFE0
0001FFFFE0
0001FFFFE0
0001FFFFC0
0003FFFFC0
0003FFFFC0
0003FFFF80
0003FFFF80
0007FFFF00
0007FFFF00
0007FFFF00
0007FFFE00
000FFFFE00
000FFFFE3C
001FFFFCFE
001FFFFCFF
003FFFF9FF
003FFFF9FE
003FFFF9FE
007FFFF1FC
007FFFF0F8
00FFFFE000
00FFFFE000
00FFFFE000
01FFFFC000
01FFFFC000
01FFFFC000
03FFFFC000
03FFFFFFFF
03FFFFFFFF
07FFFFFFFE
07FFFFFFFE
07FFFFFFFE
07FFFFFFFE
0FFFFFFFFE
0FFFFFFFFC
0FFFFFFFFC
0FFFFFFFFC
1FFFFFFFFC
1FFFFFFFFC
1FFFFFFFFC
1FFFFFFF00
3FFFFFFF00
7FFE000000
FE00000000
ENDCHAR
STARTCHAR 0140
ENCODING 320
SWIDTH 514 0
DWIDTH 40 0
BBX 40 54 1 -1
BITMAP
0000003FF8
000007FFFC
00001FFFFC
00003FFFFC
00007FFFF8
00007FFFF8
00007FFFF8
0000FFFFF0
0000FFFFF0
0000FFFFE0
0001FFFFE0
0001FFFFE0
0001FFFFC0
0003FFFFC0
0003FFFFC0
0003FFFF80
0003FFFF80
0007FFFF00
0007FFFF00
0007FFFF00
0007FFFE00
000FFFFE00
000FFFFE3C
001FFFFCFE
001FFFFCFF
003FFFF9FF
003FFFF9FE
003FFFF9FE
007FFFF1FC
007FFFF0F8
00FFFFE000
00FFFFE000
00FFFFE000
01FFFFC000
01FFFFC000
01FFFFC000
03FFFFC000
03FFFFFFFF
03FFFFFFFF
07FFFFFFFE
07FFFFFFFE
07FFFFFFFE
07FFFFFFFE
0FFFFFFFFE
0FFFFFFFFC
0FFFFFFFFC
0FFFFFFFFC
1FFFFFFFFC
1FFFFFFFFC
1FFFFFFFFC
1FFFFFFF00
3FFFFFFF00
7FFE000000
FE00000000
ENDCHAR
STARTCHAR 0141
ENCODING 321
SWIDTH 540 0
DWIDTH 42 0
BBX 44 54 4 -1
BITMAP
0000007FF000
000007FFFC00
00003FFFFC00
00007FFFF800
00007FFFF800
0000FFFFF000
0000FFFFF000
0000FFFFF000
0001FFFFE180
0001FFFFE3E0
0001FFFFCFE0
0003FFFFDFF0
0003FFFFFFF0
0003FFFFFFF0
0003FFFFFFF0
0007FFFFFFF0
0007FFFFFFF0
0007FFFFFFE0
0007FFFFFF80
000FFFFFFF00
000FFFFFFC00
000FFFFFF800
001FFFFFE000
001FFFFFC000
003FFFFF0000
003FFFFE0000
007FFFF80000
007FFFF00000
00FFFFF00000
03FFFFE00000
07FFFFE00000
1FFFFFE00000
3FFFFFC00000
FFFFFFC00000
FFFFFF800000
FFFFFF800000
FFFFFF800000
FFFFFFFFFE00
FFFFFFFFFE00
FFFFFFFFFE00
FFFFFFFFFC00
FFFFFFFFFC00
EFFFFFFFFC00
CFFFFFFFFC00
0FFFFFFFF800
1FFFFFFFF800
1FFFFFFFF800
1FFFFFFFFC00
1FFFFFFFFC00
3FFFFFFFFC00
3FFFFFFE0000
3FFFFFFE0000
7FFC00000000
FC0000000000
ENDCHAR
STARTCHAR 0142
ENCODING 322
SWIDTH 540 0
DWIDTH 42 0
BBX 44 54 4 -1
BITMAP
0000007FF000
000007FFFC00
00003FFFFC00
00007FFFF800
00007FFFF800
0000FFFFF000
0000FFFFF000
0000FFFFF000
0001FFFFE180
0001FFFFE3E0
0001FFFFCFE0
0003FFFFDFF0
0003FFFFFFF0
0003FFFFFFF0
0003FFFFFFF0
0007FFFFFFF0
0007FFFFFFF0
0007FFFFFFE0
0007FFFFFF80
000FFFFFFF00
000FFFFFFC00
000FFFFFF800
001FFFFFE000
001FFFFFC000
003FFFFF0000
003FFFFE0000
007FFFF80000
007FFFF00000
00FFFFF00000
03FFFFE00000
07FFFFE00000
1FFFFFE00000
3FFFFFC00000
FFFFFFC00000
FFFFFF800000
FFFFFF800000
FFFFFF800000
FFFFFFFFFE00
FFFFFFFFFE00
FFFFFFFFFE00
FFFFFFFFFC00
FFFFFFFFFC00
EFFFFFFFFC00
CFFFFFFFFC00
0FFFFFFFF800
1FFFFFFFF800
1FFFFFFFF800
1FFFFFFFFC00
1FFFFFFFFC00
3FFFFFFFFC00
3FFFFFFE0000
3FFFFFFE0000
7FFC00000000
FC0000000000
ENDCHAR
STARTCHAR 0143
ENCODING 323
SWIDTH 565 0
DWIDTH 44 0
BBX 51 66 2 1
BITMAP
0000000000FFC0
0000000001FFC0
0000000003FF80
0000000003FF00
0000000007FE00
000000000FFC00
000000001FF800
000000001FF000
000000003FE000
000000007F8000
000000007F8000
000000001F0000
00000000000000
00000000000000
00000000000000
00001F00003F00
0000FFF801FFC0
0001FFFE07FFE0
0003FFFE0FFFE0
0003FFFC0FFFE0
0003FFFC0FFFE0
0007FFFC1FFFC0
0007FFF81FFFC0
0007FFF81FFFC0
000FFFF81FFF80
000FFFF83FFF80
000FFFF83FFF80
001FFFF83FFF00
001FFFF83FFF00
003FFFF87FFF00
003FFFF87FFE00
003FFFF87FFE00
007FFFF87FFE00
007FFFF8FFFC00
007FFFF8FFFC00
00FFFFF8FFFC00
00FFFFF8FFF800
00FFFFF9FFF800
01FFFFFDFFF800
01FFFFFDFFF000
01FFFFFDFFF000
03FFFFFFFFF000
03FFFFFFFFF000
03FFFFFFFFE000
03FFFFFFFFE000
07FFFFFFFFE000
07FFF3FFFFC000
07FFF3FFFFC000
07FFF3FFFFC000
0FFFF3FFFFC000
0FFFE3FFFF8000
0FFFE3FFFF8000
0FFFE3FFFF8000
1FFFE1FFFF8000
1FFFC1FFFF0000
1FFFC1FFFF0000
3FFFC1FFFF0000
3FFF81FFFE0000
3FFF81FFFE0000
7FFF81FFFE0000
7FFF81FFFE0000
7FFF01FFFE0000
7FFF01FFFC0000
FFFF03FFFC0000
FFFE03FFF80000
FFE0007FC00000
ENDCHAR
STARTCHAR 0144
ENCODING 324
SWIDTH 565 0
DWIDTH 44 0
BBX 51 66 2 1
BITMAP
0000000000FFC0
0000000001FFC0
0000000003FF80
0000000003FF00
0000000007FE00
000000000FFC00
000000001FF800
000000001FF000
000000003FE000
000000007F8000
000000007F8000
000000001F0000
00000000000000
00000000000000
00000000000000
00001F00003F00
0000FFF801FFC0
0001FFFE07FFE0
0003FFFE0FFFE0
0003FFFC0FFFE0
0003FFFC0FFFE0
0007FFFC1FFFC0
0007FFF81FFFC0
0007FFF81FFFC0
000FFFF81FFF80
000FFFF83FFF80
000FFFF83FFF80
001FFFF83FFF00
001FFFF83FFF00
003FFFF87FFF00
003FFFF87FFE00
003FFFF87FFE00
007FFFF87FFE00
007FFFF8FFFC00
007FFFF8FFFC00
00FFFFF8FFFC00
00FFFFF8FFF800
00FFFFF9FFF800
01FFFFFDFFF800
01FFFFFDFFF000
01FFFFFDFFF000
03FFFFFFFFF000
03FFFFFFFFF000
03FFFFFFFFE000
03FFFFFFFFE000
07FFFFFFFFE000
07FFF3FFFFC000
07FFF3FFFFC000
07FFF3FFFFC000
0FFFF3FFFFC000
0FFFE3FFFF8000
0FFFE3FFFF8000
0FFFE3FFFF8000
1FFFE1FFFF8000
1FFFC1FFFF0000
1FFFC1FFFF0000
3FFFC1FFFF0000
3FFF81FFFE0000
3FFF81FFFE0000
7FFF81FFFE0000
7FFF81FFFE0000
7FFF01FFFE0000
7FFF01FFFC0000
FFFF03FFFC0000
FFFE03FFF80000
FFE0007FC00000
ENDCHAR
STARTCHAR 0145
ENCODING 325
SWIDTH 565 0
DWIDTH 44 0
BBX 51 65 2 -13
BITMAP
00001F00003F00
0000FFF801FFC0
0001FFFE07FFE0
0003FFFE0FFFE0
0003FFFC0FFFE0
0003FFFC0FFFE0
0007FFFC1FFFC0
0007FFF81FFFC0
0007FFF81FFFC0
000FFFF81FFF80
000FFFF83FFF80
000FFFF83FFF80
001FFFF83FFF00
001FFFF83FFF00
003FFFF87FFF00
003FFFF87FFE00
003FFFF87FFE00
007FFFF87FFE00
007FFFF8FFFC00
007FFFF8FFFC00
00FFFFF8FFFC00
00FFFFF8FFF800
00FFFFF9FFF800
01FFFFFDFFF800
01FFFFFDFFF000
01FFFFFDFFF000
03FFFFFFFFF000
03FFFFFFFFF000
03FFFFFFFFE000
03FFFFFFFFE000
07FFFFFFFFE000
07FFF3FFFFC000
07FFF3FFFFC000
07FFF3FFFFC000
0FFFF3FFFFC000
0FFFE3FFFF8000
0FFFE3FFFF8000
0FFFE3FFFF8000
1FFFE1FFFF8000
1FFFC1FFFF0000
1FFFC1FFFF0000
3FFFC1FFFF0000
3FFF81FFFE0000
3FFF81FFFE0000
7FFF81FFFE0000
7FFF81FFFE0000
7FFF01FFFE0000
7FFF01FFFC0000
FFFF03FFFC0000
FFFE03FFF80000
FFE0007FC00000
00000000000000
00000000000000
000FF800000000
001FFC00000000
001FFC00000000
001FFC00000000
001FF800000000
003FF800000000
003FF000000000
007FE000000000
007FC000000000
00FF8000000000
007F0000000000
001E0000000000
ENDCHAR
STARTCHAR 0146
ENCODING 326
SWIDTH 565 0
DWIDTH 44 0
BBX 51 65 2 -13
BITMAP
00001F00003F00
0000FFF801FFC0
0001FFFE07FFE0
0003FFFE0FFFE0
0003FFFC0FFFE0
0003FFFC0FFFE0
0007FFFC1FFFC0
0007FFF81FFFC0
0007FFF81FFFC0
000FFFF81FFF80
000FFFF83FFF80
000FFFF83FFF80
001FFFF83FFF00
001FFFF83FFF00
003FFFF87FFF00
003FFFF87FFE00
003FFFF87FFE00
007FFFF87FFE00
007FFFF8FFFC00
007FFFF8FFFC00
00FFFFF8FFFC00
00FFFFF8FFF800
00FFFFF9FFF800
01FFFFFDFFF800
01FFFFFDFFF000
01FFFFFDFFF000
03FFFFFFFFF000
03FFFFFFFFF000
03FFFFFFFFE000
03FFFFFFFFE000
07FFFFFFFFE000
07FFF3FFFFC000
07FFF3FFFFC000
07FFF3FFFFC000
0FFFF3FFFFC000
0FFFE3FFFF8000
0FFFE3FFFF8000
0FFFE3FFFF8000
1FFFE1FFFF8000
1FFFC1FFFF0000
1FFFC1FFFF0000
3FFFC1FFFF0000
3FFF81FFFE0000
3FFF81FFFE0000
7FFF81FFFE0000
7FFF81FFFE0000
7FFF01FFFE0000
7FFF01FFFC0000
FFFF03FFFC0000
FFFE03FFF80000
FFE0007FC00000
00000000000000
00000000000000
000FF800000000
001FFC00000000
001FFC00000000
001FFC00000000
001FF800000000
003FF800000000
003FF000000000
007FE000000000
007FC000000000
00FF8000000000
007F0000000000
001E0000000000
ENDCHAR
STARTCHAR 0147
ENCODING 327
SWIDTH 565 0
DWIDTH 44 0
BBX 51 65 2 1
BITMAP
0000001F803F00
0000003FC0FF80
0000007FE1FF80
0000007FF7FF00
0000003FFFFE00
0000001FFFFC00
0000000FFFF800
00000007FFE000
00000003FFC000
00000001FF0000
00000000FC0000
00000000700000
00000000000000
00000000000000
00001F00003F00
0000FFF801FFC0
0001FFFE07FFE0
0003FFFE0FFFE0
0003FFFC0FFFE0
0003FFFC0FFFE0
0007FFFC1FFFC0
0007FFF81FFFC0
0007FFF81FFFC0
000FFFF81FFF80
000FFFF83FFF80
000FFFF83FFF80
001FFFF83FFF00
001FFFF83FFF00
003FFFF87FFF00
003FFFF87FFE00
003FFFF87FFE00
007FFFF87FFE00
007FFFF8FFFC00
007FFFF8FFFC00
00FFFFF8FFFC00
00FFFFF8FFF800
00FFFFF9FFF800
01FFFFFDFFF800
01FFFFFDFFF000
01FFFFFDFFF000
03FFFFFFFFF000
03FFFFFFFFF000
03FFFFFFFFE000
03FFFFFFFFE000
07FFFFFFFFE000
07FFF3FFFFC000
07FFF3FFFFC000
07FFF3FFFFC000
0FFFF3FFFFC000
0FFFE3FFFF8000
0FFFE3FFFF8000
0FFFE3FFFF8000
1FFFE1FFFF8000
1FFFC1FFFF0000
1FFFC1FFFF0000
3FFFC1FFFF0000
3FFF81FFFE0000
3FFF81FFFE0000
7FFF81FFFE0000
7FFF81FFFE0000
7FFF01FFFE0000
7FFF01FFFC0000
FFFF03FFFC0000
FFFE03FFF80000
FFE0007FC00000
ENDCHAR
ENDFONT
